<?xml version="1.0" encoding="UTF-8" standalone="no"?>
<!-- Created with Inkscape (http://www.inkscape.org/) -->

<svg
   width="187.274mm"
   height="259mm"
   viewBox="0 0 187.274 259"
   version="1.1"
   id="svg1"
   inkscape:version="1.3.2 (091e20e, 2023-11-25)"
   sodipodi:docname="autumns_ruck_knotless_tibetan.svg"
   xmlns:inkscape="http://www.inkscape.org/namespaces/inkscape"
   xmlns:sodipodi="http://sodipodi.sourceforge.net/DTD/sodipodi-0.dtd"
   xmlns="http://www.w3.org/2000/svg"
   xmlns:svg="http://www.w3.org/2000/svg">
  <sodipodi:namedview
     id="namedview1"
     pagecolor="#ffffff"
     bordercolor="#eeeeee"
     borderopacity="1"
     inkscape:showpageshadow="0"
     inkscape:pageopacity="0"
     inkscape:pagecheckerboard="0"
     inkscape:deskcolor="#505050"
     inkscape:document-units="mm"
     inkscape:zoom="0.38723101"
     inkscape:cx="344.75545"
     inkscape:cy="519.07"
     inkscape:window-width="1472"
     inkscape:window-height="803"
     inkscape:window-x="336"
     inkscape:window-y="1117"
     inkscape:window-maximized="1"
     inkscape:current-layer="layer1" />
  <defs
     id="defs1">
    <inkscape:path-effect
       effect="simplify"
       id="path-effect548-6"
       is_visible="true"
       lpeversion="1.3"
       threshold="8.51064"
       steps="1"
       smooth_angles="360"
       helper_size="0"
       simplify_individual_paths="false"
       simplify_just_coalesce="false" />
    <inkscape:path-effect
       effect="simplify"
       id="path-effect549-1"
       is_visible="true"
       lpeversion="1.3"
       threshold="8.51064"
       steps="1"
       smooth_angles="360"
       helper_size="0"
       simplify_individual_paths="false"
       simplify_just_coalesce="false" />
    <inkscape:path-effect
       effect="simplify"
       id="path-effect551-8"
       is_visible="true"
       lpeversion="1.3"
       threshold="8.51064"
       steps="1"
       smooth_angles="360"
       helper_size="0"
       simplify_individual_paths="false"
       simplify_just_coalesce="false" />
    <inkscape:path-effect
       effect="simplify"
       id="path-effect552-8"
       is_visible="true"
       lpeversion="1.3"
       threshold="8.51064"
       steps="1"
       smooth_angles="360"
       helper_size="0"
       simplify_individual_paths="false"
       simplify_just_coalesce="false" />
    <inkscape:path-effect
       effect="simplify"
       id="path-effect553-3"
       is_visible="true"
       lpeversion="1.3"
       threshold="8.51064"
       steps="1"
       smooth_angles="360"
       helper_size="0"
       simplify_individual_paths="false"
       simplify_just_coalesce="false" />
    <inkscape:path-effect
       effect="simplify"
       id="path-effect554-5"
       is_visible="true"
       lpeversion="1.3"
       threshold="8.51064"
       steps="1"
       smooth_angles="360"
       helper_size="0"
       simplify_individual_paths="false"
       simplify_just_coalesce="false" />
    <inkscape:path-effect
       effect="simplify"
       id="path-effect555-6"
       is_visible="true"
       lpeversion="1.3"
       threshold="8.51064"
       steps="1"
       smooth_angles="360"
       helper_size="0"
       simplify_individual_paths="false"
       simplify_just_coalesce="false" />
    <inkscape:path-effect
       effect="simplify"
       id="path-effect560-8"
       is_visible="true"
       lpeversion="1.3"
       threshold="8.51064"
       steps="1"
       smooth_angles="360"
       helper_size="0"
       simplify_individual_paths="false"
       simplify_just_coalesce="false" />
    <inkscape:path-effect
       effect="simplify"
       id="path-effect561-8"
       is_visible="true"
       lpeversion="1.3"
       threshold="8.51064"
       steps="1"
       smooth_angles="360"
       helper_size="0"
       simplify_individual_paths="false"
       simplify_just_coalesce="false" />
    <inkscape:path-effect
       effect="simplify"
       id="path-effect565-9"
       is_visible="true"
       lpeversion="1.3"
       threshold="8.51064"
       steps="1"
       smooth_angles="360"
       helper_size="0"
       simplify_individual_paths="false"
       simplify_just_coalesce="false" />
    <inkscape:path-effect
       effect="simplify"
       id="path-effect566-9"
       is_visible="true"
       lpeversion="1.3"
       threshold="8.51064"
       steps="1"
       smooth_angles="360"
       helper_size="0"
       simplify_individual_paths="false"
       simplify_just_coalesce="false" />
    <inkscape:path-effect
       effect="simplify"
       id="path-effect567-3"
       is_visible="true"
       lpeversion="1.3"
       threshold="8.51064"
       steps="1"
       smooth_angles="360"
       helper_size="0"
       simplify_individual_paths="false"
       simplify_just_coalesce="false" />
    <inkscape:path-effect
       effect="simplify"
       id="path-effect569-7"
       is_visible="true"
       lpeversion="1.3"
       threshold="8.51064"
       steps="1"
       smooth_angles="360"
       helper_size="0"
       simplify_individual_paths="false"
       simplify_just_coalesce="false" />
    <inkscape:path-effect
       effect="simplify"
       id="path-effect571-2"
       is_visible="true"
       lpeversion="1.3"
       threshold="8.51064"
       steps="1"
       smooth_angles="360"
       helper_size="0"
       simplify_individual_paths="false"
       simplify_just_coalesce="false" />
    <inkscape:path-effect
       effect="simplify"
       id="path-effect572-3"
       is_visible="true"
       lpeversion="1.3"
       threshold="8.51064"
       steps="1"
       smooth_angles="360"
       helper_size="0"
       simplify_individual_paths="false"
       simplify_just_coalesce="false" />
    <inkscape:path-effect
       effect="simplify"
       id="path-effect573-8"
       is_visible="true"
       lpeversion="1.3"
       threshold="8.51064"
       steps="1"
       smooth_angles="360"
       helper_size="0"
       simplify_individual_paths="false"
       simplify_just_coalesce="false" />
    <inkscape:path-effect
       effect="simplify"
       id="path-effect575-3"
       is_visible="true"
       lpeversion="1.3"
       threshold="8.51064"
       steps="1"
       smooth_angles="360"
       helper_size="0"
       simplify_individual_paths="false"
       simplify_just_coalesce="false" />
    <inkscape:path-effect
       effect="simplify"
       id="path-effect576-5"
       is_visible="true"
       lpeversion="1.3"
       threshold="8.51064"
       steps="1"
       smooth_angles="360"
       helper_size="0"
       simplify_individual_paths="false"
       simplify_just_coalesce="false" />
    <inkscape:path-effect
       effect="simplify"
       id="path-effect577-1"
       is_visible="true"
       lpeversion="1.3"
       threshold="8.51064"
       steps="1"
       smooth_angles="360"
       helper_size="0"
       simplify_individual_paths="false"
       simplify_just_coalesce="false" />
    <inkscape:path-effect
       effect="simplify"
       id="path-effect578-5"
       is_visible="true"
       lpeversion="1.3"
       threshold="8.51064"
       steps="1"
       smooth_angles="360"
       helper_size="0"
       simplify_individual_paths="false"
       simplify_just_coalesce="false" />
    <inkscape:path-effect
       effect="simplify"
       id="path-effect579-4"
       is_visible="true"
       lpeversion="1.3"
       threshold="8.51064"
       steps="1"
       smooth_angles="360"
       helper_size="0"
       simplify_individual_paths="false"
       simplify_just_coalesce="false" />
    <inkscape:path-effect
       effect="simplify"
       id="path-effect580-2"
       is_visible="true"
       lpeversion="1.3"
       threshold="8.51064"
       steps="1"
       smooth_angles="360"
       helper_size="0"
       simplify_individual_paths="false"
       simplify_just_coalesce="false" />
    <inkscape:path-effect
       effect="simplify"
       id="path-effect581-2"
       is_visible="true"
       lpeversion="1.3"
       threshold="8.51064"
       steps="1"
       smooth_angles="360"
       helper_size="0"
       simplify_individual_paths="false"
       simplify_just_coalesce="false" />
    <inkscape:path-effect
       effect="simplify"
       id="path-effect582-9"
       is_visible="true"
       lpeversion="1.3"
       threshold="8.51064"
       steps="1"
       smooth_angles="360"
       helper_size="0"
       simplify_individual_paths="false"
       simplify_just_coalesce="false" />
    <inkscape:path-effect
       effect="simplify"
       id="path-effect584-5"
       is_visible="true"
       lpeversion="1.3"
       threshold="8.51064"
       steps="1"
       smooth_angles="360"
       helper_size="0"
       simplify_individual_paths="false"
       simplify_just_coalesce="false" />
    <inkscape:path-effect
       effect="simplify"
       id="path-effect588-8"
       is_visible="true"
       lpeversion="1.3"
       threshold="8.51064"
       steps="1"
       smooth_angles="360"
       helper_size="0"
       simplify_individual_paths="false"
       simplify_just_coalesce="false" />
    <inkscape:path-effect
       effect="simplify"
       id="path-effect591-8"
       is_visible="true"
       lpeversion="1.3"
       threshold="8.51064"
       steps="1"
       smooth_angles="360"
       helper_size="0"
       simplify_individual_paths="false"
       simplify_just_coalesce="false" />
    <inkscape:path-effect
       effect="simplify"
       id="path-effect594-0"
       is_visible="true"
       lpeversion="1.3"
       threshold="8.51064"
       steps="1"
       smooth_angles="360"
       helper_size="0"
       simplify_individual_paths="false"
       simplify_just_coalesce="false" />
    <inkscape:path-effect
       effect="simplify"
       id="path-effect595-4"
       is_visible="true"
       lpeversion="1.3"
       threshold="8.51064"
       steps="1"
       smooth_angles="360"
       helper_size="0"
       simplify_individual_paths="false"
       simplify_just_coalesce="false" />
    <inkscape:path-effect
       effect="simplify"
       id="path-effect596-0"
       is_visible="true"
       lpeversion="1.3"
       threshold="8.51064"
       steps="1"
       smooth_angles="360"
       helper_size="0"
       simplify_individual_paths="false"
       simplify_just_coalesce="false" />
    <inkscape:path-effect
       effect="simplify"
       id="path-effect597-8"
       is_visible="true"
       lpeversion="1.3"
       threshold="8.51064"
       steps="1"
       smooth_angles="360"
       helper_size="0"
       simplify_individual_paths="false"
       simplify_just_coalesce="false" />
    <inkscape:path-effect
       effect="simplify"
       id="path-effect598-5"
       is_visible="true"
       lpeversion="1.3"
       threshold="8.51064"
       steps="1"
       smooth_angles="360"
       helper_size="0"
       simplify_individual_paths="false"
       simplify_just_coalesce="false" />
    <inkscape:path-effect
       effect="simplify"
       id="path-effect640-5"
       is_visible="true"
       lpeversion="1.3"
       threshold="8.51064"
       steps="1"
       smooth_angles="360"
       helper_size="0"
       simplify_individual_paths="false"
       simplify_just_coalesce="false" />
    <inkscape:path-effect
       effect="simplify"
       id="path-effect641-9"
       is_visible="true"
       lpeversion="1.3"
       threshold="8.51064"
       steps="1"
       smooth_angles="360"
       helper_size="0"
       simplify_individual_paths="false"
       simplify_just_coalesce="false" />
    <inkscape:path-effect
       effect="simplify"
       id="path-effect642-5"
       is_visible="true"
       lpeversion="1.3"
       threshold="8.51064"
       steps="1"
       smooth_angles="360"
       helper_size="0"
       simplify_individual_paths="false"
       simplify_just_coalesce="false" />
    <inkscape:path-effect
       effect="simplify"
       id="path-effect643-7"
       is_visible="true"
       lpeversion="1.3"
       threshold="8.51064"
       steps="1"
       smooth_angles="360"
       helper_size="0"
       simplify_individual_paths="false"
       simplify_just_coalesce="false" />
    <inkscape:path-effect
       effect="simplify"
       id="path-effect644-7"
       is_visible="true"
       lpeversion="1.3"
       threshold="8.51064"
       steps="1"
       smooth_angles="360"
       helper_size="0"
       simplify_individual_paths="false"
       simplify_just_coalesce="false" />
    <inkscape:path-effect
       effect="simplify"
       id="path-effect645-3"
       is_visible="true"
       lpeversion="1.3"
       threshold="8.51064"
       steps="1"
       smooth_angles="360"
       helper_size="0"
       simplify_individual_paths="false"
       simplify_just_coalesce="false" />
    <inkscape:path-effect
       effect="simplify"
       id="path-effect646-7"
       is_visible="true"
       lpeversion="1.3"
       threshold="8.51064"
       steps="1"
       smooth_angles="360"
       helper_size="0"
       simplify_individual_paths="false"
       simplify_just_coalesce="false" />
    <inkscape:path-effect
       effect="simplify"
       id="path-effect647-6"
       is_visible="true"
       lpeversion="1.3"
       threshold="8.51064"
       steps="1"
       smooth_angles="360"
       helper_size="0"
       simplify_individual_paths="false"
       simplify_just_coalesce="false" />
    <inkscape:path-effect
       effect="simplify"
       id="path-effect650-5"
       is_visible="true"
       lpeversion="1.3"
       threshold="8.51064"
       steps="1"
       smooth_angles="360"
       helper_size="0"
       simplify_individual_paths="false"
       simplify_just_coalesce="false" />
    <inkscape:path-effect
       effect="simplify"
       id="path-effect651-4"
       is_visible="true"
       lpeversion="1.3"
       threshold="8.51064"
       steps="1"
       smooth_angles="360"
       helper_size="0"
       simplify_individual_paths="false"
       simplify_just_coalesce="false" />
    <inkscape:path-effect
       effect="simplify"
       id="path-effect653-5"
       is_visible="true"
       lpeversion="1.3"
       threshold="8.51064"
       steps="1"
       smooth_angles="360"
       helper_size="0"
       simplify_individual_paths="false"
       simplify_just_coalesce="false" />
    <inkscape:path-effect
       effect="simplify"
       id="path-effect654-3"
       is_visible="true"
       lpeversion="1.3"
       threshold="8.51064"
       steps="1"
       smooth_angles="360"
       helper_size="0"
       simplify_individual_paths="false"
       simplify_just_coalesce="false" />
    <inkscape:path-effect
       effect="simplify"
       id="path-effect655-4"
       is_visible="true"
       lpeversion="1.3"
       threshold="8.51064"
       steps="1"
       smooth_angles="360"
       helper_size="0"
       simplify_individual_paths="false"
       simplify_just_coalesce="false" />
  </defs>
  <g
     inkscape:label="Layer 1"
     inkscape:groupmode="layer"
     id="layer1">
    <path
       style="display:inline;fill:#ff0000;stroke:#c8b7b7;stroke-width:0.331197"
       d="m 137.57873,251.63645 c -0.58118,-0.92684 -2.53498,-11.14886 -2.89251,-15.11453 -0.0791,-0.91079 -0.35706,-2.58197 -0.60816,-3.71362 -0.40248,-1.79198 -0.39637,-2.12071 0,-2.54574 0.41003,-0.40937 0.4231,-0.79458 0.10548,-2.38598 -0.21155,-1.0438 -0.37659,-2.58093 -0.37659,-3.41583 0,-0.83476 -0.15186,-2.63565 -0.34411,-4.00188 -0.18471,-1.36616 -0.56202,-4.1234 -0.82342,-6.12715 -0.26465,-2.00374 -0.61475,-4.31393 -0.78123,-5.13358 -0.16553,-0.81973 -0.68451,-3.65151 -1.15567,-6.29276 -1.06793,-5.9929 -2.25427,-10.6714 -2.74797,-10.83583 -0.20483,-0.0692 -0.94891,0.58951 -1.64887,1.46359 -0.70057,0.87401 -2.05795,2.47152 -3.01609,3.5499 -1.96997,2.21648 -2.14904,3.09947 -1.18035,5.82628 0.52881,1.48937 0.52881,1.7894 0,5.05756 -0.31019,1.91085 -0.56189,3.87457 -0.56189,4.36379 0,1.14583 -1.40054,3.52918 -2.79028,4.7494 -0.60133,0.5248 -1.77904,1.23901 -2.62476,1.58699 -0.84595,0.34743 -1.5386,0.75833 -1.53932,0.91206 0,0.39808 2.03421,6.90737 2.3474,7.50369 1.56162,2.97658 5.70593,15.84484 6.15791,19.12201 0.23132,1.67092 -0.24439,2.40581 -1.55095,2.40581 -0.88048,0 -0.90672,-0.0507 -0.75079,-1.43403 0.23144,-2.01975 -1.42954,-8.29837 -3.72924,-14.13227 -0.60792,-1.54833 -1.80409,-4.67347 -2.65268,-6.94471 -0.84859,-2.27137 -1.72103,-4.38359 -1.93833,-4.69402 -0.35694,-0.50734 -0.4358,-0.4668 -0.82282,0.40148 -0.23816,0.53101 -1.23513,1.80687 -2.22252,2.8341 -1.96997,2.05032 -2.13981,2.70333 -1.31387,5.04541 0.67815,1.92086 2.16906,12.22248 2.16906,14.98382 0,2.08754 -0.0731,2.33126 -0.7454,2.58211 -0.41003,0.15199 -0.91666,0.21229 -1.12605,0.1317 -0.49609,-0.18922 -0.80245,-1.36979 -0.41627,-1.60874 0.62805,-0.38799 0.22533,-4.82744 -1.05402,-11.57281 -1.0448,-5.51857 -1.12271,-5.6968 -2.88521,-6.59373 -1.79498,-0.91397 -2.85164,-1.9497 -3.36175,-3.295 -0.31763,-0.84085 -0.48878,-0.93104 -1.536575,-0.80887 -0.981271,0.11434 -1.311717,-0.0165 -1.981959,-0.81784 -0.462889,-0.54731 -0.813352,-1.40422 -0.826776,-2.00616 -0.06592,-1.40406 -0.449225,-2.45705 -0.767206,-1.93979 -0.396368,0.64568 -1.4776,0.44372 -1.893265,-0.35363 -1.367332,-2.62293 -3.110056,-4.83509 -3.940787,-5.00114 -0.785784,-0.15711 -0.9404,-0.40824 -1.274922,-2.07386 -0.416024,-2.07753 -0.49537,-6.8456 -0.171755,-9.98049 0.198843,-1.88789 0.270757,-2.01695 1.241721,-2.29475 0.907439,-0.25846 1.044796,-0.45387 1.129415,-1.6087 0.125491,-1.69389 -1.775685,-6.40539 -4.401159,-10.91891 -1.060257,-1.82153 -2.496866,-4.30806 -3.192757,-5.52555 -0.696491,-1.21744 -1.902015,-3.09173 -2.679769,-4.16496 -3.606265,-4.97564 -4.925414,-6.72932 -7.62436,-10.13734 -2.928952,-3.69824 -3.460879,-4.84622 -2.244327,-4.84622 0.647828,0 5.078112,5.05009 8.30443,9.4727 0.810834,1.11153 2.079164,2.82547 2.818443,3.8088 0.73892,0.98344 1.722948,2.45857 2.185598,3.27837 0.462888,0.81973 1.474963,2.51789 2.249001,3.77402 2.209808,3.58397 4.19896,7.50606 5.510318,10.86067 1.593862,4.07902 1.727383,4.20622 3.300749,3.13713 0.997932,-0.67834 1.506246,-0.81051 2.553079,-0.66405 l 1.306325,0.18302 -0.238037,-1.09746 c -0.336918,-1.53438 -1.344918,-3.43727 -3.051326,-5.76047 -0.802205,-1.0929 -3.306262,-4.85976 -5.563774,-8.37074 -4.376108,-6.80627 -7.203301,-10.4199 -13.885943,-17.74836 -2.331464,-2.55653 -4.142267,-4.81948 -4.086653,-5.10617 0.270757,-1.40725 0.601324,-1.12571 9.842798,8.53834 l 2.059267,2.15279 -0.703801,-1.43119 c -0.726335,-1.47858 -3.665955,-6.46858 -5.692022,-9.664 -0.634404,-1.00179 -1.953433,-3.30724 -2.928952,-5.12305 -2.197463,-4.09148 -3.858804,-5.74363 -7.73343,-7.68946 -2.726633,-1.36942 -5.97884,-3.1922 -10.769295,-6.03631 l -1.784434,-1.05901 0.198243,1.59118 c 0.105475,0.87517 0.37,3.97587 0.581308,6.89031 0.211668,2.91461 0.4364,5.48553 0.502322,5.71318 0.06592,0.23142 0.634404,0.41386 1.287866,0.41386 0.969645,0 1.169927,-0.11949 1.169927,-0.70015 0,-0.85515 -1.451951,-7.10372 -2.197343,-9.45879 -0.601444,-1.90701 -0.456177,-2.75773 0.482545,-2.75773 0.647589,0 1.361339,1.84007 2.499264,6.45837 1.142,4.63575 2.856318,15.29888 2.856318,17.76617 0,0.65819 0.250502,1.77389 0.561891,2.47929 0.34399,0.79361 0.581308,2.29194 0.614628,3.93199 0.118659,5.58101 1.634374,14.51342 2.967906,17.5292 0.945673,2.13818 1.038922,3.10927 0.323614,3.38367 -0.627692,0.24101 -1.453749,-0.42626 -1.885954,-1.52427 -0.834087,-2.12099 -2.349322,-9.80399 -2.747128,-13.92385 -0.297366,-3.09307 -0.784586,-5.9026 -1.31843,-7.61759 -0.257933,-0.8197 -0.640997,-3.80047 -0.857219,-6.62398 -0.482666,-6.33837 -0.574716,-6.6239 -2.14964,-6.6239 h -1.197015 l 0.218021,1.4076 c 0.118658,0.77421 0.496089,2.82344 0.833247,4.55394 0.581428,2.95342 0.737003,4.2534 1.168489,9.60468 1.003205,12.43002 1.979203,16.97434 4.102594,19.10141 0.515266,0.51467 1.031611,1.34595 1.151109,1.84682 0.191652,0.81417 0.125491,0.91087 -0.634285,0.91087 -0.781828,0 -0.846072,0.10296 -0.751505,1.21632 0.06592,0.66906 0.251221,1.26536 0.436521,1.32517 0.185179,0.0596 0.853144,-0.54901 1.490305,-1.35293 1.496657,-1.88951 3.78665,-2.98033 5.723663,-2.72659 4.153534,0.54393 5.838008,0.85791 7.108854,1.32375 1.223264,0.44823 1.407604,0.45275 1.407604,0.0338 0,-0.63178 -2.114761,-7.6458 -3.14038,-10.41426 -1.783716,-4.81551 -3.815177,-9.96886 -4.297003,-10.90044 -0.703802,-1.36183 -0.662091,-2.34746 0.09948,-2.34746 0.743474,0 1.527221,0.82165 2.055312,2.15336 1.649596,4.16283 6.243844,17.59402 7.182207,20.99773 0.52881,1.91591 0.735564,2.21891 2.151797,3.14638 2.266621,1.48418 2.741256,2.64315 2.724835,6.65674 0,3.7775 -0.554699,5.13348 -2.055312,5.13348 -0.783747,0 -0.818985,-0.0737 -0.594852,-1.24195 0.132083,-0.68315 0.291134,-2.46622 0.357055,-3.96254 0.118659,-2.66014 0.09948,-2.74293 -0.880352,-3.72585 -0.763251,-0.7634 -1.197493,-0.95724 -1.802773,-0.80521 -0.634404,0.15876 -0.859856,0.0394 -1.102926,-0.60342 -0.4032,-1.05815 -4.661728,-2.74766 -7.717609,-3.06123 -3.273182,-0.33505 -4.140949,0.17959 -8.793328,5.22429 -0.955622,1.0359 -1.945643,1.88341 -2.200819,1.88341 -0.826536,0 -0.831929,-0.88855 0,-2.09593 0.83936,-1.23503 0.981511,-1.86421 0.541875,-2.3919 -0.145267,-0.17291 -0.46229,-0.91072 -0.700566,-1.63937 -0.422857,-1.28796 -1.790907,-4.59836 -3.00626,-7.28644 -1.21787,-2.69258 -2.951365,-6.68499 -3.811701,-8.77665 -0.488897,-1.18401 -1.608604,-3.79213 -2.492192,-5.79593 -3.572585,-8.09854 -5.076074,-12.13113 -5.616751,-15.06937 -0.46948,-2.55537 -0.715068,-2.91023 -2.100858,-3.04452 -0.800167,-0.0772 -1.077157,-0.28043 -1.157821,-0.84716 -0.06592,-0.40993 0.06592,-0.7452 0.251221,-0.7452 0.627692,0 0.376711,-0.67046 -0.641236,-1.75674 -1.332693,-1.41482 -1.155664,-2.10454 0.680789,-2.6539 0.75534,-0.22634 0.841997,-7.74289 0.132083,-11.32122 -0.824019,-4.15017 -0.897492,-5.00959 -0.488658,-5.77104 0.211068,-0.39078 0.588259,-2.23326 0.84775,-4.09394 0.673478,-4.88127 1.95679,-10.31756 3.18257,-13.48437 0.690018,-1.78218 3.951454,-8.03942 4.544268,-8.71794 0.496089,-0.56833 0.469601,-0.59744 -0.456177,-0.49722 -0.80616,0.0879 -1.002606,-0.0227 -1.089023,-0.63511 -0.138675,-0.9688 0.496089,-1.22302 5.17256,-2.08072 3.903032,-0.71564 8.56536,-0.69228 11.989322,0.0596 0.820183,0.17961 2.756957,0.46399 4.305513,0.63112 1.548316,0.16713 3.784013,0.60138 4.968203,0.96666 1.18371,0.36433 2.68708,0.66426 3.339942,0.66568 0.654421,0 2.069216,0.28098 3.146493,0.62188 1.077157,0.34123 4.221613,1.16835 6.987199,1.83859 l 5.027892,1.21892 1.59602,-0.80437 c 1.721629,-0.86761 6.628351,-2.21064 8.076941,-2.21064 1.25095,0 1.55167,-0.52139 1.71684,-2.98076 0.0791,-1.184019 0.34363,-4.484948 0.59485,-7.335249 0.35034,-4.030572 0.35705,-5.466222 0.0659,-6.458389 -0.21107,-0.701704 -0.42885,-1.648385 -0.47571,-2.103866 -0.0731,-0.708692 0.0659,-0.825997 0.83336,-0.814059 0.69865,0.01199 0.96953,-0.175075 1.11815,-0.766487 0.10548,-0.428502 0.11267,-3.788904 0,-7.465825 -0.13208,-5.025075 -0.34399,-7.384538 -0.84379,-9.500677 -0.76206,-3.236698 -2.17637,-6.623852 -2.76499,-6.623852 -0.22533,0 -0.8565,0.429628 -1.41168,0.956281 -0.55518,0.525922 -2.20142,1.59192 -3.658404,2.368811 -6.533299,3.482764 -8.493445,4.249084 -12.387847,4.842353 -6.296222,0.959122 -5.908124,0.985575 -8.31258,-0.567764 -1.18419,-0.764833 -3.43499,-2.713208 -5.001884,-4.329699 -2.301738,-2.374504 -3.034666,-2.93908 -3.814457,-2.93908 -1.160458,0 -6.147359,2.0014 -6.326426,2.538876 -0.07311,0.208336 0.330567,0.89887 0.886225,1.533466 1.344079,1.530985 3.099389,5.445583 3.819132,8.51641 1.035566,4.421774 0.899408,10.339103 -0.264765,11.502857 -0.462889,0.460587 -0.581308,0.400911 -1.198093,-0.612039 -0.574836,-0.939957 -0.601324,-1.141029 -0.191412,-1.230467 0.735564,-0.158259 0.945554,-1.476078 0.714229,-4.488331 -0.264525,-3.43433 -1.148472,-6.751283 -2.530906,-9.480505 -1.261018,-2.489879 -2.441372,-3.642247 -3.730557,-3.64281 -1.104365,0 -1.130853,-0.314218 -0.171995,-1.986191 0.641116,-1.118579 1.157821,-1.462738 3.891765,-2.605864 4.414703,-1.845982 5.873845,-2.363621 6.666221,-2.363621 0.668204,0 0.68067,-0.100321 0.449345,-3.560324 -0.131941,-1.958193 -0.376569,-3.915378 -0.5355,-4.349202 -0.270878,-0.715859 -0.350223,-0.742408 -0.868366,-0.288292 l -0.849428,-1.222353 c 0.956221,-0.523668 1.738769,-1.145655 1.738769,-1.383224 0,-0.237618 -0.857219,-1.017325 -1.904652,-1.733089 -7.101782,-4.85338 -11.103217,-16.340847 -12.737231,-22.146445 -0.06592,-0.141276 0.244509,-0.85517 0.627812,-1.585604 0.84008,-1.603235 0.756659,-1.414759 1.16765,-0.08007 l 0.935006,2.688027 c 0.456057,3.224268 0.809516,4.427707 2.319598,7.908734 1.349473,3.110955 4.507592,7.789499 6.572253,9.734759 3.027355,2.85277 10.644523,6.880777 14.110076,7.461725 4.579626,0.76783 5.867013,0.731693 8.290407,-0.232547 2.739338,-1.089766 3.843583,-1.800879 6.18835,-3.984091 3.084167,-2.87154 7.388965,-9.944413 8.850145,-17.366718 1.41072,-7.165726 1.02322,-5.767124 1.01459,-8.272165 0.87519,-1.289843 0.91511,-8.448618 1.32598,-5.463741 0.34483,2.506959 1.01687,2.030826 0.66161,7.267461 -0.0443,0.660306 -0.27759,4.651685 -1.31172,7.792988 -0.33056,1.001803 -0.70188,2.268634 -0.82486,2.815243 -0.12537,0.546765 -1.19617,3.005493 -2.38504,5.464604 -2.51256,5.196496 -2.53114,5.461596 -0.78039,11.093461 1.19079,3.830686 1.19546,4.638512 0,4.638512 -0.72765,0 -0.85062,-0.203853 -1.19425,-1.98721 -0.21119,-1.093026 -0.4696,-2.210755 -0.57472,-2.484029 -0.10547,-0.273646 -0.4364,-1.388007 -0.74156,-2.47751 -0.515262,-1.848858 -0.581423,-1.936941 -1.022978,-1.324734 -1.430736,1.988144 -3.778739,3.910535 -6.480322,5.305769 -2.486199,1.284067 -3.35073,1.559079 -5.344435,1.700691 -3.996281,0.28381 -6.919959,-0.275912 -10.757429,-2.059831 -3.100108,-1.441392 -3.457643,-1.538296 -3.930959,-1.065304 -0.449225,0.44708 -0.469481,0.822137 -0.151859,2.649002 0.482545,2.766389 0.475953,7.386779 0,8.29622 -0.350103,0.648979 -0.145147,0.931291 2.235098,3.111398 1.439366,1.318826 3.174899,2.664547 3.856168,2.990703 0.680549,0.325472 1.239684,0.704485 1.241841,0.841134 0,0.35081 2.573815,0.30916 3.789287,-0.06604 0.561891,-0.171109 2.172773,-0.466233 3.585171,-0.658256 2.162944,-0.293363 3.366431,-0.745201 7.617768,-2.864985 5.457219,-2.720879 6.381199,-3.376247 7.083799,-5.025579 0.25099,-0.592106 0.66473,-1.076414 0.91727,-1.076414 0.25098,0 1.30836,-0.447103 2.34729,-0.99352 3.00242,-1.5793 6.26422,-1.157834 8.52317,1.100841 0.83792,0.838617 0.91067,0.849488 4.37227,0.653581 5.44476,-0.308584 9.40004,0.993341 11.90338,3.917703 0.7442,0.869348 1.21667,1.193011 1.37321,0.940124 0.38342,-0.623222 3.68285,-0.04507 6.01252,1.057489 2.4506,1.157653 4.09396,2.927789 5.1541,5.55192 0.70896,1.754123 0.74683,2.289154 0.74815,10.541877 0,4.781706 0.11266,8.694063 0.2505,8.693991 0.80412,-2.76e-4 -0.52258,3.070407 -2.11476,4.896576 -0.52198,0.598735 -0.94891,1.293871 -0.94891,1.545644 0,0.252251 -0.11267,0.507883 -0.25793,0.567763 -0.33668,0.145879 -2.39367,3.287637 -2.39367,3.657768 0,0.157768 -0.52246,1.06203 -1.15914,2.00876 -0.641,0.94662 -1.15926,2.00865 -1.15926,2.35985 0,0.35137 0.62122,1.76919 1.37932,3.15084 1.91244,3.48322 2.57009,6.94994 2.584,13.62685 0,5.46321 -0.23145,6.46979 -1.50085,6.21865 -0.58119,-0.11482 -0.63441,-0.38065 -0.54176,-2.93398 l 0.0995,-2.8074 -0.66341,0.76433 c -0.54858,0.63117 -0.78135,0.70128 -1.33964,0.40148 -0.90732,-0.48594 -0.85578,-1.28057 0.10547,-1.64641 0.42897,-0.16388 0.89342,-0.56956 1.02826,-0.90263 0.59473,-1.46663 0.82018,-2.62429 0.62781,-3.226 -0.1847,-0.58602 -0.24439,-0.59739 -0.60144,-0.11302 -0.48866,0.67226 -2.02799,1.08349 -2.31493,0.61985 -0.11866,-0.19091 0.0995,-0.65887 0.48267,-1.04082 1.16309,-1.16267 0.7183,-1.72884 -2.16426,-2.7575 -2.83727,-1.01233 -3.52776,-1.00356 -9.76693,0.12509 -3.63204,0.65696 -4.20771,0.67435 -4.64915,0.14176 -0.25122,-0.30013 -0.29736,-0.62187 -0.12549,-0.78137 0.16553,-0.14984 2.42268,-0.6843 5.01723,-1.18884 5.1396,-0.99959 8.97131,-1.03907 10.41583,-0.10763 0.42298,0.27141 1.07992,0.57305 1.46454,0.67047 0.6543,0.16503 0.6893,0.0726 0.54835,-1.35309 -0.0923,-0.94087 -0.39637,-1.7421 -0.78243,-2.08012 -1.22398,-1.06846 -10.36502,-1.42773 -15.69939,-0.61732 -3.64006,0.55295 -9.83692,1.96902 -10.29945,2.35289 -0.48878,0.40822 -1.4625,0.0394 -1.26365,-0.47976 0.44934,-1.17071 6.29466,-2.94004 12.79692,-3.87345 2.83378,-0.40654 12.07058,-0.25508 13.30571,0.2196 0.38966,0.15035 0.48254,0.0661 0.34351,-0.30802 -0.10547,-0.28266 -0.51527,-0.55969 -0.90133,-0.61659 -0.43652,-0.066 -0.77248,-0.41499 -0.88574,-0.92982 -0.13196,-0.59935 -0.70632,-1.09031 -2.08096,-1.77875 -1.80086,-0.90189 -1.94013,-0.92323 -2.71753,-0.41387 -1.02873,0.67426 -1.50456,0.68163 -1.50456,0.0165 0,-0.43189 -0.33057,-0.47863 -2.06994,-0.29731 -5.32514,0.55632 -15.25711,2.54044 -16.47186,3.29091 -0.21107,0.12956 -2.48428,0.66485 -5.05702,1.191 -5.845919,1.19566 -6.414881,1.60211 -3.167469,2.26031 2.732629,0.55351 7.951449,2.03263 8.893769,2.5201 0.5227,0.26973 1.19234,0.49046 1.49114,0.49046 0.29713,0 1.75855,0.53662 3.24538,1.19149 1.48707,0.65562 2.92691,1.23594 3.19995,1.29021 0.27076,0.0596 1.01843,0.3311 1.65607,0.61523 0.64099,0.28324 2.57465,1.05411 4.30551,1.71131 1.73002,0.65684 3.44446,1.32782 3.80846,1.49049 0.36329,0.16288 1.20469,0.51185 1.86834,0.77514 3.81961,1.51956 6.71164,6.91104 7.02759,13.10255 0.0923,1.77418 0.24439,2.24003 0.92122,2.81522 0.44935,0.37897 0.99266,1.10597 1.21128,1.61551 0.46972,1.0897 0.52881,5.8677 0.0923,7.33008 -0.16552,0.55972 -0.44935,1.6132 -0.62781,2.34191 -0.38343,1.56409 -2.61709,6.6577 -3.84886,8.77673 -1.65007,2.83864 -10.22406,15.68531 -11.19167,16.76832 -0.34411,0.38795 -0.88155,1.1443 -1.18887,1.68104 -2.92811,5.1076 -5.96949,9.9683 -7.4538,11.91166 -1.88535,2.46968 -3.87007,5.40311 -3.87007,5.72166 0,0.17238 0.78974,1.17669 1.75471,2.23444 0.96425,1.05783 2.22707,2.66849 2.80598,3.57924 2.03266,3.19768 4.52425,5.20001 5.84136,4.69454 0.38966,-0.14986 0.40991,-0.40206 0.11866,-1.34941 -0.37,-1.21289 0,-2.1859 0.87628,-2.1859 0.44946,0 2.57094,-2.1727 4.19464,-4.30005 0.6211,-0.81674 1.60992,-1.90657 2.19327,-2.42157 0.91331,-0.80673 1.01651,-1.05157 0.74551,-1.7658 -0.58838,-1.55103 -0.42909,-1.87485 0.81156,-1.64196 1.21271,0.22748 1.61327,-0.11482 6.35675,-5.43685 0.89353,-1.0019 3.35312,-3.61007 5.46609,-5.79594 4.48985,-4.64475 7.47094,-8.14138 7.99975,-9.38407 0.20495,-0.48595 1.58919,-2.14999 3.0729,-3.69831 1.58152,-1.64985 3.22236,-3.77473 3.9644,-5.13354 0.69721,-1.27505 2.27021,-4.05193 3.49599,-6.1706 3.28517,-5.6767 3.43128,-6.36462 2.98517,-14.02069 -0.20496,-3.46756 -0.50903,-7.19859 -0.68139,-8.29172 -0.17163,-1.09291 -0.54847,-4.14828 -0.83061,-6.78946 -0.68678,-6.39586 -1.1553,-10.51132 -1.35738,-11.92316 -0.17188,-1.22754 -0.34411,-2.87388 -1.43745,-14.246969 -0.37659,-3.91938 -0.83529,-7.64434 -1.01699,-8.277642 -0.17859,-0.633769 -0.33057,-1.763448 -0.33057,-2.511345 0,-1.142779 -0.31019,-1.780803 -1.9635,-3.997695 -1.73265,-2.327137 -5.6907,-6.067235 -8.88322,-8.394107 -1.16969,-0.852461 -1.50744,-2.31593 -0.53552,-2.31593 1.51535,0 9.39022,7.007143 11.82739,10.523575 0.98475,1.421471 3.86013,7.809683 3.86013,8.576662 0,0.257333 -0.29749,0.788097 -0.66222,1.179108 -0.74071,0.795385 -0.79045,1.604517 -0.31762,5.222792 0.17859,1.366193 0.46972,4.197991 0.65418,6.292761 0.17859,2.0949 0.54835,5.59733 0.81431,7.78314 0.27076,2.18596 0.72694,6.28459 1.01903,9.108 0.29113,2.82344 0.68522,6.25136 0.87568,7.61759 0.44922,3.25189 0.84979,7.79096 1.13001,12.92487 0.20496,3.79846 0.15833,4.35714 -0.55518,6.62404 -0.42909,1.36167 -1.47053,3.59353 -2.31576,4.95963 -0.84511,1.36617 -2.33206,3.89982 -3.3035,5.63035 -1.98532,3.53368 -3.21649,5.2149 -5.05163,6.89881 -0.69134,0.63377 -1.56821,1.59029 -1.95032,2.12645 l -0.69385,0.97444 0.67995,2.20372 c 0.37683,1.21198 0.92458,3.61959 1.22278,5.35002 0.29725,1.7305 0.76709,4.11518 1.04144,5.2991 0.27088,1.18412 0.62782,2.74902 0.78902,3.47766 0.50904,2.33026 0.57484,2.57365 1.81608,7.12073 0.67132,2.45905 1.64289,6.11062 2.15839,8.11434 0.51527,2.0037 1.18767,4.53739 1.49414,5.63035 0.30408,1.0929 0.67084,2.50878 0.80964,3.14642 0.25793,1.17006 0.71243,2.68899 1.99838,6.62394 0.38977,1.18399 0.94291,3.04703 1.23585,4.13988 0.29113,1.09296 1.25358,4.18241 2.13453,6.86547 0.88095,2.6829 1.6013,5.14945 1.6013,5.4813 0,0.82274 -0.64112,1.39797 -1.55635,1.39797 -0.62122,0 -0.76193,-0.17796 -0.76193,-0.98337 0,-0.54114 -0.37659,-2.14301 -0.8414,-3.56043 -0.46229,-1.41729 -1.14008,-3.76927 -1.50481,-5.22648 -0.36317,-1.45734 -1.10808,-4.0655 -1.65211,-5.796 -1.43325,-4.5625 -1.53705,-4.91651 -2.13646,-7.28628 -0.29736,-1.184 -0.81826,-2.97251 -1.15326,-3.97434 -0.33668,-1.00203 -1.13853,-3.98268 -1.78695,-6.62403 -0.64759,-2.64124 -1.61185,-6.44182 -2.14113,-8.44551 -0.52882,-2.00377 -1.21416,-4.91009 -1.52327,-6.45843 -0.31031,-1.54832 -0.83601,-3.93296 -1.17232,-5.29904 -0.33692,-1.36624 -0.70524,-3.1546 -0.82079,-3.97446 -0.36316,-2.57732 -0.92997,-4.96791 -1.17831,-4.96791 -0.13197,0 -0.66497,0.55914 -1.18563,1.24195 -0.52258,0.68312 -2.84841,3.20487 -5.17328,5.60374 -2.32427,2.3989 -4.22629,4.476 -4.22629,4.61564 0,0.13961 0.20496,1.15761 0.46241,2.26216 0.2511,1.10455 0.641,3.05167 0.86765,4.32677 0.81491,4.65453 2.10493,9.83647 3.37901,13.57904 1.25767,3.69326 3.0632,8.47338 4.36628,11.55812 1.10101,2.60677 1.52471,4.05222 1.52471,5.20392 0,0.877 0.2837,2.38264 0.62781,3.34582 0.34411,0.96309 0.71567,2.79449 0.82138,4.06961 0.10548,1.27506 0.40991,4.32326 0.68007,6.77364 0.35023,3.19814 0.38966,4.57639 0.13197,4.88516 -0.87892,1.05843 -1.64876,0.1515 -1.77833,-2.09397 -0.52198,-9.13007 -1.31447,-13.37807 -3.17609,-17.09221 -1.28943,-2.57193 -1.59998,-3.89891 -0.91344,-3.89891 0.44935,0 0.38355,-0.22073 -1.38183,-4.80236 -2.30234,-5.9637 -2.99499,-7.88586 -3.28313,-9.10798 -0.15186,-0.63776 -0.66413,-2.69432 -1.14248,-4.57073 -0.47595,-1.87638 -1.25179,-5.30419 -1.71708,-7.61758 -0.4696,-2.31325 -0.96221,-4.32601 -1.10352,-4.47279 -0.23816,-0.24609 -2.15647,1.61099 -5.10592,4.94371 -1.34672,1.52161 -1.50349,2.51801 -0.73688,4.69141 0.25793,0.73547 0.86177,3.47411 1.33892,6.086 0.86381,4.73644 2.13406,11.28422 3.04006,15.67825 0.26465,1.27505 0.60792,4.8124 0.77188,7.86056 0.15833,3.04819 0.39637,5.70416 0.51515,5.90204 0.44946,0.7279 1.13804,4.79002 0.92194,5.43923 -0.58131,1.73582 0.11866,7.61528 1.60717,13.50696 0.53552,2.12875 0.64783,3.13538 0.42285,3.78176 -0.38965,1.10945 -0.86884,1.27816 -1.36517,0.48256 z m -33.28304,-27.41854 c 0.21802,-0.39193 0.57508,-0.4927 1.2591,-0.35701 0.96941,0.19202 2.44257,-0.63505 2.44257,-1.37174 0,-0.58426 3.63731,-4.47612 4.75078,-5.08375 0.57508,-0.31419 1.64037,-0.739 2.36731,-0.94504 2.0824,-0.59017 3.16303,-1.56972 4.16144,-3.77242 0.89018,-1.96298 1.63761,-5.82212 1.63761,-8.45705 v -1.2768 l -1.83909,0.19031 c -1.72762,0.17799 -1.90405,0.12675 -2.90306,-0.84125 -0.75427,-0.73089 -1.26965,-0.97728 -1.77006,-0.84639 -1.08171,0.28267 -2.19914,-0.44989 -1.97788,-1.29658 0.11267,-0.44202 -0.0923,-1.07706 -0.56824,-1.71037 -0.41615,-0.55464 -0.93393,-1.45925 -1.15591,-2.01118 -0.4696,-1.16799 -2.7174,-3.79895 -3.24477,-3.79895 -0.38343,0 -2.10482,2.30793 -2.11081,2.83302 0,0.17291 -0.49609,0.7904 -1.09513,1.37354 l -1.09166,1.06023 -2.81533,-0.19087 -2.815089,-0.1909 -3.153085,1.52375 c -3.566713,1.72332 -3.852093,2.09305 -4.160845,5.39911 -0.191412,2.06912 0.43652,7.07074 0.885505,7.07074 0.125491,0 0.475954,-0.85703 0.774758,-1.90444 0.429568,-1.49432 0.943636,-2.31448 2.400741,-3.80875 1.020944,-1.04745 2.067178,-1.9043 2.324871,-1.9043 0.871123,0 0.509154,1.61482 -0.640997,2.82869 -1.557545,1.65114 -2.5357,3.76955 -2.534381,5.48741 0,1.60024 0.876995,3.34458 1.973329,3.93132 0.765409,0.40995 0.818745,0.33168 1.156503,-1.70557 0.151859,-0.93346 0.664848,-1.64468 2.197463,-3.06356 2.195907,-2.03315 2.798787,-2.24408 3.025317,-1.05827 0.11866,0.61851 -0.22521,1.14841 -1.5742,2.44335 -1.562224,1.49744 -1.747164,1.8296 -1.957394,3.51256 -0.12549,1.02225 -0.158451,2.1211 -0.07311,2.44167 0.0863,0.32039 0.251101,0.99617 0.363168,1.50104 0.171875,0.78325 0.297366,0.86828 0.838761,0.57897 0.422736,-0.22637 0.702485,-0.22861 0.839365,-0.005 0.11266,0.18244 0.34387,0.33221 0.50891,0.33221 0.3175,0 2.64022,-3.45799 2.64022,-3.92957 0,-0.15084 0.29724,-0.54282 0.66268,-0.87281 0.36329,-0.32994 0.66221,-0.78257 0.66221,-1.00635 0,-0.22299 0.29737,-0.48426 0.66293,-0.58015 0.56837,-0.14985 0.66222,-0.012 0.66222,0.97668 0,0.78511 -0.52198,2.0389 -1.65631,3.95347 -1.73397,2.9356 -1.87409,3.41255 -1.31291,4.46108 0.41602,0.78471 0.85038,0.81703 1.2549,0.0934 z m -1.24544,-29.34095 c 1.40629,-1.86924 2.95988,-4.35552 2.95988,-4.73662 0,-0.20214 0.37671,-0.71866 0.83145,-1.14803 0.45606,-0.42963 1.7432,-2.12195 2.85811,-3.76137 1.11564,-1.63955 2.16642,-3.13996 2.33494,-3.33441 0.36976,-0.42399 5.98532,-9.44157 6.97666,-11.19942 l 0.69912,-1.24129 -0.71507,-2.23626 c -0.39636,-1.22995 -0.87699,-3.20532 -1.07392,-4.38991 l -0.35693,-2.15353 -1.48431,0.1177 c -1.94625,0.15479 -14.22035,-0.54282 -17.188973,-0.97792 -2.823118,-0.41274 -3.466752,-0.602 -9.050422,-2.66106 -5.478436,-2.02002 -7.869468,-3.10033 -10.772651,-4.86679 -1.247714,-0.75953 -2.391752,-1.38097 -2.541094,-1.38097 -0.151739,0 -0.06592,0.48426 0.244509,1.07635 0.693734,1.44292 4.077424,7.24196 4.588975,7.86597 0.224613,0.27366 1.404967,2.28519 2.624874,4.47117 1.219428,2.18591 2.327628,4.04891 2.463067,4.14 0.356935,0.241 3.054442,4.4736 4.326008,6.78951 0.977316,1.78038 3.135825,5.47543 6.575609,11.25577 1.691665,2.84259 3.352408,6.79132 3.357078,7.98117 0,1.8326 1.11815,2.01733 2.34273,0.38966 z M 57.194424,179.30751 c -0.125491,-0.95628 -0.443113,-4.19787 -0.70572,-7.20354 -0.496089,-5.6041 -0.848589,-8.39776 -1.463817,-11.59183 -0.191412,-1.00185 -0.535522,-2.79034 -0.766727,-3.97441 l -0.416024,-2.15274 -2.150599,-0.0817 c -1.182751,-0.0451 -2.716085,-0.12395 -3.407302,-0.17636 l -1.256943,-0.0934 0.211668,1.83174 c 0.250741,2.20297 0.823539,4.23983 1.808046,6.46845 0.402721,0.91084 0.851946,2.05838 0.99937,2.54999 0.601324,2.00438 6.794229,16.1627 7.071099,16.1627 0.165523,0 0.204956,-0.75978 0.07911,-1.73883 z M 122.406,165.94462 c 0.60145,-1.02567 0.83673,-1.80939 0.72106,-2.40118 -0.27759,-1.40582 -0.90204,-3.7792 -1.07188,-4.05444 -0.20496,-0.3294 -2.1868,0.24044 -2.47829,0.71248 -0.46948,0.75961 0,3.49522 1.17173,6.85174 0.26476,0.75775 0.75606,0.42909 1.65738,-1.1086 z m 4.67444,-6.75726 c 0.43628,-0.81963 1.38638,-2.31009 2.10876,-3.31205 2.19531,-3.04625 3.58649,-6.2927 2.69691,-6.2927 -0.6899,0 -3.30027,1.36877 -3.47418,1.82145 -0.10547,0.27309 -0.4364,0.49719 -0.73472,0.49719 -0.42909,0 -0.50245,0.22298 -0.35718,1.0764 0.66101,3.82255 0.66629,4.33804 0.0659,4.10213 -0.33668,-0.12954 -0.81862,-0.0227 -1.12138,0.23368 -0.29114,0.25394 -0.94172,0.55745 -1.44272,0.67667 -1.06649,0.25394 -1.10749,0.54844 -0.33668,2.41605 0.54846,1.32927 0.60132,1.36632 1.19485,0.83151 0.34411,-0.30803 0.97744,-1.23042 1.41552,-2.05006 z m -9.18203,-1.11677 c 0.20496,-0.25002 1.0448,-0.52988 1.86162,-0.62188 0.81683,-0.0918 1.72211,-0.36319 2.01097,-0.60403 0.61463,-0.50905 3.66847,-1.63285 3.87594,-1.42557 0.0791,0.0772 0.31031,-0.066 0.51527,-0.30859 0.27759,-0.33503 0.27076,-0.59011 -0.0659,-1.00302 -0.37671,-0.51243 -0.52198,-0.49835 -1.89866,0.19313 -1.41348,0.70805 -1.85036,0.7447 -8.44574,0.70882 -7.10035,-0.0394 -18.892743,-0.83541 -22.076632,-1.49167 -0.9736,-0.20047 -2.365982,-0.48538 -3.094235,-0.6318 -3.065109,-0.61725 -5.647075,-1.3785 -7.838425,-2.31096 -1.282712,-0.54621 -2.548165,-0.99278 -2.81257,-0.99278 -0.712432,0 -2.762471,-1.74087 -2.762471,-2.34596 0,-0.87132 0.336799,-0.94086 1.435411,-0.29674 3.236146,1.89467 13.794013,4.54447 19.926989,5.00112 16.968073,1.26364 23.939573,1.26358 25.614813,-1e-4 0.66629,-0.5023 0.46972,-0.52931 -3.17861,-0.42289 -4.88119,0.14175 -12.01198,-1.10878 -15.90638,-2.78982 -0.60132,-0.25789 -1.30261,-0.47018 -1.56414,-0.47018 -0.26476,0 -1.31123,-0.36995 -2.3329,-0.82116 -1.380514,-0.61067 -1.827942,-0.97138 -1.744761,-1.4075 0.145267,-0.76856 1.313881,-0.91451 2.484281,-0.31026 1.50996,0.77993 10.92787,3.10359 14.43105,3.56075 2.78705,0.36321 3.83508,0.34574 7.61789,-0.13004 4.10392,-0.51635 8.86405,-1.726 9.48982,-2.41131 0.56201,-0.61795 1.75339,-5.32458 1.92707,-7.62176 0.27783,-3.68633 -0.52857,-5.60998 -1.02874,-2.46112 -0.20495,1.29905 -1.29014,4.44825 -1.7806,5.18257 -0.13855,0.20384 -0.58119,0.47357 -0.99242,0.60138 -0.66089,0.20554 -0.74479,0.11723 -0.74479,-0.74789 0,-0.53944 0.20496,-1.05873 0.45606,-1.15434 0.61463,-0.23593 0.90396,-1.93927 0.42957,-2.51492 -0.21167,-0.25507 -0.39637,-1.37359 -0.41663,-2.48396 -0.0659,-2.57147 -1.39442,-5.61564 -3.88457,-8.73591 -1.84377,-2.31141 -3.98298,-4.37812 -4.53204,-4.37812 -0.17188,0 -1.28751,-0.44767 -2.48033,-0.99353 -1.19354,-0.54677 -2.72472,-0.99657 -3.40347,-1.00014 -0.67863,-0.004 -2.27657,-0.15827 -3.55197,-0.34462 -3.81781,-0.55635 -8.42273,-0.95716 -18.624378,-1.62197 -5.325258,-0.34688 -9.831651,-0.72359 -10.015272,-0.83693 -0.852665,-0.52705 -7.253043,-1.46307 -11.434982,-1.67221 -4.413264,-0.22073 -5.796417,-0.48822 -5.796417,-1.12473 0,-0.58775 1.124021,-0.64236 7.349407,-0.35642 4.828929,0.22184 6.923195,0.45777 8.54834,0.96086 1.32682,0.41104 3.550771,0.73517 5.795578,0.84508 10.705291,0.52368 17.581504,0.93619 17.801084,1.06665 0.25098,0.14985 5.50037,0.66609 9.68878,0.95337 2.58724,0.17798 2.18404,-0.20495 -0.8281,-0.78495 -1.00188,-0.19371 -3.16279,-0.64035 -4.80244,-0.99457 -1.63952,-0.35534 -4.32205,-0.75072 -5.96158,-0.88108 -1.63964,-0.13005 -3.80055,-0.51467 -4.80244,-0.8551 -1.001884,-0.34011 -3.237582,-0.92235 -4.967841,-1.29435 -1.730619,-0.37219 -4.040508,-0.89422 -5.133487,-1.16085 -1.092978,-0.26633 -4.520896,-0.94689 -7.617768,-1.512 -3.096632,-0.56484 -6.524669,-1.22669 -7.617648,-1.47018 -1.092379,-0.24325 -3.104782,-0.54169 -4.470795,-0.66277 -3.781976,-0.33503 -6.442688,-0.96856 -6.557032,-1.56171 -0.138555,-0.70284 1.042159,-0.95061 2.88065,-0.60533 0.838042,0.15711 2.790157,0.38347 4.338713,0.50171 1.548316,0.11878 3.858565,0.4212 5.133486,0.67088 1.275521,0.25057 3.659722,0.69418 5.299369,0.98693 3.959245,0.70747 5.344435,0.97976 9.273117,1.82351 1.82219,0.39079 4.057168,0.86106 4.968443,1.04425 0.910675,0.183 2.938061,0.69012 4.505073,1.12644 1.56702,0.43698 4.2493,0.94093 5.9617,1.12102 1.71144,0.1796 3.54418,0.42849 4.07215,0.55296 0.60792,0.14243 0.88491,0.10416 0.75594,-0.10428 -0.21155,-0.33785 -5.82015,-2.3379 -8.50591,-3.03203 -5.428933,-1.40321 -6.611205,-1.68284 -7.898592,-1.86776 -0.791657,-0.11386 -2.362626,-0.49214 -3.489284,-0.83994 -3.729838,-1.15199 -12.515975,-3.29949 -13.499404,-3.29949 -0.535402,0 -1.867616,-0.30352 -2.969104,-0.67466 -1.101128,-0.37107 -3.51853,-0.88984 -5.371523,-1.15287 -1.853113,-0.26352 -4.188652,-0.64433 -5.190419,-0.84783 -1.001886,-0.20272 -3.40874,-0.31589 -5.34839,-0.25114 -3.27522,0.11039 -3.575941,0.17744 -4.226167,0.94273 -0.383543,0.45329 -0.791777,1.23372 -0.903364,1.73474 -0.250622,1.13729 -0.918586,1.21573 -0.701884,0.0822 0.204956,-1.06778 -0.317622,-1.07076 -0.801726,-0.005 -0.204836,0.45327 -0.69637,1.03409 -1.089742,1.29171 -0.853863,0.55972 -3.122521,4.90531 -3.502469,6.70828 -0.151739,0.70295 -0.660893,2.8431 -1.136726,4.7558 -1.191501,4.77911 -1.80541,8.15506 -1.818594,10.01016 0,1.43747 0.07311,1.60915 1.064572,2.1103 0.594732,0.29901 1.966019,1.14683 3.053244,1.88186 2.603779,1.76054 15.910092,9.181 16.467309,9.1832 0.238156,0 1.030293,0.36882 1.759265,0.81754 1.57864,0.97257 2.106731,1.02608 2.659992,0.26972 0.55446,-0.75838 1.147034,-0.25958 2.497226,2.09931 1.083869,1.89435 2.428068,3.11029 4.306232,3.89498 0.627692,0.26463 1.443321,0.80605 1.803372,1.20495 0.793695,0.87785 8.868838,4.79685 11.492394,5.57758 0.594971,0.17798 1.906569,0.64766 2.908576,1.04395 4.385337,1.73496 10.240486,2.51831 19.417356,2.59765 4.1654,0.0394 5.42426,-0.0507 5.71839,-0.40823 z m -64.458994,-9.49365 c -0.07911,-4.11275 -0.621221,-9.47636 -1.119467,-11.11119 -0.376712,-1.2353 -1.557665,-2.3661 -3.772268,-3.60563 -0.910675,-0.51016 -1.954153,-1.18779 -2.318159,-1.50648 -0.363288,-0.31872 -0.980792,-0.67579 -1.369369,-0.79334 -1.028256,-0.3114 -1.188385,0.77701 -0.581308,3.94928 1.085188,5.6687 1.171005,7.03868 0.634285,10.14013 -0.654181,3.78736 -0.634285,4.25082 0.25122,5.31406 0.970245,1.17037 2.490155,1.56488 5.701251,1.47998 l 2.649325,-0.0705 z m 78.949614,-19.26186 c -0.61462,-3.51959 -2.91169,-7.34231 -5.23201,-8.6967 l -1.1076,-0.647 0.58131,0.88421 c 0.3175,0.48596 0.96869,1.59705 1.44536,2.46844 0.47571,0.87133 1.28787,2.25625 1.80397,3.07769 0.85446,1.35934 1.86366,3.47989 2.42543,5.09517 0.46229,1.32186 0.50233,0.21959 0.0863,-2.1819 z m -22.69461,-27.29877 c 0.79717,-0.29563 2.2695,-0.70797 3.27127,-0.91762 1.59997,-0.33505 1.89206,-0.52424 2.39894,-1.555828 0.68474,-1.39038 1.27013,-7.281197 1.39634,-14.046899 0.0659,-2.550239 0.35034,-6.173896 0.66952,-8.052694 0.42285,-2.469923 0.54163,-4.487492 0.42909,-7.286327 -0.17164,-4.230661 -0.68271,-5.985983 -2.55308,-8.756891 -1.26605,-1.876797 -4.12633,-4.490033 -5.21152,-4.762397 -1.28199,-0.321529 -4.08209,0.0682 -4.66232,0.648296 -0.48866,0.487616 -0.45546,0.66733 0.37,2.184842 2.80274,5.150579 3.63071,10.945126 3.14301,21.997116 -0.22461,5.106243 -0.42909,7.095082 -0.79297,7.64603 -0.27076,0.409337 -0.56189,1.84941 -0.6543,3.199925 -0.0923,1.350504 -0.31763,3.840047 -0.49549,5.532408 -0.51527,4.802369 -0.22522,5.251159 2.69894,4.169859 z M 134.61155,100.67 c 0.38965,-0.48819 1.08243,-1.522858 1.53777,-2.297784 4.93931,-8.404031 5.2658,-9.556674 5.32657,-18.786055 0,-3.671672 -0.0659,-7.122853 -0.1847,-7.669391 -0.97552,-4.243678 -3.1206,-6.557594 -7.04209,-7.596085 -0.86777,-0.230306 -1.92575,-0.528751 -2.35136,-0.664897 -0.71183,-0.227489 -0.74288,-0.190321 -0.38966,0.467372 1.29842,2.42651 1.16693,8.520389 -0.38965,18.1106 -0.33057,2.034673 -0.31031,2.480674 0.13208,3.160336 0.46948,0.718952 0.46948,0.880951 0,1.770927 -0.29137,0.539442 -0.62805,1.94852 -0.75954,3.132518 -0.12537,1.184057 -0.54834,3.567683 -0.93105,5.296875 -0.75282,3.391661 -0.7171,3.976673 0.24439,3.976673 0.34411,0 1.27864,0.444261 2.08036,0.987491 0.80173,0.54225 1.58548,0.99031 1.74141,0.99367 0.15845,0.004 0.60144,-0.39417 0.99314,-0.88297 z m -11.96619,-1.182991 c 3.88193,-0.373907 3.88457,-0.374458 4.37347,-1.404631 0.97024,-2.044741 1.9001,-7.167129 1.66733,-9.18658 -0.11866,-1.05327 -0.0659,-2.602269 0.13868,-3.477551 0.60132,-2.66137 1.31639,-7.402144 1.52998,-10.189425 0.11266,-1.457284 0.27087,-3.315156 0.35022,-4.128579 0.19141,-1.932998 -0.38966,-5.119451 -1.25694,-6.869931 -1.73937,-3.514646 -7.42672,-5.799665 -12.10559,-4.863819 l -1.00392,0.201048 1.14931,1.960889 c 1.86558,3.183265 2.32883,6.404944 1.8174,12.628029 -0.23157,2.77581 -0.48255,6.686249 -0.57484,8.690047 -0.23156,5.393397 -1.1064,16.276868 -1.35618,16.928064 -0.17847,0.47188 -0.0863,0.52595 0.5813,0.32604 0.44312,-0.131691 2.54901,-0.408238 4.68486,-0.613889 z m 20.84342,150.265121 c -0.21179,-0.46397 -0.38343,-1.24641 -0.38343,-1.73871 0,-0.49215 -0.42909,-2.53471 -0.95035,-4.5384 -0.52197,-2.00379 -1.05067,-4.58383 -1.17628,-5.73355 -0.12537,-1.14954 -0.50903,-3.18562 -0.8499,-4.52449 -0.65418,-2.56516 -1.28715,-6.68585 -2.15755,-14.08503 -0.47596,-4.06843 -1.24652,-8.81291 -2.19279,-13.54401 -0.23145,-1.1617 -0.64783,-2.05628 -1.18959,-2.55789 -0.99002,-0.9175 -0.8022,-1.78275 0.38343,-1.78275 1.59338,0 2.44125,2.25576 3.6717,9.77035 0.82474,5.0355 1.45196,9.45233 1.83526,12.91669 0.19884,1.82159 0.72885,4.83959 1.17304,6.70672 0.44323,1.86716 1.02634,4.84793 1.29326,6.62405 0.27088,1.77597 0.842,4.57042 1.27672,6.20991 1.08926,4.10832 1.33893,6.05773 0.85195,6.64459 -0.58838,0.70966 -1.15459,0.57891 -1.58547,-0.3677 z m -69.81638,0.012 c -0.205076,-0.5389 -0.09229,-1.37935 0.670601,-4.96646 0.270878,-1.27508 0.743475,-3.80868 1.048871,-5.63034 0.304078,-1.8215 0.683306,-3.98257 0.83996,-4.80226 0.429568,-2.25231 0.784346,-11.9244 0.4364,-11.91584 -0.664129,0.0165 -1.769812,1.24573 -2.57801,2.86715 -1.015071,2.0363 -1.252987,2.21321 -3.149609,2.34083 -1.322385,0.0889 -2.798787,-0.37446 -5.082667,-1.59587 -0.793695,-0.424 -0.91535,-0.39079 -0.91535,0.24945 0,1.00314 -2.092228,5.77704 -5.547233,12.65534 -2.563508,5.10368 -3.394838,7.07387 -3.394838,8.04554 0,1.63404 -0.818864,2.91964 -1.859705,2.91964 -0.660773,0 -0.789739,-0.16733 -0.789739,-1.00354 0,-1.4275 1.190901,-4.15319 5.856585,-13.4036 0.918466,-1.82157 2.068497,-4.35531 2.554158,-5.63037 0.482546,-1.27496 1.028256,-2.57716 1.204686,-2.89345 0.502441,-0.90269 0.376831,-2.238 -0.224613,-2.47094 -0.297366,-0.11554 -1.15854,-0.0165 -1.904652,0.20832 -0.746111,0.23089 -2.458871,0.39304 -3.807266,0.3587 -4.479305,-0.10919 -5.95283,-1.65115 -8.678384,-9.08213 -1.133251,-3.09142 -1.189584,-3.98177 -0.297246,-4.74544 0.363287,-0.31421 0.66293,-0.97703 0.66293,-1.48714 0,-0.76056 -0.145147,-0.91995 -0.828094,-0.91995 -0.502321,0 -0.828093,-0.18922 -0.828093,-0.47753 0,-0.2635 -0.297246,-0.98236 -0.661493,-1.59883 -0.561891,-0.95703 -0.806999,-1.0996 -1.656067,-0.97493 -0.548467,0.0805 -0.994696,0.2776 -0.994696,0.4392 0,0.16157 -0.171755,0.29337 -0.389656,0.29337 -0.211668,0 -2.766425,1.28211 -5.674043,2.84906 l -5.287623,2.8492 -2.387796,-0.11998 c -3.181251,-0.16042 -4.241988,-0.96937 -6.269493,-4.78064 -1.908608,-3.58706 -1.933658,-4.45224 -0.184701,-6.41539 0.723699,-0.8131 1.315194,-1.60955 1.315194,-1.76982 0,-0.1604 1.330296,-1.65613 2.955321,-3.32401 3.404186,-3.49236 6.649561,-7.37655 6.649561,-7.95731 0,-0.2196 -1.646959,-2.18186 -3.659123,-4.36096 -4.672275,-5.05907 -7.031666,-8.9167 -11.695911,-19.12174 -0.594851,-1.30232 -0.873639,-2.47349 -0.873639,-3.67389 0,-0.96929 -0.09948,-3.57844 -0.217781,-5.79814 l -0.21802,-4.03583 -0.715189,0.67181 c 1.482994,0.30464 0,-5.29382 0.734965,-14.12692 0.323734,0.20667 0.416144,-0.62975 0.416144,-3.81138 0,-7.40464 1.220627,-18.96122 2.44389,-23.28633 0.396368,-1.39909 1.36853,-5.68443 1.993106,-8.7767 1.195457,-5.915164 3.869232,-13.291636 6.28927,-17.347138 2.034937,-3.409388 2.379287,-3.788856 2.934346,-3.233761 0.257813,0.25846 -0.297366,1.689208 -1.987833,5.088121 -3.16567,6.380397 -3.58577,7.480783 -4.396124,11.518426 -0.383424,1.912574 -0.908638,3.999172 -1.16717,4.636762 -1.188865,2.93377 -3.091359,11.98159 -3.622087,17.22216 -1.129295,11.14803 -1.377879,36.36167 -0.40272,41.06856 0.800407,3.87332 1.155903,4.83957 3.285887,8.92795 2.919003,5.60376 4.775952,8.43419 7.382488,11.24991 1.277319,1.38003 3.351808,3.6642 4.60959,5.07592 1.258142,1.41172 2.492552,2.56675 2.742454,2.56675 0.469721,0 0.594732,-0.0879 2.182841,-1.49552 1.059418,-0.93912 2.054593,-1.06582 2.348603,-0.29845 0.350222,0.92039 0.225331,1.13187 -0.709675,1.14257 -0.502322,0.005 -1.308482,0.36096 -1.794863,0.78946 -0.78063,0.6873 -0.861774,0.94857 -0.691336,2.2205 0.257932,1.91152 2.424712,5.71648 6.959631,12.21387 0.317502,0.45498 0.8227,1.36815 1.122703,2.02914 0.297366,0.66113 0.709795,1.30361 0.910676,1.42789 0.198723,0.12443 0.363167,0.51523 0.363167,0.86885 0,0.35419 0.112666,0.62847 0.251101,0.61061 0.138555,-0.012 1.738769,-1.64022 3.56024,-3.60592 1.82195,-1.96573 3.565154,-3.59087 3.875105,-3.61132 0.310191,-0.0165 0.683426,-0.25225 0.830132,-0.51409 0.231324,-0.40994 0.429089,-0.39812 1.439845,0.0827 1.828782,0.87235 1.556466,1.69131 -0.871482,2.61939 -1.55383,0.59418 -2.511369,1.28214 -4.203035,3.01928 -2.699785,2.77166 -4.548223,5.46587 -4.548223,6.629 0,2.13129 2.894073,8.30777 4.446345,9.49201 l 1.191501,0.90883 3.143136,-0.41613 c 1.820632,-0.24156 4.014739,-0.31929 5.212832,-0.18751 1.810684,0.20046 2.20058,0.37446 3.117967,1.39642 0.921223,1.02578 1.289185,1.18911 3.032629,1.34729 1.952834,0.17744 1.992627,0.16387 2.511968,-0.84046 1.286548,-2.48814 0.06592,-5.02768 -3.147092,-6.39761 -2.003774,-0.86193 -2.523834,-1.42264 -1.955591,-2.10764 0.614748,-0.74325 1.518112,-0.60932 3.691004,0.54957 2.15839,1.15039 3.926284,2.92164 3.926284,3.93363 0,0.75233 0,0.75571 1.137805,0.32828 0.721781,-0.27477 0.849309,-0.52763 0.849309,-1.68235 0,-1.35208 0,-1.35806 1.042159,-1.13051 0.976837,0.21454 1.027656,0.17961 0.814909,-0.55296 -0.12537,-0.43077 -0.317621,-1.26987 -0.422976,-1.86592 -0.270757,-1.48524 -2.624754,-3.27807 -7.311772,-5.56738 -1.386389,-0.67723 -1.73853,-1.01219 -1.73853,-1.65295 0,-0.55858 0.18458,-0.80375 0.607916,-0.80375 0.803523,0 5.649113,2.47794 8.276504,4.23248 1.151349,0.76877 2.221194,1.39782 2.377129,1.39782 0.502441,0 1.657026,-1.72154 1.657026,-2.46905 0,-1.70054 -4.35789,-5.28731 -8.776907,-7.22479 -1.596739,-0.70005 -2.007849,-1.037 -2.092468,-1.71584 -0.09229,-0.73112 0,-0.84403 0.828094,-0.83992 0.515266,0.004 2.572736,0.84582 4.576509,1.87426 4.195124,2.15303 7.782932,5.35447 7.782932,6.94502 0,2.26724 -1.313156,4.82779 -2.702182,5.26857 -0.482665,0.15381 -0.608036,0.53099 -0.608036,1.8404 0,1.65643 -1.017708,4.27014 -1.6629,4.27014 -0.18458,0 -0.323614,1.22556 -0.323614,2.89788 0,3.58155 -0.535523,8.79634 -1.350312,13.16517 -0.98259,5.247 -1.632097,9.65318 -1.632097,11.06788 0,1.34173 -0.65442,2.34561 -1.524824,2.34561 -0.264525,0 -0.568363,-0.22356 -0.674556,-0.49889 z M 33.478028,209.2095 c 2.671258,-1.29742 10.455508,-5.40341 10.725786,-5.65761 0.283942,-0.26632 -0.06592,-0.89508 -2.588437,-4.95624 -0.627812,-1.00187 -1.530697,-2.64123 -2.007849,-3.64314 -1.239684,-2.602 -2.330744,-3.6432 -3.818293,-3.6432 -1.061336,0 -1.467892,0.27253 -3.334788,2.23558 -4.23216,4.45043 -6.773853,7.42204 -7.488922,8.7552 -0.8227,1.53342 -0.738201,1.91654 1.112875,5.07233 1.636411,2.78975 4.152335,3.41429 7.399628,1.83708 z m 9.373677,-104.58471 c -0.217781,-0.0743 -1.160459,-2.09987 -2.094866,-4.50161 -0.933808,-2.401537 -2.00701,-5.037258 -2.385039,-5.856998 -1.10832,-2.406889 -2.244328,-5.387943 -2.244328,-5.891392 0,-0.256194 -0.21802,-0.93642 -0.482665,-1.510429 -0.264525,-0.574248 -0.892697,-2.235985 -1.3937,-3.693246 -1.100889,-3.199361 -1.268809,-7.144607 -0.396368,-9.273464 0.297366,-0.728648 0.548347,-1.448103 0.55458,-1.598728 0,-0.15084 0.830131,-0.988846 1.828662,-1.862474 1.424863,-1.246539 2.160427,-1.640079 3.41725,-1.827571 0.880951,-0.131196 2.104214,-0.44823 2.718722,-0.704317 3.079014,-1.282905 4.923497,-0.123945 6.231379,3.915892 1.265573,3.910847 2.642733,10.810262 2.919723,14.626937 0.158452,2.169416 -0.429808,8.149994 -0.803762,8.149994 -0.804123,0 -0.95754,-0.962322 -0.785066,-4.925462 0.165523,-3.758616 0.07311,-4.750843 -0.868365,-9.79247 -0.84847,-4.528292 -1.276001,-6.038733 -2.219158,-7.833523 -1.395737,-2.655486 -2.134538,-2.938505 -5.459977,-2.090874 -3.564076,0.908434 -4.763008,1.817383 -5.782514,4.383995 -0.765288,1.925315 -0.475833,5.670986 0.694573,8.999686 0.482545,1.365114 1.149191,3.301732 1.486949,4.303475 1.135288,3.365424 5.591461,13.990199 6.106368,14.558819 0.27759,0.30911 0.508914,0.85065 0.508914,1.20242 0,0.70315 -0.931051,1.43402 -1.555747,1.22134 z m 16.156039,-8.674985 c -0.640996,-0.638995 -0.690018,-1.066633 -0.693134,-5.740743 0,-4.387831 -0.330567,-8.56144 -1.171006,-14.986628 -0.237677,-1.80595 -1.105803,-4.435642 -2.129264,-6.442376 -0.880352,-1.725154 -3.344737,-3.647065 -2.776374,-2.164574 0.488778,1.272404 -1.538487,2.005895 -2.276568,0.823731 -0.475954,-0.760555 -0.987385,-0.830935 -1.900098,-0.260702 -0.848589,0.529865 -1.255744,0.07779 -0.71303,-0.791261 0.396367,-0.631097 0.257932,-0.866077 -1.557665,-2.717296 -2.192789,-2.234284 -7.147209,-9.422363 -8.815862,-12.790352 -2.436698,-4.919853 -3.698795,-11.548152 -3.384289,-17.778008 0.330566,-6.539185 1.045515,-8.788894 4.0471,-12.7129 2.436578,-3.186633 2.201418,-2.970411 3.575222,-3.280326 1.144757,-0.257897 1.176999,-0.241009 0.815509,0.439756 -0.204956,0.39022 -1.197494,1.677163 -2.200579,2.861281 -2.155873,2.544905 -3.597756,5.454596 -4.03919,8.151696 -0.736882,4.500388 -0.131963,12.944824 1.2259,17.184882 0.568363,1.769813 2.773018,6.348396 3.735831,7.757941 0.317502,0.470176 1.312437,1.964557 2.203336,3.322851 0.890899,1.358283 2.720041,3.6311 4.064959,5.050749 2.431904,2.567127 2.454317,2.58121 4.142866,2.58121 1.354148,0 1.784435,-0.137308 2.122673,-0.680118 0.906001,-1.4505 5.1553,-2.56932 5.578276,-1.468539 0.297366,0.773966 -0.502202,1.509434 -1.396337,1.28493 -0.508914,-0.128235 -1.121504,0.05082 -1.783716,0.52199 -1.078475,0.76783 -1.28451,1.469366 -0.56189,1.897844 0.244389,0.145878 1.06589,1.641853 1.819313,3.324697 1.109519,2.475675 1.437328,3.67716 1.716835,6.292829 0.191412,1.778095 0.429089,3.456336 0.528811,3.729599 0.211668,0.578922 0.818025,16.967941 0.634284,17.153072 -0.06592,0.06868 -0.43628,-0.186366 -0.81419,-0.564827 z"
       id="path1670-7-7-2"
       sodipodi:nodetypes="csccscsssssssssssscsssssssssssscsssssscssssssssssssssssssscsssssscssssscsscssssssssssssssscscsssssssssssssssscsscsscssscscssssssssssssssssscsscsscsssssssscsssssssscssssssscsssscccssccccsssssscsssssssssssssssscssssssssssssscscssscsssscsscssssssscssssscssssscsscsssssssssssssssscssssssssssssssssssssssssssssssssssssssssssssssssscsssssssssssssssssssssssssssssssssssscssssssssssssscsssccccssssscssssssscscccssssssscssssssssscssssssssccssssssccscssssscssssscssccscccscssssccsscscscsssscscssscccsssccscscssscsssssssssssssssssscsssssssssssssssssssssssssscssssssssscsssscsssssssssscssssssscccssssssssscssscssssssssscsssssssssssscsccsccsccssssscccsscsssscsscssccscssssssssssssssscssscssssssssssscccsssssssssscssssssssssccccsssscssssssssssccssssscscsssscscscssssssssssscsssssssscssssscsssccsscsscsssssssssccsscssssssssssssssccsssssssssssssssssssssscssscscc"
       inkscape:export-filename="./ruck_knotless_tibetan.svg"
       inkscape:export-xdpi="300"
       inkscape:export-ydpi="300" />
    <path
       style="font-variation-settings:normal;display:inline;vector-effect:none;fill:#ff0000;fill-opacity:1;stroke:#c8b7b7;stroke-width:2.24215;stroke-linecap:butt;stroke-linejoin:miter;stroke-miterlimit:4;stroke-dasharray:none;stroke-dashoffset:0;stroke-opacity:1;-inkscape-stroke:none;paint-order:stroke fill markers;stop-color:#000000"
       d="m 67.445336,81.247658 c -0.731969,4.40859 -1.194977,8.839162 -2.018157,13.23012 -0.0875,0.464639 -0.370718,0.879129 -0.448386,1.345434 -0.04914,0.294921 0.04914,0.602043 0,0.896964 -0.0839,0.504167 -0.34387,1.046378 -0.448506,1.569674 -0.118658,0.594109 0.03236,0.831318 -0.224133,1.345434 -0.11746,0.235256 0.178827,0.942226 0,1.121206 -0.05274,0.0529 -0.171635,-0.0529 -0.224253,0 -0.05993,0.0593 0,0.58038 0,0.67271"
       id="path300" />
  </g>
</svg>
