<?xml version="1.0" encoding="UTF-8" standalone="no"?>
<!-- Created with Inkscape (http://www.inkscape.org/) -->

<svg
   width="187.274mm"
   height="259mm"
   viewBox="0 0 187.274 259"
   version="1.1"
   id="svg1"
   inkscape:version="1.3.2 (091e20e, 2023-11-25)"
   sodipodi:docname="double_twisted_pirate_strangleproof.svg"
   xmlns:inkscape="http://www.inkscape.org/namespaces/inkscape"
   xmlns:sodipodi="http://sodipodi.sourceforge.net/DTD/sodipodi-0.dtd"
   xmlns="http://www.w3.org/2000/svg"
   xmlns:svg="http://www.w3.org/2000/svg">
  <sodipodi:namedview
     id="namedview1"
     pagecolor="#ffffff"
     bordercolor="#eeeeee"
     borderopacity="1"
     inkscape:showpageshadow="0"
     inkscape:pageopacity="0"
     inkscape:pagecheckerboard="0"
     inkscape:deskcolor="#505050"
     inkscape:document-units="mm"
     inkscape:zoom="0.38723101"
     inkscape:cx="458.38271"
     inkscape:cy="446.76174"
     inkscape:window-width="1472"
     inkscape:window-height="803"
     inkscape:window-x="336"
     inkscape:window-y="1117"
     inkscape:window-maximized="1"
     inkscape:current-layer="layer1" />
  <defs
     id="defs1" />
  <g
     inkscape:label="Layer 1"
     inkscape:groupmode="layer"
     id="layer1">
    <path
       style="font-variation-settings:normal;display:inline;mix-blend-mode:normal;fill:none;fill-opacity:1;stroke:#ff0000;stroke-width:1.588;stroke-linecap:butt;stroke-linejoin:miter;stroke-miterlimit:4;stroke-dasharray:none;stroke-dashoffset:0;stroke-opacity:1;stop-color:#000000"
       d="m 51.304234,136.60696 c 5.277658,-10.24413 10.029736,-17.31081 19.847889,-23.40303 4.15159,-5.87898 19.921936,-10.32491 7.7302,-14.443998 -11.480975,6.684048 -21.989627,16.176588 -28.571411,27.920328"
       id="path1318-2-0"
       sodipodi:nodetypes="cccc"
       inkscape:export-filename="./double_twisted_pirate_strangleproof.svg"
       inkscape:export-xdpi="250"
       inkscape:export-ydpi="250" />
    <path
       style="font-variation-settings:normal;display:inline;mix-blend-mode:normal;fill:none;fill-opacity:1;stroke:#ff0000;stroke-width:1.588;stroke-linecap:butt;stroke-linejoin:miter;stroke-miterlimit:4;stroke-dasharray:none;stroke-dashoffset:0;stroke-opacity:1;stop-color:#000000"
       d="m 63.614839,84.237507 c 2.097408,2.325495 7.266021,3.22673 6.275769,7.321501"
       id="path1290-2-1-4" />
    <path
       style="font-variation-settings:normal;display:inline;mix-blend-mode:normal;fill:none;fill-opacity:1;stroke:#ff0000;stroke-width:1.588;stroke-linecap:butt;stroke-linejoin:miter;stroke-miterlimit:4;stroke-dasharray:none;stroke-dashoffset:0;stroke-opacity:1;stop-color:#000000"
       d="m 63.614839,92.604961 c 3.456917,-1.889988 9.890482,-2.325802 10.381555,2.537152"
       id="path1291-1-2"
       sodipodi:nodetypes="cc" />
    <path
       style="font-variation-settings:normal;display:inline;mix-blend-mode:normal;fill:none;fill-opacity:1;stroke:#ff0000;stroke-width:1.588;stroke-linecap:butt;stroke-linejoin:miter;stroke-miterlimit:4;stroke-dasharray:none;stroke-dashoffset:0;stroke-opacity:1;stop-color:#000000"
       d="m 64.660965,100.4494 c 1.820864,-4.290548 12.385144,-9.313091 13.597294,-2.091856"
       id="path1292-1-6" />
    <path
       style="font-variation-settings:normal;display:inline;mix-blend-mode:normal;fill:none;fill-opacity:1;stroke:#ff0000;stroke-width:1.588;stroke-linecap:butt;stroke-linejoin:miter;stroke-miterlimit:4;stroke-dasharray:none;stroke-dashoffset:0;stroke-opacity:1;stop-color:#000000"
       d="M 42.173633,104.11016 C 38.062075,91.886967 52.933777,83.47215 63.229373,84.008229 l 1.312845,0.791391 1.164626,1.00678"
       id="path1296-0-0" />
    <path
       style="font-variation-settings:normal;display:inline;mix-blend-mode:normal;fill:none;fill-opacity:1;stroke:#ff0000;stroke-width:1.588;stroke-linecap:butt;stroke-linejoin:miter;stroke-miterlimit:4;stroke-dasharray:none;stroke-dashoffset:0;stroke-opacity:1;stop-color:#000000"
       d="m 64.660965,92.081886 c -9.053361,4.986637 -22.843204,10.085524 -23.89989,21.684304 0,2.53899 0.295577,5.06532 0.367292,7.60169"
       id="path1316-8-9" />
    <path
       style="font-variation-settings:normal;display:inline;mix-blend-mode:normal;fill:none;fill-opacity:1;stroke:#ff0000;stroke-width:1.588;stroke-linecap:butt;stroke-linejoin:miter;stroke-miterlimit:4;stroke-dasharray:none;stroke-dashoffset:0;stroke-opacity:1;stop-color:#000000"
       d="m 64.66649,100.4277 c -8.035847,9.235 -20.715955,13.85008 -21.869652,27.33168 -0.55235,4.75186 -0.21846,6.90019 2.383284,10.84972"
       id="path1317-7-7-9"
       sodipodi:nodetypes="ccc" />
    <path
       style="font-variation-settings:normal;display:inline;mix-blend-mode:normal;fill:none;fill-opacity:1;stroke:#ff0000;stroke-width:1.588;stroke-linecap:butt;stroke-linejoin:miter;stroke-miterlimit:4;stroke-dasharray:none;stroke-dashoffset:0;stroke-opacity:1;stop-color:#000000"
       d="M 51.586917,104.63315 C 44.35,109.10965 39.984371,118.24796 42.696511,126.59761"
       id="path1319-6-8" />
    <path
       style="font-variation-settings:normal;display:inline;mix-blend-mode:normal;fill:none;fill-opacity:1;stroke:#ff0000;stroke-width:1.588;stroke-linecap:butt;stroke-linejoin:miter;stroke-miterlimit:4;stroke-dasharray:none;stroke-dashoffset:0;stroke-opacity:1;stop-color:#000000"
       d="M 54.931472,92.694801 C 48.758241,95.120009 39.668286,98.906198 42.380304,107.33778"
       id="path1320-0-9" />
    <path
       style="font-variation-settings:normal;display:inline;mix-blend-mode:normal;fill:none;fill-opacity:1;stroke:#ff0000;stroke-width:1.588;stroke-linecap:butt;stroke-linejoin:miter;stroke-miterlimit:4;stroke-dasharray:none;stroke-dashoffset:0;stroke-opacity:1;stop-color:#000000"
       d="m 125.6835,12.074985 c 1.49299,6.699081 -2.22966,13.812769 -4.18082,18.814252 -1.53228,4.989068 -3.30305,9.714425 -6.27159,14.108015 -5.26403,8.433606 -8.16552,11.458442 -11.14929,13.765013 -3.67403,4.564675 -8.180755,6.859851 -14.633355,6.271434 -6.013592,-0.59991 -8.525692,-3.397113 -13.936465,-8.877672 -2.662774,-5.613685 -4.270705,-8.251286 -6.209825,-14.117569"
       id="path924-2"
       sodipodi:nodetypes="ccccccc" />
    <path
       style="font-variation-settings:normal;display:inline;mix-blend-mode:normal;fill:none;fill-opacity:1;stroke:#ff0000;stroke-width:1.588;stroke-linecap:butt;stroke-linejoin:miter;stroke-miterlimit:4;stroke-dasharray:none;stroke-dashoffset:0;stroke-opacity:1;stop-color:#000000"
       d="m 69.17076,22.692154 c -8.642843,-3.961239 -7.19627,8.773158 -1.478378,6.405224"
       id="path931-2" />
    <path
       style="font-variation-settings:normal;display:inline;mix-blend-mode:normal;fill:none;fill-opacity:1;stroke:#ff0000;stroke-width:1.588;stroke-linecap:butt;stroke-linejoin:miter;stroke-miterlimit:4;stroke-dasharray:none;stroke-dashoffset:0;stroke-opacity:1;stop-color:#000000"
       d="m 62.76507,36.360525 c 0.735812,3.384759 0.142815,8.108016 -0.664466,11.569537"
       id="path934-5"
       sodipodi:nodetypes="cc" />
    <path
       style="font-variation-settings:normal;display:inline;mix-blend-mode:normal;fill:none;fill-opacity:1;stroke:#ff0000;stroke-width:1.588;stroke-linecap:butt;stroke-linejoin:miter;stroke-miterlimit:4;stroke-dasharray:none;stroke-dashoffset:0;stroke-opacity:1;stop-color:#000000"
       d="m 62.749966,47.759924 c -7.60163,1.802433 -18.313883,1.410335 -23.202268,2.99389 -4.053474,1.482639 -14.728519,6.953927 -20.635277,12.834467 -4.826616,5.3834 -2.264046,11.640049 -3.942217,18.724179 -0.837736,9.275971 -1.083456,18.96119 0,28.08567 0.187268,8.27578 2.414351,16.71932 3.449179,24.63635 2.753769,8.51201 4.120031,18.30087 9.854133,25.62186 3.352537,7.16848 9.897727,17.73297 20.038105,15.90985 9.30166,-0.46725 18.197715,-3.98553 27.264338,-6.05441 7.709447,-3.55731 16.204686,-5.37822 23.15413,-10.1511 5.649981,-1.50844 7.777971,-4.86804 13.516121,-7.29433 6.71085,-4.05041 14.32636,-5.9433 21.47179,-9.161"
       id="path940-5"
       sodipodi:nodetypes="cccccccccccc" />
    <path
       style="font-variation-settings:normal;display:inline;mix-blend-mode:normal;fill:none;fill-opacity:1;stroke:#ff0000;stroke-width:1.588;stroke-linecap:butt;stroke-linejoin:miter;stroke-miterlimit:4;stroke-dasharray:none;stroke-dashoffset:0;stroke-opacity:1;stop-color:#000000"
       d="m 42.070481,141.93291 c 5.823255,-9.67236 18.740242,-4.29933 27.941207,-5.19513 8.822621,0.8204 17.628787,0.66123 26.265859,-1.21182 8.525943,-0.8417 15.556433,-4.38169 23.344963,-7.00633 9.29994,-4.36899 7.15955,-16.81415 12.33332,-24.55535 1.61493,-7.593207 11.64037,-6.711325 17.72212,-8.739389 6.43847,-0.105975 7.83249,7.899049 8.67661,12.216689 -0.73765,4.15309 1.84002,8.1475 -0.98546,11.8256"
       id="path942-4" />
    <path
       style="font-variation-settings:normal;display:inline;mix-blend-mode:normal;fill:none;fill-opacity:1;stroke:#ff0000;stroke-width:1.588;stroke-linecap:butt;stroke-linejoin:miter;stroke-miterlimit:4;stroke-dasharray:none;stroke-dashoffset:0;stroke-opacity:1;stop-color:#000000"
       d="m 112.98681,49.541996 c 7.96279,2.441602 16.68926,0.970125 26.9824,2.943125 3.73272,3.62816 13.70793,3.133218 14.43478,9.931706 5.28527,3.090852 7.29586,9.339323 9.91234,14.350003 2.42356,6.421421 2.98205,13.288872 3.9448,19.811651 1.68836,7.426769 1.01162,15.529259 -0.19881,23.342089 0.16258,6.99865 -1.47986,13.90361 -2.23863,20.82908 -0.13594,2.80193 -0.69099,5.59575 -0.49451,8.41516"
       id="path943-4"
       sodipodi:nodetypes="cccccccc" />
    <path
       style="font-variation-settings:normal;display:inline;mix-blend-mode:normal;fill:none;fill-opacity:1;stroke:#ff0000;stroke-width:1.588;stroke-linecap:butt;stroke-linejoin:miter;stroke-miterlimit:4;stroke-dasharray:none;stroke-dashoffset:0;stroke-opacity:1;stop-color:#000000"
       d="m 50.838703,49.745831 c 6.173477,7.693434 6.689724,14.26494 8.297778,23.64987 1.213377,6.189257 0.983866,4.534318 1.292582,10.818278"
       id="path948-0"
       sodipodi:nodetypes="ccc" />
    <path
       style="font-variation-settings:normal;display:inline;mix-blend-mode:normal;fill:none;fill-opacity:1;stroke:#ff0000;stroke-width:1.588;stroke-linecap:butt;stroke-linejoin:miter;stroke-miterlimit:4;stroke-dasharray:none;stroke-dashoffset:0;stroke-opacity:1;stop-color:#000000"
       d="m 43.007438,50.121473 c 6.298487,5.452131 8.090248,13.478498 10.903083,20.486861 2.00887,5.484243 2.807309,8.685823 3.135674,14.28578"
       id="path949-3"
       sodipodi:nodetypes="ccc" />
    <path
       style="font-variation-settings:normal;display:inline;mix-blend-mode:normal;fill:none;fill-opacity:1;stroke:#ff0000;stroke-width:1.588;stroke-linecap:butt;stroke-linejoin:miter;stroke-miterlimit:4;stroke-dasharray:none;stroke-dashoffset:0;stroke-opacity:1;stop-color:#000000"
       d="m 16.281575,71.653588 c 9.695722,4.063028 17.597841,11.206543 25.085759,18.465847 2.428229,1.286921 1.006461,1.557276 2.853973,2.705042"
       id="path955-9"
       sodipodi:nodetypes="ccc" />
    <path
       style="font-variation-settings:normal;display:inline;mix-blend-mode:normal;fill:none;fill-opacity:1;stroke:#ff0000;stroke-width:1.588;stroke-linecap:butt;stroke-linejoin:miter;stroke-miterlimit:4;stroke-dasharray:none;stroke-dashoffset:0;stroke-opacity:1;stop-color:#000000"
       d="m 23.598433,69.214713 c 7.829054,5.059149 13.562665,10.581324 20.080716,16.132652 1.519393,1.656387 1.91763,3.432221 3.379676,4.722704"
       id="path956-8"
       sodipodi:nodetypes="ccc" />
    <path
       style="font-variation-settings:normal;display:inline;mix-blend-mode:normal;fill:none;fill-opacity:1;stroke:#ff0000;stroke-width:1.588;stroke-linecap:butt;stroke-linejoin:miter;stroke-miterlimit:4;stroke-dasharray:none;stroke-dashoffset:0;stroke-opacity:1;stop-color:#000000"
       d="M 49.829049,87.3491 C 46.163497,79.44746 41.710435,73.99555 35.85292,67.695921 l -0.756688,-0.920182"
       id="path957-9"
       sodipodi:nodetypes="ccc" />
    <path
       style="font-variation-settings:normal;display:inline;mix-blend-mode:normal;fill:none;fill-opacity:1;stroke:#ff0000;stroke-width:1.588;stroke-linecap:butt;stroke-linejoin:miter;stroke-miterlimit:4;stroke-dasharray:none;stroke-dashoffset:0;stroke-opacity:1;stop-color:#000000"
       d="M 52.86501,86.983748 C 51.115369,81.406399 48.743873,76.340201 46.245404,71.305219"
       id="path958-9" />
    <path
       style="font-variation-settings:normal;display:inline;mix-blend-mode:normal;fill:none;fill-opacity:1;stroke:#ff0000;stroke-width:1.588;stroke-linecap:butt;stroke-linejoin:miter;stroke-miterlimit:4;stroke-dasharray:none;stroke-dashoffset:0;stroke-opacity:1;stop-color:#000000"
       d="m 46.518509,50.59851 c 4.237059,3.062277 5.019903,6.045189 7.043385,10.602692"
       id="path959-5"
       sodipodi:nodetypes="cc" />
    <path
       style="font-variation-settings:normal;display:inline;mix-blend-mode:normal;fill:none;fill-opacity:1;stroke:#ff0000;stroke-width:1.588;stroke-linecap:butt;stroke-linejoin:miter;stroke-miterlimit:4;stroke-dasharray:none;stroke-dashoffset:0;stroke-opacity:1;stop-color:#000000"
       d="m 166.44775,103.70767 c -1.83363,1.9016 -4.89599,4.68208 -7.31661,2.78702"
       id="path960-3" />
    <path
       style="font-variation-settings:normal;display:inline;mix-blend-mode:normal;fill:none;fill-opacity:1;stroke:#ff0000;stroke-width:1.588;stroke-linecap:butt;stroke-linejoin:miter;stroke-miterlimit:4;stroke-dasharray:none;stroke-dashoffset:0;stroke-opacity:1;stop-color:#000000"
       d="m 157.38899,102.66234 c 1.8582,-0.81296 3.71651,-1.62593 5.57446,-2.4389"
       id="path961-8" />
    <path
       style="font-variation-settings:normal;display:inline;mix-blend-mode:normal;fill:none;fill-opacity:1;stroke:#ff0000;stroke-width:1.588;stroke-linecap:butt;stroke-linejoin:miter;stroke-miterlimit:4;stroke-dasharray:none;stroke-dashoffset:0;stroke-opacity:1;stop-color:#000000"
       d="m 154.60194,96.390881 c 2.28799,-2.928868 5.26992,-5.344842 6.96799,-8.710285"
       id="path962-4" />
    <path
       style="font-variation-settings:normal;display:inline;mix-blend-mode:normal;fill:none;fill-opacity:1;stroke:#ff0000;stroke-width:1.588;stroke-linecap:butt;stroke-linejoin:miter;stroke-miterlimit:4;stroke-dasharray:none;stroke-dashoffset:0;stroke-opacity:1;stop-color:#000000"
       d="m 129.86444,52.142438 c -7.35824,6.177554 -13.09099,14.082203 -18.61806,21.90287 -3.69772,5.497149 -8.41726,10.509008 -10.64888,16.771024"
       id="path964-7" />
    <path
       style="font-variation-settings:normal;display:inline;mix-blend-mode:normal;fill:none;fill-opacity:1;stroke:#ff0000;stroke-width:1.588;stroke-linecap:butt;stroke-linejoin:miter;stroke-miterlimit:4;stroke-dasharray:none;stroke-dashoffset:0;stroke-opacity:1;stop-color:#000000"
       d="m 142.40726,57.717012 c -8.06581,2.545219 -15.44186,8.869825 -22.99535,14.981804 -4.26899,4.82636 -2.96228,2.651281 -6.44536,7.557804"
       id="path965-7"
       sodipodi:nodetypes="ccc" />
    <path
       style="font-variation-settings:normal;display:inline;mix-blend-mode:normal;fill:none;fill-opacity:1;stroke:#ff0000;stroke-width:1.588;stroke-linecap:butt;stroke-linejoin:miter;stroke-miterlimit:4;stroke-dasharray:none;stroke-dashoffset:0;stroke-opacity:1;stop-color:#000000"
       d="M 153.55655,68.517865 C 137.69914,70.126397 129.8319,73.28248 118.1542,83.81568"
       id="path966-1"
       sodipodi:nodetypes="cc" />
    <path
       style="font-variation-settings:normal;display:inline;mix-blend-mode:normal;fill:none;fill-opacity:1;stroke:#ff0000;stroke-width:1.588;stroke-linecap:butt;stroke-linejoin:miter;stroke-miterlimit:4;stroke-dasharray:none;stroke-dashoffset:0;stroke-opacity:1;stop-color:#000000"
       d="m 72.198125,91.25707 c 9.481806,-1.094435 20.152676,0.0012 29.424375,1.502495 8.94984,1.415787 -3.236494,-2.451658 5.02248,0.988324"
       id="path967-2"
       sodipodi:nodetypes="ccc" />
    <path
       style="font-variation-settings:normal;display:inline;mix-blend-mode:normal;fill:none;fill-opacity:1;stroke:#ff0000;stroke-width:1.588;stroke-linecap:butt;stroke-linejoin:miter;stroke-miterlimit:4;stroke-dasharray:none;stroke-dashoffset:0;stroke-opacity:1;stop-color:#000000"
       d="m 78.53296,98.403054 c 8.363844,1.602576 14.08235,5.715546 23.10992,6.698116 8.53441,1.16225 17.3854,1.13612 26.021,2.21549 l 1.69414,-0.0677 1.55169,-0.0591"
       id="path969-8"
       sodipodi:nodetypes="ccccc" />
    <path
       style="font-variation-settings:normal;display:inline;mix-blend-mode:normal;fill:none;fill-opacity:1;stroke:#ff0000;stroke-width:1.588;stroke-linecap:butt;stroke-linejoin:miter;stroke-miterlimit:4;stroke-dasharray:none;stroke-dashoffset:0;stroke-opacity:1;stop-color:#000000"
       d="m 83.872263,102.43563 c 6.719196,3.51852 11.010164,4.70609 18.624197,5.54089 7.7927,-0.22223 15.62471,1.06739 22.8728,1.64989 1.28546,0.13068 2.50657,-0.53782 3.7983,-0.3445"
       id="path970-7"
       sodipodi:nodetypes="cccc" />
    <path
       style="font-variation-settings:normal;display:inline;mix-blend-mode:normal;fill:none;fill-opacity:1;stroke:#ff0000;stroke-width:1.588;stroke-linecap:butt;stroke-linejoin:miter;stroke-miterlimit:4;stroke-dasharray:none;stroke-dashoffset:0;stroke-opacity:1;stop-color:#000000"
       d="m 160.52466,80.363934 c -9.3929,-0.111502 -18.33033,2.702831 -26.82778,6.445894"
       id="path971-4" />
    <path
       style="font-variation-settings:normal;display:inline;mix-blend-mode:normal;fill:none;fill-opacity:1;stroke:#ff0000;stroke-width:1.588;stroke-linecap:butt;stroke-linejoin:miter;stroke-miterlimit:4;stroke-dasharray:none;stroke-dashoffset:0;stroke-opacity:1;stop-color:#000000"
       d="m 80.053335,94.031444 c 11.089369,0.79817 13.345433,0.618232 23.802385,3.760734"
       id="path973-2"
       sodipodi:nodetypes="cc" />
    <path
       style="font-variation-settings:normal;display:inline;mix-blend-mode:normal;fill:none;fill-opacity:1;stroke:#ff0000;stroke-width:1.588;stroke-linecap:butt;stroke-linejoin:miter;stroke-miterlimit:4;stroke-dasharray:none;stroke-dashoffset:0;stroke-opacity:1;stop-color:#000000"
       d="m 108.85364,162.51435 c 1.41882,8.45399 3.23625,73.63596 4.71389,82.02135"
       id="path976-6"
       sodipodi:nodetypes="cc" />
    <path
       style="font-variation-settings:normal;display:inline;mix-blend-mode:normal;fill:none;fill-opacity:1;stroke:#ff0000;stroke-width:1.588;stroke-linecap:butt;stroke-linejoin:miter;stroke-miterlimit:4;stroke-dasharray:none;stroke-dashoffset:0;stroke-opacity:1;stop-color:#000000"
       d="m 129.81164,167.76866 c 3.98004,7.59218 23.88736,74.16441 27.9024,81.67301"
       id="path976-4-5"
       sodipodi:nodetypes="cc" />
    <path
       style="font-variation-settings:normal;display:inline;mix-blend-mode:normal;fill:none;fill-opacity:1;stroke:#ff0000;stroke-width:1.588;stroke-linecap:butt;stroke-linejoin:miter;stroke-miterlimit:4;stroke-dasharray:none;stroke-dashoffset:0;stroke-opacity:1;stop-color:#000000"
       d="m 140.22856,166.35162 c 3.98004,7.5922 23.88736,74.1644 27.90215,81.67301"
       id="path976-4-5-3"
       sodipodi:nodetypes="cc" />
    <path
       style="font-variation-settings:normal;display:inline;mix-blend-mode:normal;fill:none;fill-opacity:1;stroke:#ff0000;stroke-width:1.588;stroke-linecap:butt;stroke-linejoin:miter;stroke-miterlimit:4;stroke-dasharray:none;stroke-dashoffset:0;stroke-opacity:1;stop-color:#000000"
       d="m 74.815096,170.9512 c 3.717618,8.17988 5.803115,57.95478 16.016926,79.20827"
       id="path977-3"
       sodipodi:nodetypes="cc" />
    <path
       style="font-variation-settings:normal;display:inline;mix-blend-mode:normal;fill:none;fill-opacity:1;stroke:#ff0000;stroke-width:1.588;stroke-linecap:butt;stroke-linejoin:miter;stroke-miterlimit:4;stroke-dasharray:none;stroke-dashoffset:0;stroke-opacity:1;stop-color:#000000"
       d="m 43.806492,176.87427 c -2.465314,6.5641 -16.506158,66.75386 -16.961866,72.63178"
       id="path978-0"
       sodipodi:nodetypes="cc" />
    <path
       style="font-variation-settings:normal;display:inline;mix-blend-mode:normal;fill:none;fill-opacity:1;stroke:#ff0000;stroke-width:1.588;stroke-linecap:butt;stroke-linejoin:miter;stroke-miterlimit:4;stroke-dasharray:none;stroke-dashoffset:0;stroke-opacity:1;stop-color:#000000"
       d="m 52.168248,176.17749 c -0.664589,4.50771 -5.05355,13.28222 -6.547032,26.98758 0.402536,17.98473 -1.750746,45.62891 -2.113126,47.71686"
       id="path979-2"
       sodipodi:nodetypes="ccc" />
    <path
       style="font-variation-settings:normal;display:inline;mix-blend-mode:normal;fill:none;fill-opacity:1;stroke:#ff0000;stroke-width:1.588;stroke-linecap:butt;stroke-linejoin:miter;stroke-miterlimit:4;stroke-dasharray:none;stroke-dashoffset:0;stroke-opacity:1;stop-color:#000000"
       d="m 62.272277,174.43543 c 2.998262,19.50474 -3.121061,56.0404 7.486813,74.15486"
       id="path980-0"
       sodipodi:nodetypes="cc" />
    <path
       style="font-variation-settings:normal;display:inline;mix-blend-mode:normal;fill:none;fill-opacity:1;stroke:#ff0000;stroke-width:1.588;stroke-linecap:butt;stroke-linejoin:miter;stroke-miterlimit:4;stroke-dasharray:none;stroke-dashoffset:0;stroke-opacity:1;stop-color:#000000"
       d="m 69.24051,173.04177 c 2.858148,6.65358 9.428389,43.85271 3.65757,77.63681"
       id="path981-0"
       sodipodi:nodetypes="cc" />
    <path
       style="font-variation-settings:normal;display:inline;mix-blend-mode:normal;fill:none;fill-opacity:1;stroke:#ff0000;stroke-width:1.588;stroke-linecap:butt;stroke-linejoin:miter;stroke-miterlimit:4;stroke-dasharray:none;stroke-dashoffset:0;stroke-opacity:1;stop-color:#000000"
       d="m 151.72992,119.75237 c -2.16458,6.63724 -2.63159,9.6361 -8.14858,16.99508 -3.73432,3.00938 -6.70888,4.99857 -11.34,7.15533"
       id="path984-3"
       sodipodi:nodetypes="ccc" />
    <path
       style="font-variation-settings:normal;display:inline;mix-blend-mode:normal;fill:none;fill-opacity:1;stroke:#ff0000;stroke-width:1.588;stroke-linecap:butt;stroke-linejoin:miter;stroke-miterlimit:4;stroke-dasharray:none;stroke-dashoffset:0;stroke-opacity:1;stop-color:#000000"
       d="m 100.31665,159.78099 c 7.13868,3.68809 15.04596,5.51404 22.90596,6.91222 3.70079,-1.30077 13.88526,3.06367 17.24811,1.16217"
       id="path990-8"
       sodipodi:nodetypes="ccc" />
    <path
       style="font-variation-settings:normal;display:inline;mix-blend-mode:normal;fill:none;fill-opacity:1;stroke:#ff0000;stroke-width:1.588;stroke-linecap:butt;stroke-linejoin:miter;stroke-miterlimit:4;stroke-dasharray:none;stroke-dashoffset:0;stroke-opacity:1;stop-color:#000000"
       d="m 99.219198,92.1941 c 3.664202,-0.0388 7.349642,0.859139 10.262562,3.189657 0.41052,0.328487 0.66545,0.841112 0.97085,1.248166 0.54768,0.730458 1.25316,1.347756 1.80269,2.080228 0.77167,1.0287 1.63667,2.247459 1.94158,3.467019 0.0909,0.3673 0.40167,0.52605 0.55493,0.83207 0.32836,0.6573 0.83196,2.30993 0.83196,2.91229"
       id="path93-0-5" />
    <path
       style="font-variation-settings:normal;display:inline;mix-blend-mode:normal;fill:none;fill-opacity:1;stroke:#ff0000;stroke-width:1.588;stroke-linecap:butt;stroke-linejoin:miter;stroke-miterlimit:4;stroke-dasharray:none;stroke-dashoffset:0;stroke-opacity:1;stop-color:#000000"
       d="m 98.946461,91.860099 c 1.186729,-2.656291 3.339649,-3.574656 5.404019,-3.687717 3.10682,-0.170052 4.38098,-0.516947 6.93397,1.525459 0.49107,0.393018 0.98669,0.924861 1.52566,1.248166 2.1227,1.273709 3.01975,2.708469 4.57647,4.57639 0.48088,0.577769 1.03655,1.094176 1.52529,1.664258 0.61313,0.714924 1.08063,1.556626 1.52565,2.357583 0.59398,1.069092 0.20139,0.08743 0.83197,0.970752 0.66778,0.9349 1.36098,1.87466 2.08021,2.77367 0.80618,1.00759 1.0815,2.05206 1.9417,2.91221"
       id="path94-5-9"
       sodipodi:nodetypes="cssssssssc" />
    <path
       style="font-variation-settings:normal;display:inline;mix-blend-mode:normal;fill:none;fill-opacity:1;stroke:#ff0000;stroke-width:1.588;stroke-linecap:butt;stroke-linejoin:miter;stroke-miterlimit:4;stroke-dasharray:none;stroke-dashoffset:0;stroke-opacity:1;stop-color:#000000"
       d="m 99.763566,90.219897 c 1.487714,-2.821825 3.605254,-5.456773 6.504914,-6.907263 2.37862,-0.548273 4.19776,1.473834 6.2808,2.195512 2.28984,0.796438 4.10738,2.477188 5.67246,4.270288 1.67461,1.643985 3.85527,2.647572 5.47708,4.354111 1.17335,1.15032 2.50252,2.118861 3.79584,3.119083 1.42595,1.361817 2.58738,2.977532 4.04574,4.306072 0.1896,0.24842 0.33856,0.52538 0.54609,0.76016"
       id="path95-6-5" />
    <path
       style="font-variation-settings:normal;display:inline;mix-blend-mode:normal;fill:none;fill-opacity:1;stroke:#ff0000;stroke-width:1.588;stroke-linecap:butt;stroke-linejoin:miter;stroke-miterlimit:4;stroke-dasharray:none;stroke-dashoffset:0;stroke-opacity:1;stop-color:#000000"
       d="m 104.21184,83.457254 c 0.42734,-2.539742 3.11296,-4.338208 4.89673,-4.491326 1.93323,-0.376539 5.54782,2.139417 6.97904,3.178506 3.2559,2.115079 5.76235,4.17491 8.85701,6.561092 2.16151,1.624202 3.60673,3.397568 6.04134,4.59104 1.41133,0.607707 2.59401,1.581897 3.63805,2.69582 0.63463,0.801521 1.95607,0.911365 2.1776,2.026786"
       id="path97-1"
       sodipodi:nodetypes="ccccccc" />
    <path
       style="font-variation-settings:normal;display:inline;mix-blend-mode:normal;fill:none;fill-opacity:1;stroke:#ff0000;stroke-width:1.588;stroke-linecap:butt;stroke-linejoin:miter;stroke-miterlimit:4;stroke-dasharray:none;stroke-dashoffset:0;stroke-opacity:1;stop-color:#000000"
       d="m 96.987448,91.466086 c 2.034535,0.630585 3.864982,1.925919 4.795062,3.785404 0.34224,0.684789 1.21902,1.00888 1.64022,1.640374 0.76209,1.143358 1.32329,2.391082 1.64023,3.659226 0.36201,1.44856 0.12636,3.26776 0.12636,4.79481"
       id="path99-4-1" />
    <path
       style="font-variation-settings:normal;display:inline;mix-blend-mode:normal;fill:none;fill-opacity:1;stroke:#ff0000;stroke-width:1.588;stroke-linecap:butt;stroke-linejoin:miter;stroke-miterlimit:4;stroke-dasharray:none;stroke-dashoffset:0;stroke-opacity:1;stop-color:#000000"
       d="m 76.307964,108.30351 c 0.97613,1.17389 1.933348,2.39977 2.780785,3.67078 1.283495,1.92537 2.447876,3.82566 4.004354,5.56173 2.597323,2.89703 5.808641,5.135 8.898757,7.45269 1.702608,1.27692 3.44304,2.22301 5.450559,2.89212 0.564507,0.18819 1.205149,0.55612 1.779972,0.55612"
       id="path103-4" />
    <path
       style="font-variation-settings:normal;display:inline;mix-blend-mode:normal;fill:none;fill-opacity:1;stroke:#ff0000;stroke-width:1.588;stroke-linecap:butt;stroke-linejoin:miter;stroke-miterlimit:4;stroke-dasharray:none;stroke-dashoffset:0;stroke-opacity:1;stop-color:#000000"
       d="m 64.516921,117.98097 c 0.12636,1.52604 -0.337697,3.96883 0.444778,5.33928 1.748045,3.05893 3.80542,6.00067 5.89546,8.78756"
       id="path105-7" />
    <path
       style="font-variation-settings:normal;display:inline;mix-blend-mode:normal;fill:none;fill-opacity:1;stroke:#ff0000;stroke-width:1.588;stroke-linecap:butt;stroke-linejoin:miter;stroke-miterlimit:4;stroke-dasharray:none;stroke-dashoffset:0;stroke-opacity:1;stop-color:#000000"
       d="m 79.200127,106.41255 c 0.91252,1.88687 4.611719,3.44651 6.562628,4.22688 0.245106,0.098 1.334948,0.44347 1.334948,0.66747"
       id="path106-8" />
    <path
       style="font-variation-settings:normal;display:inline;mix-blend-mode:normal;fill:none;fill-opacity:1;stroke:#ff0000;stroke-width:1.588;stroke-linecap:butt;stroke-linejoin:miter;stroke-miterlimit:4;stroke-dasharray:none;stroke-dashoffset:0;stroke-opacity:1;stop-color:#000000"
       d="m 58.955229,123.87642 c 0.385712,1.15837 1.30695,2.0119 1.779604,3.11459 0.145149,0.33962 0.139991,0.78802 0.333768,1.11232 0.449076,0.74861 1.296267,1.44138 1.557338,2.22469 0.122799,0.36685 0.889802,0.8181 0.889802,1.11238"
       id="path107-8" />
    <path
       style="font-variation-settings:normal;display:inline;mix-blend-mode:normal;fill:none;fill-opacity:1;stroke:#ff0000;stroke-width:1.588;stroke-linecap:butt;stroke-linejoin:miter;stroke-miterlimit:4;stroke-dasharray:none;stroke-dashoffset:0;stroke-opacity:1;stop-color:#000000"
       d="m 56.285455,127.54719 c 0.428569,1.27227 1.330282,2.18157 2.113494,3.22582 0.195496,0.26053 0.301349,0.58747 0.555912,0.77858 0.524352,0.3935 1.187958,0.74297 1.668839,1.22362 0.461356,0.46138 0.971095,0.93063 1.557338,1.22357 0.483705,0.24161 0.772406,0.9229 1.223447,1.22357 0.465776,0.31101 0.827174,0.49339 1.223569,0.88995"
       id="path113-5" />
    <path
       style="font-variation-settings:normal;display:inline;mix-blend-mode:normal;fill:none;fill-opacity:1;stroke:#ff0000;stroke-width:1.588;stroke-linecap:butt;stroke-linejoin:miter;stroke-miterlimit:4;stroke-dasharray:none;stroke-dashoffset:0;stroke-opacity:1;stop-color:#000000"
       d="m 66.465128,115.9956 c 0.135816,0.45655 0.07982,0.95285 0.204092,1.41234 0.672571,2.56016 4.897472,9.14723 6.84789,11.18422 1.107524,1.15656 2.505592,2.10201 3.722408,3.14534 0.627994,0.53847 3.630308,2.51138 3.631291,2.51771"
       id="path114-8" />
    <path
       style="font-variation-settings:normal;display:inline;mix-blend-mode:normal;fill:none;fill-opacity:1;stroke:#ff0000;stroke-width:1.588;stroke-linecap:butt;stroke-linejoin:miter;stroke-miterlimit:4;stroke-dasharray:none;stroke-dashoffset:0;stroke-opacity:1;stop-color:#000000"
       d="m 117.5364,165.34239 c -0.77818,5.09853 2.35013,-3.81139 0.79831,1.06546 -2.29474,7.21235 -1.37645,8.82154 -2.78839,16.23367 -0.76418,4.01175 -1.82934,63.86425 -1.82934,67.93446"
       id="path134-8"
       sodipodi:nodetypes="cssc" />
    <path
       style="font-variation-settings:normal;display:inline;mix-blend-mode:normal;fill:none;fill-opacity:1;stroke:#ff0000;stroke-width:1.588;stroke-linecap:butt;stroke-linejoin:miter;stroke-miterlimit:4;stroke-dasharray:none;stroke-dashoffset:0;stroke-opacity:1;stop-color:#000000"
       d="m 124.37937,164.66191 c 4.97337,3.77331 -6.26127,3.33741 -3.26731,18.30718 0.25493,1.27434 1.19926,2.84189 1.72655,4.02871 1.21068,2.72396 2.6909,5.38158 4.02855,8.05749 0.64199,1.28335 1.19668,2.41562 1.7268,3.741 0.0344,0.0776 14.37032,50.18251 12.4016,50.2437"
       id="path135-4"
       sodipodi:nodetypes="cssscc" />
    <path
       style="font-variation-settings:normal;display:inline;fill:none;fill-opacity:1;stroke:#ff0000;stroke-width:1.588;stroke-linecap:butt;stroke-linejoin:miter;stroke-miterlimit:4;stroke-dasharray:none;stroke-dashoffset:0;stroke-opacity:1;stop-color:#000000"
       d="m 165.05091,148.25386 c -0.0196,7.11889 -0.0233,10.32031 -2.04079,17.44234 -0.90958,6.81053 -9.77702,18.29851 -13.36742,23.94768"
       id="path169-9"
       sodipodi:nodetypes="ccc" />
    <path
       style="font-variation-settings:normal;display:inline;fill:none;fill-opacity:1;stroke:#ff0000;stroke-width:1.588;stroke-linecap:butt;stroke-linejoin:miter;stroke-miterlimit:4;stroke-dasharray:none;stroke-dashoffset:0;stroke-opacity:1;stop-color:#000000"
       d="m 142.69645,167.31342 c -0.18137,-2.74887 0.12034,-5.45927 0.57617,-8.15407 0.72415,-3.60162 0.96557,-7.25689 0.79587,-10.92336 -0.0307,-2.62588 -0.0418,-5.25872 0.2214,-7.8747 -0.26168,-1.30889 -1.68689,-2.14655 -1.59344,-3.56397"
       id="path171-6" />
    <path
       style="font-variation-settings:normal;display:inline;fill:none;fill-opacity:1;stroke:#ff0000;stroke-width:1.588;stroke-linecap:butt;stroke-linejoin:miter;stroke-miterlimit:4;stroke-dasharray:none;stroke-dashoffset:0;stroke-opacity:1;stop-color:#000000"
       d="m 34.406101,168.71565 c 0.188865,1.73015 0.08964,3.9815 -0.693323,5.54811 -4.11819,8.2358 -5.234801,27.98735 -2.080708,37.44968 0.466882,1.40044 -0.652922,3.54855 0,4.85457 0.727708,1.45575 1.387139,3.12861 1.387139,4.8546"
       id="path172-9" />
    <path
       style="font-variation-settings:normal;display:inline;fill:none;fill-opacity:1;stroke:#ff0000;stroke-width:1.588;stroke-linecap:butt;stroke-linejoin:miter;stroke-miterlimit:4;stroke-dasharray:none;stroke-dashoffset:0;stroke-opacity:1;stop-color:#000000"
       d="m 81.564869,210.32641 c 4.114751,-0.17949 26.598521,0.44878 27.740551,-0.69352 0.78972,-0.78934 -0.10315,-2.08054 2.08083,-2.08054"
       id="path173-1" />
    <path
       style="font-variation-settings:normal;display:inline;fill:none;fill-opacity:1;stroke:#ff0000;stroke-width:1.588;stroke-linecap:butt;stroke-linejoin:miter;stroke-miterlimit:4;stroke-dasharray:none;stroke-dashoffset:0;stroke-opacity:1;stop-color:#000000"
       d="m 123.74082,26.099877 c 3.36261,-1.138494 4.57648,-0.704375 9.29368,0.168788 1.67473,0.541961 2.94865,0.764227 4.57746,1.492929 1.60768,1.023199 1.77321,1.13529 2.67935,1.948944 1.88717,1.791024 3.00207,4.188615 4.18524,6.459046 0.3636,1.113751 0.0712,2.327472 0.47768,3.440044 0.30013,1.321048 0.37773,2.749913 -0.20851,3.984228 -0.0847,0.953817 0.0319,1.994735 -0.6038,2.799634 0.0135,1.03333 -0.91301,1.636543 -1.3083,2.5505 -0.72734,1.365255 -1.5345,2.700523 -2.14149,4.123567"
       id="path1213"
       sodipodi:nodetypes="cccccccccc" />
  </g>
</svg>
