<?xml version="1.0" encoding="UTF-8" standalone="no"?>
<!-- Created with Inkscape (http://www.inkscape.org/) -->

<svg
   width="187.274mm"
   height="259mm"
   viewBox="0 0 187.274 259"
   version="1.1"
   id="svg1"
   inkscape:version="1.3.2 (091e20e, 2023-11-25)"
   sodipodi:docname="pirates.svg"
   xmlns:inkscape="http://www.inkscape.org/namespaces/inkscape"
   xmlns:sodipodi="http://sodipodi.sourceforge.net/DTD/sodipodi-0.dtd"
   xmlns="http://www.w3.org/2000/svg"
   xmlns:svg="http://www.w3.org/2000/svg">
  <sodipodi:namedview
     id="namedview1"
     pagecolor="#ffffff"
     bordercolor="#eeeeee"
     borderopacity="1"
     inkscape:showpageshadow="0"
     inkscape:pageopacity="0"
     inkscape:pagecheckerboard="0"
     inkscape:deskcolor="#505050"
     inkscape:document-units="mm"
     inkscape:zoom="0.38723101"
     inkscape:cx="295.68913"
     inkscape:cy="410.60761"
     inkscape:window-width="1472"
     inkscape:window-height="803"
     inkscape:window-x="336"
     inkscape:window-y="1117"
     inkscape:window-maximized="1"
     inkscape:current-layer="layer1" />
  <defs
     id="defs1" />
  <g
     inkscape:label="Layer 1"
     inkscape:groupmode="layer"
     id="layer1">
    <path
       style="font-variation-settings:normal;display:inline;vector-effect:none;fill:none;fill-opacity:1;stroke:#ff0000;stroke-width:1.91179;stroke-linecap:butt;stroke-linejoin:miter;stroke-miterlimit:4;stroke-dasharray:none;stroke-dashoffset:0;stroke-opacity:1;-inkscape-stroke:none;paint-order:stroke fill markers;stop-color:#000000"
       d="m 137.61937,16.110314 c 2.82159,10.610353 3.55932,22.112053 2.93631,33.233194 -0.68826,9.53345 -1.83533,19.913826 -7.89798,27.525696 -5.61055,6.781366 -15.65423,6.151935 -23.14959,3.76995 C 102.62115,77.183526 96.478656,70.475823 93.853875,63.70829 l -0.431841,-0.743125 -0.206923,-0.854124"
       id="path532-5"
       inkscape:export-filename="./pirates_cccb.svg"
       inkscape:export-xdpi="300"
       inkscape:export-ydpi="300" />
    <path
       style="font-variation-settings:normal;display:inline;vector-effect:none;fill:none;fill-opacity:1;stroke:#ff0000;stroke-width:1.91179;stroke-linecap:butt;stroke-linejoin:miter;stroke-miterlimit:4;stroke-dasharray:none;stroke-dashoffset:0;stroke-opacity:1;-inkscape-stroke:none;paint-order:stroke fill markers;stop-color:#000000"
       d="m 116.53565,82.555786 c -3.61442,3.68493 -5.7309,9.3651 -7.02754,13.736363"
       id="path670-9" />
    <path
       style="font-variation-settings:normal;display:inline;vector-effect:none;fill:none;fill-opacity:1;stroke:#ff0000;stroke-width:1.91179;stroke-linecap:butt;stroke-linejoin:miter;stroke-miterlimit:4;stroke-dasharray:none;stroke-dashoffset:0;stroke-opacity:1;-inkscape-stroke:none;paint-order:stroke fill markers;stop-color:#000000"
       d="m 25.491435,53.166424 c -6.78575,3.745771 -9.767027,10.631497 -9.62308,18.207717 1.270783,7.756719 1.418102,15.866103 1.318014,23.320764 2.358257,9.288735 11.899242,15.043465 20.988143,13.609055 7.884471,-0.68341 15.639614,-6.41228 18.304882,-13.609055 0.70624,-0.8178 0.481322,-4.342817 0,-2.875122"
       id="path751-8" />
    <path
       style="font-variation-settings:normal;display:inline;vector-effect:none;fill:none;fill-opacity:1;stroke:#ff0000;stroke-width:1.91179;stroke-linecap:butt;stroke-linejoin:miter;stroke-miterlimit:4;stroke-dasharray:none;stroke-dashoffset:0;stroke-opacity:1;-inkscape-stroke:none;paint-order:stroke fill markers;stop-color:#000000"
       d="m 55.520122,81.916909 c 6.200966,-10.830662 6.491109,5.306474 1.27753,7.02787"
       id="path808-9" />
    <path
       style="font-variation-settings:normal;display:inline;vector-effect:none;fill:none;fill-opacity:1;stroke:#ff0000;stroke-width:1.91179;stroke-linecap:butt;stroke-linejoin:miter;stroke-miterlimit:4;stroke-dasharray:none;stroke-dashoffset:0;stroke-opacity:1;-inkscape-stroke:none;paint-order:stroke fill markers;stop-color:#000000"
       d="m 25.491435,53.805414 c 5.242819,-4.804681 11.217743,-6.379662 18.688365,-5.750119 9.639949,1.004367 18.79745,10.23879 17.83368,20.426075 -0.127078,3.689315 -0.66463,7.230299 -1.382115,10.560536"
       id="path822-1" />
    <path
       style="font-variation-settings:normal;display:inline;vector-effect:none;fill:none;fill-opacity:1;stroke:#ff0000;stroke-width:1.91179;stroke-linecap:butt;stroke-linejoin:miter;stroke-miterlimit:4;stroke-dasharray:none;stroke-dashoffset:0;stroke-opacity:1;-inkscape-stroke:none;paint-order:stroke fill markers;stop-color:#000000"
       d="m 21.020082,103.32002 c -2.641651,6.88944 -3.669523,14.36929 -2.556183,21.88219 1.203307,9.8345 7.120876,18.18208 11.820521,26.99355 3.209567,7.69418 5.197835,15.41784 7.991306,23.40139 3.587428,8.2937 8.511988,16.15332 15.0627,22.28309 5.588067,7.59467 19.25853,4.81583 15.063826,-6.33546 -0.581411,-8.95462 -12.214125,-8.52436 -12.88213,-17.30703 -2.409987,-8.44159 -2.72712,-17.51115 -5.748882,-25.87549 -2.313272,-5.99055 -4.655784,-14.17112 -7.041031,-21.38287 -0.44646,-2.10972 -0.301388,-4.27229 -0.307012,-6.40913"
       id="path823-2" />
    <path
       style="font-variation-settings:normal;display:inline;vector-effect:none;fill:none;fill-opacity:1;stroke:#ff0000;stroke-width:1.91179;stroke-linecap:butt;stroke-linejoin:miter;stroke-miterlimit:4;stroke-dasharray:none;stroke-dashoffset:0;stroke-opacity:1;-inkscape-stroke:none;paint-order:stroke fill markers;stop-color:#000000"
       d="m 52.325175,102.36165 c 2.167077,1.09366 4.300415,1.58893 6.069388,3.1945"
       id="path824-8" />
    <path
       style="font-variation-settings:normal;display:inline;vector-effect:none;fill:none;fill-opacity:1;stroke:#ff0000;stroke-width:1.91179;stroke-linecap:butt;stroke-linejoin:miter;stroke-miterlimit:4;stroke-dasharray:none;stroke-dashoffset:0;stroke-opacity:1;-inkscape-stroke:none;paint-order:stroke fill markers;stop-color:#000000"
       d="m 41.784433,117.05627 c 8.386036,-7.48254 15.680098,-12.41812 25.133366,-17.756073 9.199111,-4.912311 19.057228,-10.783662 29.81164,-9.397044 6.879101,1.903813 14.931131,7.727143 20.444971,13.736257 0.88393,2.318 3.36589,4.95492 3.19495,7.34736"
       id="path1119-4" />
    <path
       style="font-variation-settings:normal;display:inline;vector-effect:none;fill:none;fill-opacity:1;stroke:#ff0000;stroke-width:1.91179;stroke-linecap:butt;stroke-linejoin:miter;stroke-miterlimit:4;stroke-dasharray:none;stroke-dashoffset:0;stroke-opacity:1;-inkscape-stroke:none;paint-order:stroke fill markers;stop-color:#000000"
       d="m 63.983754,158.96238 c 5.391264,-10.57346 2.492082,-3.90365 8.787513,-14.11399 5.369897,-10.54468 12.404181,-19.98333 21.571803,-27.55089 6.48324,-5.48426 16.5764,-7.47569 23.79062,-2.15786 -0.57917,0.89596 2.90254,0.97862 0.63876,1.91663"
       id="path1120-0"
       sodipodi:nodetypes="ccccc" />
    <path
       style="font-variation-settings:normal;display:inline;vector-effect:none;fill:none;fill-opacity:1;stroke:#ff0000;stroke-width:1.91179;stroke-linecap:butt;stroke-linejoin:miter;stroke-miterlimit:4;stroke-dasharray:none;stroke-dashoffset:0;stroke-opacity:1;-inkscape-stroke:none;paint-order:stroke fill markers;stop-color:#000000"
       d="m 77.882509,144.84839 c -1.613781,11.5234 -2.503328,23.15802 -2.557308,34.78523 -0.616273,10.56233 1.305644,18.67544 2.557308,28.78512 -1.073979,3.75916 1.582293,-1.0065 0.319382,2.55562"
       id="path1215-1" />
    <path
       style="font-variation-settings:normal;display:inline;vector-effect:none;fill:none;fill-opacity:1;stroke:#ff0000;stroke-width:1.91179;stroke-linecap:butt;stroke-linejoin:miter;stroke-miterlimit:4;stroke-dasharray:none;stroke-dashoffset:0;stroke-opacity:1;-inkscape-stroke:none;paint-order:stroke fill markers;stop-color:#000000"
       d="m 115.5775,141.01501 c 1.43272,9.99813 1.99951,19.97096 1.29665,30.03071 -0.2103,11.25665 -2.63379,22.31325 -3.53345,33.53965"
       id="path1216-4" />
    <path
       style="font-variation-settings:normal;display:inline;vector-effect:none;fill:none;fill-opacity:1;stroke:#ff0000;stroke-width:1.91179;stroke-linecap:butt;stroke-linejoin:miter;stroke-miterlimit:4;stroke-dasharray:none;stroke-dashoffset:0;stroke-opacity:1;-inkscape-stroke:none;paint-order:stroke fill markers;stop-color:#000000"
       d="m 78.201891,208.41874 c -0.163064,7.97197 -3.140968,18.17387 3.513207,24.27812 4.976291,4.82784 11.865502,6.12506 18.690612,3.99261 8.92359,-1.4542 15.95113,-7.95453 20.92067,-15.17324 5.45537,-6.47312 10.57673,-13.20488 16.61238,-19.48648 5.40476,-6.34739 8.83475,-10.60338 11.50002,-16.29188 2.45159,-4.02613 5.62067,-7.91404 8.62444,-11.81961"
       id="path1217-9" />
    <path
       style="font-variation-settings:normal;display:inline;vector-effect:none;fill:none;fill-opacity:1;stroke:#ff0000;stroke-width:1.91179;stroke-linecap:butt;stroke-linejoin:miter;stroke-miterlimit:4;stroke-dasharray:none;stroke-dashoffset:0;stroke-opacity:1;-inkscape-stroke:none;paint-order:stroke fill markers;stop-color:#000000"
       d="m 116.85503,188.29349 c 8.25558,-7.05891 17.00036,-13.93597 22.04075,-23.63923 l 1.1707,-1.56858 1.0661,-1.62592"
       id="path1218-5" />
    <path
       style="font-variation-settings:normal;display:inline;vector-effect:none;fill:none;fill-opacity:1;stroke:#ff0000;stroke-width:1.91179;stroke-linecap:butt;stroke-linejoin:miter;stroke-miterlimit:4;stroke-dasharray:none;stroke-dashoffset:0;stroke-opacity:1;-inkscape-stroke:none;paint-order:stroke fill markers;stop-color:#000000"
       d="m 121.96514,136.22327 c -0.62301,4.80714 -3.8562,9.27592 -5.42949,13.41686"
       id="path1219-9" />
    <path
       style="font-variation-settings:normal;display:inline;vector-effect:none;fill:none;fill-opacity:1;stroke:#ff0000;stroke-width:1.91179;stroke-linecap:butt;stroke-linejoin:miter;stroke-miterlimit:4;stroke-dasharray:none;stroke-dashoffset:0;stroke-opacity:1;-inkscape-stroke:none;paint-order:stroke fill markers;stop-color:#000000"
       d="m 117.49379,157.94577 c 3.07462,-6.28363 6.10987,-13.08051 8.30507,-19.80576"
       id="path1220-0" />
    <path
       style="font-variation-settings:normal;display:inline;vector-effect:none;fill:none;fill-opacity:1;stroke:#ff0000;stroke-width:1.91179;stroke-linecap:butt;stroke-linejoin:miter;stroke-miterlimit:4;stroke-dasharray:none;stroke-dashoffset:0;stroke-opacity:1;-inkscape-stroke:none;paint-order:stroke fill markers;stop-color:#000000"
       d="m 121.64688,109.38953 c 3.04201,-0.56454 3.09824,-11.517675 9.5826,-4.79176 6.51023,2.86354 8.99444,10.14917 7.34804,16.29188 -1.62164,5.71132 -5.03814,12.12832 -9.26433,15.65311 -8.42315,3.20326 -6.31793,-11.58357 -7.66631,-16.29199 -1.28539,-3.57235 -1.17968,-7.33534 0.95815,-10.54175"
       id="path1221-2" />
    <path
       style="font-variation-settings:normal;display:inline;vector-effect:none;fill:none;fill-opacity:1;stroke:#ff0000;stroke-width:1.91179;stroke-linecap:butt;stroke-linejoin:miter;stroke-miterlimit:4;stroke-dasharray:none;stroke-dashoffset:0;stroke-opacity:1;-inkscape-stroke:none;paint-order:stroke fill markers;stop-color:#000000"
       d="m 122.28565,122.16752 c 3.01839,6.57781 14.01459,-8.05023 12.77755,-12.13911"
       id="path1222-3" />
    <path
       style="font-variation-settings:normal;display:inline;vector-effect:none;fill:none;fill-opacity:1;stroke:#ff0000;stroke-width:1.91179;stroke-linecap:butt;stroke-linejoin:miter;stroke-miterlimit:4;stroke-dasharray:none;stroke-dashoffset:0;stroke-opacity:1;-inkscape-stroke:none;paint-order:stroke fill markers;stop-color:#000000"
       d="m 120.36823,113.86177 c 2.18282,10.59619 9.89073,-1.3649 11.8194,-4.79174"
       id="path1223-5" />
    <path
       style="font-variation-settings:normal;display:inline;vector-effect:none;fill:none;fill-opacity:1;stroke:#ff0000;stroke-width:1.91179;stroke-linecap:butt;stroke-linejoin:miter;stroke-miterlimit:4;stroke-dasharray:none;stroke-dashoffset:0;stroke-opacity:1;-inkscape-stroke:none;paint-order:stroke fill markers;stop-color:#000000"
       d="m 123.2438,128.23702 c 1.45858,5.53982 6.37527,-2.11568 7.34691,-3.51388"
       id="path1224-9" />
    <path
       style="font-variation-settings:normal;display:inline;vector-effect:none;fill:none;fill-opacity:1;stroke:#ff0000;stroke-width:1.91179;stroke-linecap:butt;stroke-linejoin:miter;stroke-miterlimit:4;stroke-dasharray:none;stroke-dashoffset:0;stroke-opacity:1;-inkscape-stroke:none;paint-order:stroke fill markers;stop-color:#000000"
       d="m 63.178551,157.53506 c 4.99541,-9.54862 3.750493,-10.53242 8.926961,-19.56778 5.049391,-8.99253 11.562991,-16.9031 19.352995,-23.62631 6.804871,-6.70197 16.943013,-9.03515 26.035283,-6.2292"
       id="path1225-01"
       sodipodi:nodetypes="cccc" />
    <path
       style="font-variation-settings:normal;display:inline;vector-effect:none;fill:none;fill-opacity:1;stroke:#ff0000;stroke-width:1.91179;stroke-linecap:butt;stroke-linejoin:miter;stroke-miterlimit:4;stroke-dasharray:none;stroke-dashoffset:0;stroke-opacity:1;-inkscape-stroke:none;paint-order:stroke fill markers;stop-color:#000000"
       d="m 43.700727,120.88965 c 8.490621,-3.01152 15.368588,-9.17684 22.477094,-14.34735 10.590224,-6.22424 21.532442,-14.808657 34.384209,-13.444649 4.70526,1.009762 8.80439,3.721925 12.13878,7.347249"
       id="path1226-3" />
    <path
       style="font-variation-settings:normal;display:inline;vector-effect:none;fill:none;fill-opacity:1;stroke:#ff0000;stroke-width:1.91179;stroke-linecap:butt;stroke-linejoin:miter;stroke-miterlimit:4;stroke-dasharray:none;stroke-dashoffset:0;stroke-opacity:1;-inkscape-stroke:none;paint-order:stroke fill markers;stop-color:#000000"
       d="m 46.576292,132.0704 c 10.959088,-11.28196 20.620404,-24.75146 35.27713,-31.35627 8.305064,-3.853731 19.527298,-8.044155 27.972948,-2.824727"
       id="path1227-6" />
    <path
       style="font-variation-settings:normal;display:inline;vector-effect:none;fill:none;fill-opacity:1;stroke:#ff0000;stroke-width:1.91179;stroke-linecap:butt;stroke-linejoin:miter;stroke-miterlimit:4;stroke-dasharray:none;stroke-dashoffset:0;stroke-opacity:1;-inkscape-stroke:none;paint-order:stroke fill markers;stop-color:#000000"
       d="m 52.006917,148.68177 c 4.83122,-7.83736 10.982704,-12.66273 15.683472,-20.74468 5.300172,-7.63976 8.869608,-17.50867 17.795444,-21.85159 0.724233,-0.22594 5.202334,-3.2053 3.896689,-0.52935"
       id="path1228-9" />
    <path
       style="font-variation-settings:normal;display:inline;vector-effect:none;fill:none;fill-opacity:1;stroke:#ff0000;stroke-width:1.91179;stroke-linecap:butt;stroke-linejoin:miter;stroke-miterlimit:4;stroke-dasharray:none;stroke-dashoffset:0;stroke-opacity:1;-inkscape-stroke:none;paint-order:stroke fill markers;stop-color:#000000"
       d="m 48.811968,136.54276 c 2.641653,-2.77289 5.782621,-5.75394 9.582595,-6.7085"
       id="path1229-0" />
    <path
       style="font-variation-settings:normal;display:inline;vector-effect:none;fill:none;fill-opacity:1;stroke:#ff0000;stroke-width:1.91179;stroke-linecap:butt;stroke-linejoin:miter;stroke-miterlimit:4;stroke-dasharray:none;stroke-dashoffset:0;stroke-opacity:1;-inkscape-stroke:none;paint-order:stroke fill markers;stop-color:#000000"
       d="m 50.410005,142.29276 c 8.0779,-7.19544 14.017961,-16.8464 21.403115,-24.91699 3.015014,-4.42356 7.64156,-7.41226 12.138778,-10.22237"
       id="path1230-4" />
    <path
       style="font-variation-settings:normal;display:inline;vector-effect:none;fill:none;fill-opacity:1;stroke:#ff0000;stroke-width:1.91179;stroke-linecap:butt;stroke-linejoin:miter;stroke-miterlimit:4;stroke-dasharray:none;stroke-dashoffset:0;stroke-opacity:1;-inkscape-stroke:none;paint-order:stroke fill markers;stop-color:#000000"
       d="m 86.826339,108.75065 c -9.939088,8.17956 -15.153793,20.26796 -20.444968,31.62548 -2.017507,7.90629 -5.012279,9.37185 -8.227469,16.0691 -0.723108,0.33118 0.537552,-1.12346 0.188931,0.15339"
       id="path1231-0"
       sodipodi:nodetypes="cccc" />
    <path
       style="font-variation-settings:normal;display:inline;vector-effect:none;fill:none;fill-opacity:1;stroke:#ff0000;stroke-width:1.91179;stroke-linecap:butt;stroke-linejoin:miter;stroke-miterlimit:4;stroke-dasharray:none;stroke-dashoffset:0;stroke-opacity:1;-inkscape-stroke:none;paint-order:stroke fill markers;stop-color:#000000"
       d="m 59.235754,156.97097 c 3.086987,-8.99511 2.692258,-4.05357 6.948815,-12.45411 4.35552,-8.00536 7.719156,-13.91461 12.027443,-21.04482 4.894198,-7.69352 12.556,-13.33625 19.824201,-18.62527 l 1.248286,-0.249"
       id="path1232-2"
       sodipodi:nodetypes="ccccc" />
    <path
       style="font-variation-settings:normal;display:inline;vector-effect:none;fill:none;fill-opacity:1;stroke:#ff0000;stroke-width:1.91179;stroke-linecap:butt;stroke-linejoin:miter;stroke-miterlimit:4;stroke-dasharray:none;stroke-dashoffset:0;stroke-opacity:1;-inkscape-stroke:none;paint-order:stroke fill markers;stop-color:#000000"
       d="m 40.186396,205.54374 c 10.797148,2.85959 17.407462,11.78093 15.019966,23.4647 -0.322755,3.39153 0.271026,6.70254 0.31376,10.07741"
       id="path1236-90" />
    <path
       style="font-variation-settings:normal;display:inline;vector-effect:none;fill:none;fill-opacity:1;stroke:#ff0000;stroke-width:1.91179;stroke-linecap:butt;stroke-linejoin:miter;stroke-miterlimit:4;stroke-dasharray:none;stroke-dashoffset:0;stroke-opacity:1;-inkscape-stroke:none;paint-order:stroke fill markers;stop-color:#000000"
       d="m 66.779475,201.71553 c 5.148353,9.55235 -0.835567,19.92901 0.369988,29.62856 3.343394,1.7764 15.465302,15.94708 3.911309,15.75691 -6.027779,-0.18015 -12.399682,-0.87267 -16.488675,-5.62787"
       id="path1237-21" />
    <path
       style="font-variation-settings:normal;display:inline;vector-effect:none;fill:none;fill-opacity:1;stroke:#ff0000;stroke-width:1.91179;stroke-linecap:butt;stroke-linejoin:miter;stroke-miterlimit:4;stroke-dasharray:none;stroke-dashoffset:0;stroke-opacity:1;-inkscape-stroke:none;paint-order:stroke fill markers;stop-color:#000000"
       d="m 136.98061,124.40364 c -1.52494,7.03766 7.93508,8.18182 8.87411,14.70598 5.38226,10.55863 9.67031,21.51794 12.34008,33.04101 0.7962,6.48469 2.17832,13.25245 1.46533,19.65675"
       id="path1249-3" />
    <path
       style="font-variation-settings:normal;display:inline;vector-effect:none;fill:none;fill-opacity:1;stroke:#ff0000;stroke-width:1.91179;stroke-linecap:butt;stroke-linejoin:miter;stroke-miterlimit:4;stroke-dasharray:none;stroke-dashoffset:0;stroke-opacity:1;-inkscape-stroke:none;paint-order:stroke fill markers;stop-color:#000000"
       d="m 137.3,108.75065 c 7.77426,-9.819994 22.34102,-2.41246 24.24494,8.2909 3.61554,8.47701 7.15236,16.9593 10.57448,25.57072 3.34789,6.65349 14.03033,20.53808 2.55618,24.27811 -6.6373,2.62726 -7.61344,8.28617 -5.43062,14.05574 -2.73837,4.0556 -7.72141,11.22607 -10.22361,12.778"
       id="path1250-2" />
    <path
       style="font-variation-settings:normal;display:inline;vector-effect:none;fill:none;fill-opacity:1;stroke:#ff0000;stroke-width:1.91179;stroke-linecap:butt;stroke-linejoin:miter;stroke-miterlimit:4;stroke-dasharray:none;stroke-dashoffset:0;stroke-opacity:1;-inkscape-stroke:none;paint-order:stroke fill markers;stop-color:#000000"
       d="m 161.89693,134.30652 c -3.90231,-7.95835 -8.3208,-23.43445 -20.021,-16.58213 -7.09275,6.75448 8.9562,11.91533 10.15277,19.95893 6.13349,8.77908 9.478,19.29417 12.42442,29.52655"
       id="path1251-9" />
    <path
       style="font-variation-settings:normal;display:inline;vector-effect:none;fill:none;fill-opacity:1;stroke:#ff0000;stroke-width:1.91179;stroke-linecap:butt;stroke-linejoin:miter;stroke-miterlimit:4;stroke-dasharray:none;stroke-dashoffset:0;stroke-opacity:1;-inkscape-stroke:none;paint-order:stroke fill markers;stop-color:#000000"
       d="m 141.77247,117.05627 c -2.37512,-6.78856 8.74365,-9.39793 10.54074,-2.875"
       id="path1252-7" />
    <path
       style="font-variation-settings:normal;display:inline;vector-effect:none;fill:none;fill-opacity:1;stroke:#ff0000;stroke-width:1.91179;stroke-linecap:butt;stroke-linejoin:miter;stroke-miterlimit:4;stroke-dasharray:none;stroke-dashoffset:0;stroke-opacity:1;-inkscape-stroke:none;paint-order:stroke fill markers;stop-color:#000000"
       d="m 136.34185,106.83391 c 0.09,-8.200148 -8.801,-14.587234 -16.293,-12.458499 -5.66454,3.130733 -4.15647,4.47641 0.56679,6.768759 1.95453,0.84244 3.92368,8.35196 2.62816,6.9676"
       id="path1253-3" />
    <path
       style="font-variation-settings:normal;display:inline;vector-effect:none;fill:none;fill-opacity:1;stroke:#ff0000;stroke-width:1.91179;stroke-linecap:butt;stroke-linejoin:miter;stroke-miterlimit:4;stroke-dasharray:none;stroke-dashoffset:0;stroke-opacity:1;-inkscape-stroke:none;paint-order:stroke fill markers;stop-color:#000000"
       d="m 120.04885,94.694905 c 2.72825,1.326553 8.05428,5.249557 6.06939,8.625115"
       id="path1254-4" />
    <path
       style="font-variation-settings:normal;display:inline;vector-effect:none;fill:none;fill-opacity:1;stroke:#ff0000;stroke-width:1.91179;stroke-linecap:butt;stroke-linejoin:miter;stroke-miterlimit:4;stroke-dasharray:none;stroke-dashoffset:0;stroke-opacity:1;-inkscape-stroke:none;paint-order:stroke fill markers;stop-color:#000000"
       d="m 128.9938,95.653268 c 2.08611,1.521455 3.43449,4.115986 2.55619,6.708382"
       id="path1255-8" />
    <path
       style="font-variation-settings:normal;display:inline;vector-effect:none;fill:none;fill-opacity:1;stroke:#ff0000;stroke-width:1.91179;stroke-linecap:butt;stroke-linejoin:miter;stroke-miterlimit:4;stroke-dasharray:none;stroke-dashoffset:0;stroke-opacity:1;-inkscape-stroke:none;paint-order:stroke fill markers;stop-color:#000000"
       d="m 137.3,127.59814 c -8.14426,9.81471 -3.03752,21.59115 -3.83371,32.58386 -0.28566,4.5873 -2.9914,9.09363 -3.51434,13.41687"
       id="path1256-6" />
    <path
       style="font-variation-settings:normal;display:inline;vector-effect:none;fill:none;fill-opacity:1;stroke:#ff0000;stroke-width:1.91179;stroke-linecap:butt;stroke-linejoin:miter;stroke-miterlimit:4;stroke-dasharray:none;stroke-dashoffset:0;stroke-opacity:1;-inkscape-stroke:none;paint-order:stroke fill markers;stop-color:#000000"
       d="m 136.34185,159.8625 c -0.20805,5.90768 2.40886,-8.45575 1.16507,-10.21236 -1.86007,-4.22282 -1.37087,-17.65667 1.38886,-15.02412 0.72986,4.80018 3.88432,8.99713 3.19495,14.05575"
       id="path1257-1" />
    <path
       style="font-variation-settings:normal;display:inline;vector-effect:none;fill:none;fill-opacity:1;stroke:#ff0000;stroke-width:1.91179;stroke-linecap:butt;stroke-linejoin:miter;stroke-miterlimit:4;stroke-dasharray:none;stroke-dashoffset:0;stroke-opacity:1;-inkscape-stroke:none;paint-order:stroke fill markers;stop-color:#000000"
       d="m 138.25815,140.05664 c 1.02337,7.14517 3.7966,15.09745 0.31937,22.04199"
       id="path1258-1" />
    <path
       style="font-variation-settings:normal;display:inline;vector-effect:none;fill:none;fill-opacity:1;stroke:#ff0000;stroke-width:1.91179;stroke-linecap:butt;stroke-linejoin:miter;stroke-miterlimit:4;stroke-dasharray:none;stroke-dashoffset:0;stroke-opacity:1;-inkscape-stroke:none;paint-order:stroke fill markers;stop-color:#000000"
       d="m 147.52135,141.97338 c 1.60591,6.85155 -5.64767,14.19779 4.64905,16.86935 1.65875,1.3531 4.10473,2.40819 4.29704,4.85315"
       id="path1259-5" />
    <path
       style="font-variation-settings:normal;display:inline;vector-effect:none;fill:none;fill-opacity:1;stroke:#ff0000;stroke-width:1.91179;stroke-linecap:butt;stroke-linejoin:miter;stroke-miterlimit:4;stroke-dasharray:none;stroke-dashoffset:0;stroke-opacity:1;-inkscape-stroke:none;paint-order:stroke fill markers;stop-color:#000000"
       d="m 141.45197,161.45976 c 1.53281,-2.27516 3.6639,-4.17649 4.79186,-6.70849"
       id="path1260-6" />
    <path
       style="font-variation-settings:normal;display:inline;vector-effect:none;fill:none;fill-opacity:1;stroke:#ff0000;stroke-width:1.91179;stroke-linecap:butt;stroke-linejoin:miter;stroke-miterlimit:4;stroke-dasharray:none;stroke-dashoffset:0;stroke-opacity:1;-inkscape-stroke:none;paint-order:stroke fill markers;stop-color:#000000"
       d="m 157.74496,107.79227 c 9.97171,5.14824 16.71809,15.26063 15.25501,26.84139 1.1392,4.27838 0.334,8.22578 1.35513,12.45085"
       id="path1261-98" />
    <path
       style="font-variation-settings:normal;display:inline;vector-effect:none;fill:none;fill-opacity:1;stroke:#ff0000;stroke-width:1.91179;stroke-linecap:butt;stroke-linejoin:miter;stroke-miterlimit:4;stroke-dasharray:none;stroke-dashoffset:0;stroke-opacity:1;-inkscape-stroke:none;paint-order:stroke fill markers;stop-color:#000000"
       d="m 150.39693,184.14062 c 2.70125,10.90275 -0.80521,21.76164 -3.51434,32.26436 0.0113,2.63536 -1.65651,7.29497 -1.9163,8.62513"
       id="path1262-02" />
    <path
       style="font-variation-settings:normal;display:inline;vector-effect:none;fill:none;fill-opacity:1;stroke:#ff0000;stroke-width:1.91179;stroke-linecap:butt;stroke-linejoin:miter;stroke-miterlimit:4;stroke-dasharray:none;stroke-dashoffset:0;stroke-opacity:1;-inkscape-stroke:none;paint-order:stroke fill markers;stop-color:#000000"
       d="m 89.382522,38.152306 c -4.750249,-7.115929 -6.166103,10.542428 -0.638764,9.264112"
       id="path1263-2" />
    <path
       style="font-variation-settings:normal;display:inline;vector-effect:none;fill:none;fill-opacity:1;stroke:#ff0000;stroke-width:1.91179;stroke-linecap:butt;stroke-linejoin:miter;stroke-miterlimit:4;stroke-dasharray:none;stroke-dashoffset:0;stroke-opacity:1;-inkscape-stroke:none;paint-order:stroke fill markers;stop-color:#000000"
       d="m 87.784486,64.986044 c -0.579162,6.873356 -1.568796,15.854861 -9.474634,18.455353 -8.411901,2.5103 -15.232513,8.016385 -21.188319,14.124576 l -1.280903,1.60118"
       id="path1264-6" />
    <path
       style="font-variation-settings:normal;display:inline;vector-effect:none;fill:none;fill-opacity:1;stroke:#ff0000;stroke-width:1.91179;stroke-linecap:butt;stroke-linejoin:miter;stroke-miterlimit:4;stroke-dasharray:none;stroke-dashoffset:0;stroke-opacity:1;-inkscape-stroke:none;paint-order:stroke fill markers;stop-color:#000000"
       d="m 14.950694,132.70927 c 1.53056,1.4162 3.857328,1.79776 5.750006,0.95837"
       id="path1267-1" />
    <path
       style="font-variation-settings:normal;display:inline;vector-effect:none;fill:none;fill-opacity:1;stroke:#ff0000;stroke-width:1.91179;stroke-linecap:butt;stroke-linejoin:miter;stroke-miterlimit:4;stroke-dasharray:none;stroke-dashoffset:0;stroke-opacity:1;-inkscape-stroke:none;paint-order:stroke fill markers;stop-color:#000000"
       d="m 14.311928,136.86214 c 0.449835,2.11805 2.830583,2.42967 4.471353,1.59725"
       id="path1268-2" />
    <path
       style="font-variation-settings:normal;display:inline;vector-effect:none;fill:none;fill-opacity:1;stroke:#ff0000;stroke-width:1.91179;stroke-linecap:butt;stroke-linejoin:miter;stroke-miterlimit:4;stroke-dasharray:none;stroke-dashoffset:0;stroke-opacity:1;-inkscape-stroke:none;paint-order:stroke fill markers;stop-color:#000000"
       d="m 122.95928,127.34073 c -0.93678,2.92616 -3.38051,14.87737 -7.14112,14.87737"
       id="path1534" />
    <path
       style="font-variation-settings:normal;display:inline;vector-effect:none;fill:none;fill-opacity:1;stroke:#ff0000;stroke-width:1.91179;stroke-linecap:butt;stroke-linejoin:miter;stroke-miterlimit:4;stroke-dasharray:none;stroke-dashoffset:0;stroke-opacity:1;-inkscape-stroke:none;paint-order:stroke fill markers;stop-color:#000000"
       d="m 76.542003,156.79778 c -1.790341,-0.28879 -3.108355,0.31973 -4.760371,0.59514 -1.39786,0.2329 -3.046503,0 -4.463481,0 -3.140968,0 -6.467492,0.3132 -9.520742,-0.29757 -1.026748,-0.20512 -2.117596,-0.46333 -2.975654,-0.89258 -0.312635,-0.1561 -1.250539,0.23751 -1.487827,0 -0.06748,-0.0697 0,-0.19838 0,-0.29757"
       id="path1535" />
    <path
       style="font-variation-settings:normal;display:inline;vector-effect:none;fill:none;fill-opacity:1;stroke:#ff0000;stroke-width:1.91179;stroke-linecap:butt;stroke-linejoin:miter;stroke-miterlimit:4;stroke-dasharray:none;stroke-dashoffset:0;stroke-opacity:1;-inkscape-stroke:none;paint-order:stroke fill markers;stop-color:#000000"
       d="m 30.124728,152.92977 c -1.305644,0.0449 -2.622534,0.0135 -3.86745,-0.29756 -0.389107,-0.0967 -1.259536,-0.75549 -1.487827,-0.8927 -0.7456,-0.44713 -1.617154,-0.51067 -2.380748,-0.89258 -0.376736,-0.18826 -0.555545,-0.64023 -0.892921,-0.8927 -0.900793,-0.6761 -2.284033,-1.42372 -3.272544,-2.08284 -0.10121,-0.099 -0.197927,-0.19827 -0.298015,-0.29745 0,-0.099 0.06748,-0.22751 0,-0.29757 -0.10121,-0.099 -1.014376,-0.50731 -1.189812,-0.59513 -0.654509,-0.32726 -2.082733,-2.1898 -2.082733,-2.67786"
       id="path1536" />
    <path
       style="font-variation-settings:normal;display:inline;vector-effect:none;fill:none;fill-opacity:1;stroke:#ff0000;stroke-width:1.91179;stroke-linecap:butt;stroke-linejoin:miter;stroke-miterlimit:4;stroke-dasharray:none;stroke-dashoffset:0;stroke-opacity:1;-inkscape-stroke:none;paint-order:stroke fill markers;stop-color:#000000"
       d="m 17.033426,117.52163 c -0.840066,4.71314 -2.325644,9.24466 -3.273669,13.98479 -0.386857,1.93574 0.05622,5.05906 -0.29689,6.84355 -0.332878,1.66393 -0.930033,3.38321 -1.487827,5.05827 -0.753473,0.67127 0.250782,1.62762 0,2.38042 -0.04499,0.13303 -0.253032,0.1644 -0.298015,0.29745 -0.179935,0.53979 -0.158567,1.2286 -0.296891,1.78528 -0.112459,0.43038 -0.508313,0.75527 -0.596031,1.19026 -0.05622,0.29171 0.05623,0.60087 0,0.89258 -0.08997,0.43499 -0.486946,0.75988 -0.594906,1.19026 -0.10121,0.38483 0.06748,0.79879 0,1.19015 -0.10121,0.39675 -0.1979266,0.79351 -0.2968906,1.19015 -0.1012101,0.19838 -0.2440346,0.38 -0.2980151,0.59513 -0.1641895,0.65643 -0.1641895,1.41596 -0.2968909,2.08285 -0.1237035,0.61503 -0.4925677,1.16653 -0.5960301,1.78528 -0.3474971,2.09049 -0.8366914,4.1333 -1.189811,6.24842 -0.2350388,1.40764 0,3.03245 0,4.46326 0,1.73726 -0.2451598,3.64264 0,5.35584 0.9356543,6.55104 3.1252237,13.16765 6.8431037,18.74537 0.16194,0.24225 2.181696,2.52875 2.380748,2.67798 0.177685,0.13304 0.438588,0.14069 0.594906,0.29757 0.886173,0.88606 -0.444212,0.38753 0.892921,1.19015 0.268776,0.16137 0.647761,0.10125 0.892921,0.29756 0.278897,0.22335 0.341873,0.63978 0.594906,0.89258 0.85356,0.85334 2.488708,1.83972 3.570559,2.38042 1.194311,0.59692 2.168202,0.95623 3.272544,1.78528"
       id="path1537" />
    <path
       style="font-variation-settings:normal;display:inline;vector-effect:none;fill:none;fill-opacity:1;stroke:#ff0000;stroke-width:1.91179;stroke-linecap:butt;stroke-linejoin:miter;stroke-miterlimit:4;stroke-dasharray:none;stroke-dashoffset:0;stroke-opacity:1;-inkscape-stroke:none;paint-order:stroke fill markers;stop-color:#000000"
       d="m 75.650207,160.66591 c -1.845445,-1.21219 -1.291024,1.17092 -2.082733,1.48771 -2.694507,1.0777 -5.535211,1.87896 -8.332056,2.67798 -1.66776,0.47649 -3.320901,1.27056 -5.058386,1.48772 -0.852436,0.10683 -1.811708,0 -2.677639,0"
       id="path1539" />
    <path
       style="font-variation-settings:normal;display:inline;vector-effect:none;fill:none;fill-opacity:1;stroke:#ff0000;stroke-width:1.91179;stroke-linecap:butt;stroke-linejoin:miter;stroke-miterlimit:4;stroke-dasharray:none;stroke-dashoffset:0;stroke-opacity:1;-inkscape-stroke:none;paint-order:stroke fill markers;stop-color:#000000"
       d="m 39.26761,205.27969 c 0.83894,-0.13822 1.866812,-0.38394 2.736117,-0.21041 2.421233,0.48447 4.172213,-0.16127 6.521473,-0.63112 1.249414,-0.24988 2.53819,-0.42295 3.787604,-0.63123 1.320264,-0.21997 2.562931,-0.98323 3.78648,-1.47276 0.628643,-0.25123 1.267408,-0.26417 1.893803,-0.42082 0.962645,-0.24055 2.171575,-1.05194 3.156711,-1.05194"
       id="path1540" />
    <path
       style="font-variation-settings:normal;display:inline;vector-effect:none;fill:none;fill-opacity:1;stroke:#ff0000;stroke-width:1.91179;stroke-linecap:butt;stroke-linejoin:miter;stroke-miterlimit:4;stroke-dasharray:none;stroke-dashoffset:0;stroke-opacity:1;-inkscape-stroke:none;paint-order:stroke fill markers;stop-color:#000000"
       d="m 69.144479,196.44303 c 1.195434,-0.66812 2.493206,-1.08095 3.576181,-1.89358 0.238413,-0.17847 0.384609,-0.46614 0.632018,-0.63123 0.260903,-0.17398 0.590408,-0.23256 0.84119,-0.4207 0.576912,-0.43274 0.921036,-1.05206 1.683505,-1.05206"
       id="path1541" />
    <path
       style="font-variation-settings:normal;display:inline;vector-effect:none;fill:none;fill-opacity:1;stroke:#ff0000;stroke-width:1.91179;stroke-linecap:butt;stroke-linejoin:miter;stroke-miterlimit:4;stroke-dasharray:none;stroke-dashoffset:0;stroke-opacity:1;-inkscape-stroke:none;paint-order:stroke fill markers;stop-color:#000000"
       d="m 74.193868,167.40825 c -4.792985,0.90687 -9.371172,3.36634 -14.306979,3.36634"
       id="path1542" />
    <path
       style="font-variation-settings:normal;display:inline;vector-effect:none;fill:none;fill-opacity:1;stroke:#ff0000;stroke-width:1.91179;stroke-linecap:butt;stroke-linejoin:miter;stroke-miterlimit:4;stroke-dasharray:none;stroke-dashoffset:0;stroke-opacity:1;-inkscape-stroke:none;paint-order:stroke fill markers;stop-color:#000000"
       d="m 74.193868,185.92321 c -0.869305,1.62434 -2.306525,2.75085 -3.787604,3.78715 -0.70624,0.49448 -1.329261,1.08568 -2.102976,1.47275"
       id="path1543" />
    <path
       style="font-variation-settings:normal;display:inline;vector-effect:none;fill:none;fill-opacity:1;stroke:#ff0000;stroke-width:1.91179;stroke-linecap:butt;stroke-linejoin:miter;stroke-miterlimit:4;stroke-dasharray:none;stroke-dashoffset:0;stroke-opacity:1;-inkscape-stroke:none;paint-order:stroke fill markers;stop-color:#000000"
       d="m 13.178346,146.78931 c 0.62527,1.23637 2.048996,1.20769 2.946415,2.10398 0.178809,0.17882 0.222668,0.47323 0.420595,0.63113 0.173186,0.13855 0.432965,0.11132 0.630892,0.2104 0.809702,0.40485 1.502447,1.06679 2.314398,1.47276 0.197927,0.099 0.440837,0.0967 0.630892,0.21041 0.511687,0.30657 0.961521,0.74549 1.473208,1.05205 1.302269,0.78137 2.860946,1.00988 4.208199,1.68317 0.67925,0.33985 1.318014,0.72941 2.1041,0.84153 0.276649,0.0394 0.562293,-0.0349 0.841191,0 1.337131,0.16723 3.353514,0.63775 4.628793,0"
       id="path1544" />
    <path
       style="font-variation-settings:normal;display:inline;vector-effect:none;fill:none;fill-opacity:1;stroke:#ff0000;stroke-width:1.91179;stroke-linecap:butt;stroke-linejoin:miter;stroke-miterlimit:4;stroke-dasharray:none;stroke-dashoffset:0;stroke-opacity:1;-inkscape-stroke:none;paint-order:stroke fill markers;stop-color:#000000"
       d="m 16.124761,153.52198 c 2.196316,1.95644 5.079754,1.84859 7.784382,2.52481 1.189811,0.29756 2.339138,0.71782 3.576182,0.84153 0.349746,0.0349 0.703991,-0.0439 1.052612,0 0.526306,0.0652 0.862558,0.60963 1.261786,0.21041"
       id="path1545" />
    <path
       style="font-variation-settings:normal;display:inline;vector-effect:none;fill:none;fill-opacity:1;stroke:#ff0000;stroke-width:1.91179;stroke-linecap:butt;stroke-linejoin:miter;stroke-miterlimit:4;stroke-dasharray:none;stroke-dashoffset:0;stroke-opacity:1;-inkscape-stroke:none;paint-order:stroke fill markers;stop-color:#000000"
       d="m 54.627201,158.78189 c 2.62141,0.85165 5.420504,1.30519 8.204978,1.05205 1.086349,-0.099 2.135588,-0.50157 3.156712,-0.84164 1.268532,-0.42296 2.683261,-0.49977 3.996777,-0.63112 0.635391,-0.0641 3.787604,0.12472 3.787604,-0.42082"
       id="path1546" />
    <path
       style="font-variation-settings:normal;display:inline;vector-effect:none;fill:none;fill-opacity:1;stroke:#ff0000;stroke-width:1.91179;stroke-linecap:butt;stroke-linejoin:miter;stroke-miterlimit:4;stroke-dasharray:none;stroke-dashoffset:0;stroke-opacity:1;-inkscape-stroke:none;paint-order:stroke fill markers;stop-color:#000000"
       d="m 73.562975,160.04435 c -0.281146,0 -0.564542,-0.0394 -0.842315,0 -1.265158,0.18072 -2.568553,0.89697 -3.78648,1.26235 -1.893802,0.56814 -3.743745,1.12054 -5.680282,1.47276 -0.423968,0.0765 -1.3585,0.53575 -1.683505,0.21041"
       id="path1547" />
    <path
       style="font-variation-settings:normal;display:inline;vector-effect:none;fill:none;fill-opacity:1;stroke:#ff0000;stroke-width:1.91179;stroke-linecap:butt;stroke-linejoin:miter;stroke-miterlimit:4;stroke-dasharray:none;stroke-dashoffset:0;stroke-opacity:1;-inkscape-stroke:none;paint-order:stroke fill markers;stop-color:#000000"
       d="m 74.404165,165.09385 c -0.280021,0.0697 -0.573538,0.1035 -0.84119,0.21041 -0.283395,0.11303 -0.58141,0.45748 -0.842315,0.63123 -0.4712,0.31466 -1.744232,0.8241 -2.314396,1.05194 -2.639403,1.05599 -5.460989,1.41788 -8.204978,2.10399"
       id="path1548" />
    <path
       style="font-variation-settings:normal;display:inline;vector-effect:none;fill:none;fill-opacity:1;stroke:#ff0000;stroke-width:1.91179;stroke-linecap:butt;stroke-linejoin:miter;stroke-miterlimit:4;stroke-dasharray:none;stroke-dashoffset:0;stroke-opacity:1;-inkscape-stroke:none;paint-order:stroke fill markers;stop-color:#000000"
       d="m 9.7247435,156.00191 c 0.3137595,0.37742 0.8951705,0.33727 1.2617855,0.63124 3.232059,2.58553 6.75651,3.84968 10.730796,5.2599 2.071487,0.73515 4.19358,0.69882 6.3123,1.05194 0.818699,0.13664 5.11574,0.56466 5.680282,0"
       id="path1549" />
    <path
       style="font-variation-settings:normal;display:inline;vector-effect:none;fill:none;fill-opacity:1;stroke:#ff0000;stroke-width:1.91179;stroke-linecap:butt;stroke-linejoin:miter;stroke-miterlimit:4;stroke-dasharray:none;stroke-dashoffset:0;stroke-opacity:1;-inkscape-stroke:none;paint-order:stroke fill markers;stop-color:#000000"
       d="m 22.225639,169.30183 c 2.467341,1.1771 5.29005,1.26235 7.995803,1.26235 0.546549,0 1.357375,0.13405 1.892678,0 0.705115,-0.17611 1.356251,-0.42082 2.1041,-0.42082"
       id="path1550" />
    <path
       style="font-variation-settings:normal;display:inline;vector-effect:none;fill:none;fill-opacity:1;stroke:#ff0000;stroke-width:1.91179;stroke-linecap:butt;stroke-linejoin:miter;stroke-miterlimit:4;stroke-dasharray:none;stroke-dashoffset:0;stroke-opacity:1;-inkscape-stroke:none;paint-order:stroke fill markers;stop-color:#000000"
       d="m 66.199188,182.55687 c 0.420595,0 0.843439,0.0461 1.261786,0 1.442843,-0.16037 4.812101,-2.25918 5.471109,-3.57686"
       id="path1551" />
    <path
       style="font-variation-settings:normal;display:inline;vector-effect:none;fill:none;fill-opacity:1;stroke:#ff0000;stroke-width:1.91179;stroke-linecap:butt;stroke-linejoin:miter;stroke-miterlimit:4;stroke-dasharray:none;stroke-dashoffset:0;stroke-opacity:1;-inkscape-stroke:none;paint-order:stroke fill markers;stop-color:#000000"
       d="m 36.532618,175.19286 c -2.011884,2.24939 -3.349017,1.47287 -5.89058,1.47287"
       id="path1552" />
    <path
       style="font-variation-settings:normal;display:inline;vector-effect:none;fill:none;fill-opacity:1;stroke:#ff0000;stroke-width:1.91179;stroke-linecap:butt;stroke-linejoin:miter;stroke-miterlimit:4;stroke-dasharray:none;stroke-dashoffset:0;stroke-opacity:1;-inkscape-stroke:none;paint-order:stroke fill markers;stop-color:#000000"
       d="m 25.364357,202.91761 c 0.495942,-0.099 0.981763,-0.29757 1.487826,-0.29757 0.140573,0 0.16419,0.25314 0.298016,0.29757 0.187805,0.063 0.401477,-0.0484 0.594905,0 0.518435,0.12967 0.968269,0.46535 1.487827,0.59501 1.030121,0.25776 2.22668,0.0888 3.272545,0.29757 1.58904,0.31792 3.167958,0.57422 4.760372,0.8927 0.429591,0.0855 1.072854,-0.13844 1.487826,0 0.146197,0.0484 0.605027,0.58591 0.892921,0.29745 0.06748,-0.0697 -0.10121,-0.29745 0,-0.29745 0.140573,0 0.197927,0.19826 0.298015,0.29745"
       id="path1553" />
  </g>
</svg>
