<?xml version="1.0" encoding="UTF-8" standalone="no"?>
<!-- Created with Inkscape (http://www.inkscape.org/) -->

<svg
   width="187.274mm"
   height="259mm"
   viewBox="0 0 187.274 259"
   version="1.1"
   id="svg1"
   inkscape:version="1.3.2 (091e20e, 2023-11-25)"
   sodipodi:docname="wendys_armpit_to_shouldersvg.svg"
   xmlns:inkscape="http://www.inkscape.org/namespaces/inkscape"
   xmlns:sodipodi="http://sodipodi.sourceforge.net/DTD/sodipodi-0.dtd"
   xmlns="http://www.w3.org/2000/svg"
   xmlns:svg="http://www.w3.org/2000/svg">
  <sodipodi:namedview
     id="namedview1"
     pagecolor="#ffffff"
     bordercolor="#eeeeee"
     borderopacity="1"
     inkscape:showpageshadow="0"
     inkscape:pageopacity="0"
     inkscape:pagecheckerboard="0"
     inkscape:deskcolor="#505050"
     inkscape:document-units="mm"
     inkscape:zoom="0.38723101"
     inkscape:cx="295.68913"
     inkscape:cy="410.60761"
     inkscape:window-width="1472"
     inkscape:window-height="803"
     inkscape:window-x="336"
     inkscape:window-y="1117"
     inkscape:window-maximized="1"
     inkscape:current-layer="layer1" />
  <defs
     id="defs1" />
  <g
     inkscape:label="Layer 1"
     inkscape:groupmode="layer"
     id="layer1">
    <path
       style="font-variation-settings:normal;display:inline;vector-effect:none;fill:none;fill-opacity:1;stroke:#ff0000;stroke-width:1.7;stroke-linecap:butt;stroke-linejoin:miter;stroke-miterlimit:4;stroke-dasharray:none;stroke-dashoffset:0;stroke-opacity:1;-inkscape-stroke:none;paint-order:stroke fill markers;stop-color:#000000"
       d="m 77.695383,49.812163 c 2.01898,10.1675 -4.8442,17.7453 -14.12051,19.9351 -10.6137,4.7939 -21.51171,12.8235 -22.70372,25.4725 -2.87435,11.251097 -4.93322,22.246897 -4.28304,33.987097 1.15461,11.586 0.38511,23.1443 1.94125,34.6761 0.79686,7.731 1.71126,15.4863 2.34146,23.2594"
       id="path839-6-5"
       inkscape:export-filename="./wendys_armpit_to_shoulder_dark.png"
       inkscape:export-xdpi="100"
       inkscape:export-ydpi="100" />
    <path
       style="font-variation-settings:normal;display:inline;vector-effect:none;fill:none;fill-opacity:1;stroke:#ff0000;stroke-width:1.7;stroke-linecap:butt;stroke-linejoin:miter;stroke-miterlimit:4;stroke-dasharray:none;stroke-dashoffset:0;stroke-opacity:1;-inkscape-stroke:none;paint-order:stroke fill markers;stop-color:#000000"
       d="m 66.343513,115.98546 c 2.56006,17.3276 -1.2177,34.7849 -2.68646,52.0522 -1.75436,8.5361 -0.78005,15.9856 1.30207,24.0884 1.41517,4.9352 1.64002,10.1637 3.59946,14.9513"
       id="path840-4-0" />
    <path
       style="font-variation-settings:normal;display:inline;vector-effect:none;fill:none;fill-opacity:1;stroke:#ff0000;stroke-width:1.7;stroke-linecap:butt;stroke-linejoin:miter;stroke-miterlimit:4;stroke-dasharray:none;stroke-dashoffset:0;stroke-opacity:1;-inkscape-stroke:none;paint-order:stroke fill markers;stop-color:#000000"
       d="m 40.594093,186.03486 c 6.09093,17.8279 13.39601,35.3766 18.82736,53.437 0.62862,1.7302 1.57223,3.3635 1.6613,5.2604"
       id="path841-7-6" />
    <path
       style="font-variation-settings:normal;display:inline;vector-effect:none;fill:none;fill-opacity:1;stroke:#ff0000;stroke-width:1.7;stroke-linecap:butt;stroke-linejoin:miter;stroke-miterlimit:4;stroke-dasharray:none;stroke-dashoffset:0;stroke-opacity:1;-inkscape-stroke:none;paint-order:stroke fill markers;stop-color:#000000"
       d="m 67.727893,204.03156 c 4.92596,15.6221 6.67299,32.3958 13.53318,47.3579"
       id="path842-8-4"
       sodipodi:nodetypes="cc" />
    <path
       style="font-variation-settings:normal;display:inline;vector-effect:none;fill:none;fill-opacity:1;stroke:#ff0000;stroke-width:1.7;stroke-linecap:butt;stroke-linejoin:miter;stroke-miterlimit:4;stroke-dasharray:none;stroke-dashoffset:0;stroke-opacity:1;-inkscape-stroke:none;paint-order:stroke fill markers;stop-color:#000000"
       d="m 68.281663,117.92346 c 17.97519,-5.4696 36.930217,-7.1129 55.651937,-6.645 3.48998,0.9463 -0.11092,-0.3656 3.04556,0.2766 l 2.2151,0.5538"
       id="path844-0-7" />
    <path
       style="font-variation-settings:normal;display:inline;vector-effect:none;fill:none;fill-opacity:1;stroke:#ff0000;stroke-width:1.7;stroke-linecap:butt;stroke-linejoin:miter;stroke-miterlimit:4;stroke-dasharray:none;stroke-dashoffset:0;stroke-opacity:1;-inkscape-stroke:none;paint-order:stroke fill markers;stop-color:#000000"
       d="m 111.47414,39.290963 c 0.67176,9.3457 -4.88834,20.8166 2.3e-4,28.5181 6.90434,3.6829 15.15678,6.328 20.48866,12.1825 7.07264,8.474 5.5453,20.298297 4.98383,30.732997 -1.7323,13.0488 1.14874,26.2126 8.7087,36.8791 3.06339,4.7733 5.53807,9.7504 7.90385,14.8965"
       id="path845-0-8" />
    <path
       style="font-variation-settings:normal;display:inline;vector-effect:none;fill:none;fill-opacity:1;stroke:#ff0000;stroke-width:1.7;stroke-linecap:butt;stroke-linejoin:miter;stroke-miterlimit:4;stroke-dasharray:none;stroke-dashoffset:0;stroke-opacity:1;-inkscape-stroke:none;paint-order:stroke fill markers;stop-color:#000000"
       d="m 70.219733,7.7271627 c -0.3041,3.6272003 0.68453,7.0717003 0.432,10.7284003 0.23163,4.7989 0.0531,9.6602 1.16086,14.3754 0.79086,3.2984 1.23863,6.6851 2.80855,9.7347 1.03361,2.7021 1.86389,5.4692 3.73419,7.7561 2.3286,2.9184 3.81063,7.0449 7.90451,8.6885 3.63224,2.001 8.12417,1.9658 11.71009,-0.097 3.541727,-1.5284 6.690507,-4.247 7.868387,-8.0067 0.16816,-0.4768 0.36379,-0.9499 0.65183,-1.3692"
       id="path846-6-4" />
    <path
       style="font-variation-settings:normal;display:inline;vector-effect:none;fill:none;fill-opacity:1;stroke:#ff0000;stroke-width:1.7;stroke-linecap:butt;stroke-linejoin:miter;stroke-miterlimit:4;stroke-dasharray:none;stroke-dashoffset:0;stroke-opacity:1;-inkscape-stroke:none;paint-order:stroke fill markers;stop-color:#000000"
       d="m 115.62734,21.017163 c 7.49956,-4.499 2.76999,17.9643 -2.21498,17.4431"
       id="path847-2-0" />
    <path
       style="font-variation-settings:normal;display:inline;vector-effect:none;fill:none;fill-opacity:1;stroke:#ff0000;stroke-width:1.7;stroke-linecap:butt;stroke-linejoin:miter;stroke-miterlimit:4;stroke-dasharray:none;stroke-dashoffset:0;stroke-opacity:1;-inkscape-stroke:none;paint-order:stroke fill markers;stop-color:#000000"
       d="m 72.157903,66.424763 c 8.00935,4.5951 14.12512,11.1988 21.31936,17.1657 8.211447,7.6026 15.843047,16.1645 19.658027,26.856997"
       id="path848-4-0" />
    <path
       style="font-variation-settings:normal;display:inline;vector-effect:none;fill:none;fill-opacity:1;stroke:#ff0000;stroke-width:1.7;stroke-linecap:butt;stroke-linejoin:miter;stroke-miterlimit:4;stroke-dasharray:none;stroke-dashoffset:0;stroke-opacity:1;-inkscape-stroke:none;paint-order:stroke fill markers;stop-color:#000000"
       d="m 58.867913,81.099063 c 11.51245,5.904 22.62381,13.0892 33.50192,19.658197 4.6573,3.3311 9.660827,6.8943 13.566817,10.7982"
       id="path849-7-6" />
    <path
       style="font-variation-settings:normal;display:inline;vector-effect:none;fill:none;fill-opacity:1;stroke:#ff0000;stroke-width:1.7;stroke-linecap:butt;stroke-linejoin:miter;stroke-miterlimit:4;stroke-dasharray:none;stroke-dashoffset:0;stroke-opacity:1;-inkscape-stroke:none;paint-order:stroke fill markers;stop-color:#000000"
       d="m 63.297883,74.730963 c 11.42793,1.7193 20.36649,10.6194 29.45656,17.1279 4.29678,3.6547 13.087327,10.605897 17.889027,17.204597"
       id="path850-4-2" />
    <path
       style="font-variation-settings:normal;display:inline;vector-effect:none;fill:none;fill-opacity:1;stroke:#ff0000;stroke-width:1.7;stroke-linecap:butt;stroke-linejoin:miter;stroke-miterlimit:4;stroke-dasharray:none;stroke-dashoffset:0;stroke-opacity:1;-inkscape-stroke:none;paint-order:stroke fill markers;stop-color:#000000"
       d="m 63.297883,82.206663 c 13.25323,5.1973 23.80468,15.3403 36.41497,21.794297 2.689277,1.9611 6.121947,2.8572 7.885047,5.8933"
       id="path851-1-4" />
    <path
       style="font-variation-settings:normal;display:inline;vector-effect:none;fill:none;fill-opacity:1;stroke:#ff0000;stroke-width:1.7;stroke-linecap:butt;stroke-linejoin:miter;stroke-miterlimit:4;stroke-dasharray:none;stroke-dashoffset:0;stroke-opacity:1;-inkscape-stroke:none;paint-order:stroke fill markers;stop-color:#000000"
       d="m 46.131633,93.835363 c 10.27842,2.0414 20.26871,4.6836 29.90251,8.859897 1.92548,0.5989 3.98324,0.7659 5.81436,1.6612"
       id="path852-8-7" />
    <path
       style="font-variation-settings:normal;display:inline;vector-effect:none;fill:none;fill-opacity:1;stroke:#ff0000;stroke-width:1.7;stroke-linecap:butt;stroke-linejoin:miter;stroke-miterlimit:4;stroke-dasharray:none;stroke-dashoffset:0;stroke-opacity:1;-inkscape-stroke:none;paint-order:stroke fill markers;stop-color:#000000"
       d="m 39.209713,107.95596 c 10.73056,0.6559 21.8097,-2.3443 32.81891,-1.7292 l 2.07237,-0.017 1.93315,0.3568"
       id="path853-5-4" />
    <path
       style="font-variation-settings:normal;display:inline;vector-effect:none;fill:none;fill-opacity:1;stroke:#ff0000;stroke-width:1.7;stroke-linecap:butt;stroke-linejoin:miter;stroke-miterlimit:4;stroke-dasharray:none;stroke-dashoffset:0;stroke-opacity:1;-inkscape-stroke:none;paint-order:stroke fill markers;stop-color:#000000"
       d="m 37.548453,117.36986 c 10.00516,0.6778 19.17339,-1.1016 29.45167,-1.9775 1.25198,-1.2118 5.54952,-3e-4 5.71155,-1.8985"
       id="path854-8-1" />
    <path
       style="font-variation-settings:normal;display:inline;vector-effect:none;fill:none;fill-opacity:1;stroke:#ff0000;stroke-width:1.7;stroke-linecap:butt;stroke-linejoin:miter;stroke-miterlimit:4;stroke-dasharray:none;stroke-dashoffset:0;stroke-opacity:1;-inkscape-stroke:none;paint-order:stroke fill markers;stop-color:#000000"
       d="m 42.809183,100.75726 c 8.40108,4.8982 20.08748,-1.029597 29.07176,4.4301 5.11609,1.1925 10.36873,1.9158 15.50503,2.7686"
       id="path855-9-8" />
    <path
       style="font-variation-settings:normal;display:inline;vector-effect:none;fill:none;fill-opacity:1;stroke:#ff0000;stroke-width:1.7;stroke-linecap:butt;stroke-linejoin:miter;stroke-miterlimit:4;stroke-dasharray:none;stroke-dashoffset:0;stroke-opacity:1;-inkscape-stroke:none;paint-order:stroke fill markers;stop-color:#000000"
       d="m 46.962273,84.975463 c 5.27067,-0.9141 10.12619,2.0391 14.39748,4.7068"
       id="path856-9-5" />
    <path
       style="font-variation-settings:normal;display:inline;vector-effect:none;fill:none;fill-opacity:1;stroke:#ff0000;stroke-width:1.7;stroke-linecap:butt;stroke-linejoin:miter;stroke-miterlimit:4;stroke-dasharray:none;stroke-dashoffset:0;stroke-opacity:1;-inkscape-stroke:none;paint-order:stroke fill markers;stop-color:#000000"
       d="m 53.607183,75.561663 c 5.14547,3.0532 12.21622,1.0981 16.61255,6.368"
       id="path857-9-8" />
    <path
       style="font-variation-settings:normal;display:inline;vector-effect:none;fill:none;fill-opacity:1;stroke:#ff0000;stroke-width:1.7;stroke-linecap:butt;stroke-linejoin:miter;stroke-miterlimit:4;stroke-dasharray:none;stroke-dashoffset:0;stroke-opacity:1;-inkscape-stroke:none;paint-order:stroke fill markers;stop-color:#000000"
       d="m 64.405393,70.577963 c 4.96418,1.7326 10.68181,0.8964 15.22817,3.8763"
       id="path858-3-9" />
    <path
       style="font-variation-settings:normal;display:inline;vector-effect:none;fill:none;fill-opacity:1;stroke:#ff0000;stroke-width:1.7;stroke-linecap:butt;stroke-linejoin:miter;stroke-miterlimit:4;stroke-dasharray:none;stroke-dashoffset:0;stroke-opacity:1;-inkscape-stroke:none;paint-order:stroke fill markers;stop-color:#000000"
       d="m 113.41224,105.18726 c 4.62583,0.3617 9.75943,1.3599 13.84375,3.3225"
       id="path859-3-9" />
    <path
       style="font-variation-settings:normal;display:inline;vector-effect:none;fill:none;fill-opacity:1;stroke:#ff0000;stroke-width:1.7;stroke-linecap:butt;stroke-linejoin:miter;stroke-miterlimit:4;stroke-dasharray:none;stroke-dashoffset:0;stroke-opacity:1;-inkscape-stroke:none;paint-order:stroke fill markers;stop-color:#000000"
       d="m 79.356603,118.20046 c 15.31693,-2.0334 30.973637,-3.6865 46.238237,-0.8309 l 1.66115,1.6613"
       id="path860-7-9" />
    <path
       style="font-variation-settings:normal;display:inline;vector-effect:none;fill:none;fill-opacity:1;stroke:#ff0000;stroke-width:1.7;stroke-linecap:butt;stroke-linejoin:miter;stroke-miterlimit:4;stroke-dasharray:none;stroke-dashoffset:0;stroke-opacity:1;-inkscape-stroke:none;paint-order:stroke fill markers;stop-color:#000000"
       d="m 127.80982,111.55546 c -0.009,9.026 1.46007,18.2933 -0.55412,27.1338 -1.5467,7.376 -5.04182,16.6454 -6.14483,23.0596 3.30975,3.7953 3.68312,8.2794 3.93004,13.4875"
       id="path861-7-3" />
    <path
       style="font-variation-settings:normal;display:inline;vector-effect:none;fill:none;fill-opacity:1;stroke:#ff0000;stroke-width:1.7;stroke-linecap:butt;stroke-linejoin:miter;stroke-miterlimit:4;stroke-dasharray:none;stroke-dashoffset:0;stroke-opacity:1;-inkscape-stroke:none;paint-order:stroke fill markers;stop-color:#000000"
       d="m 65.235933,182.98926 c 13.47523,2.0985 27.19949,4.8086 40.703457,1.5537 4.30445,-0.8358 9.30029,-1.4142 12.73352,-4.3226"
       id="path863-3-3" />
    <path
       style="font-variation-settings:normal;display:inline;vector-effect:none;fill:none;fill-opacity:1;stroke:#ff0000;stroke-width:1.7;stroke-linecap:butt;stroke-linejoin:miter;stroke-miterlimit:4;stroke-dasharray:none;stroke-dashoffset:0;stroke-opacity:1;-inkscape-stroke:none;paint-order:stroke fill markers;stop-color:#000000"
       d="m 72.988513,159.17796 c 12.18272,1.2362 24.90419,-0.3919 37.268497,-0.207 2.44013,0.2216 4.89337,0.018 7.30839,-0.3459"
       id="path864-2-7" />
    <path
       style="font-variation-settings:normal;display:inline;vector-effect:none;fill:none;fill-opacity:1;stroke:#ff0000;stroke-width:1.7;stroke-linecap:butt;stroke-linejoin:miter;stroke-miterlimit:4;stroke-dasharray:none;stroke-dashoffset:0;stroke-opacity:1;-inkscape-stroke:none;paint-order:stroke fill markers;stop-color:#000000"
       d="m 69.389093,123.73796 c 8.95791,-3.0401 19.10891,-3.4828 28.51816,-3.3226"
       id="path865-5-7" />
    <path
       style="font-variation-settings:normal;display:inline;vector-effect:none;fill:none;fill-opacity:1;stroke:#ff0000;stroke-width:1.7;stroke-linecap:butt;stroke-linejoin:miter;stroke-miterlimit:4;stroke-dasharray:none;stroke-dashoffset:0;stroke-opacity:1;-inkscape-stroke:none;paint-order:stroke fill markers;stop-color:#000000"
       d="m 69.389093,125.39916 c 6.86943,-1.026 10.80354,-1.0057 16.05882,-1.9381"
       id="path866-6-5-3" />
    <path
       style="font-variation-settings:normal;display:inline;vector-effect:none;fill:none;fill-opacity:1;stroke:#ff0000;stroke-width:1.7;stroke-linecap:butt;stroke-linejoin:miter;stroke-miterlimit:4;stroke-dasharray:none;stroke-dashoffset:0;stroke-opacity:1;-inkscape-stroke:none;paint-order:stroke fill markers;stop-color:#000000"
       d="m 66.620283,134.25926 c 5.88126,0.4622 10.37539,0.1541 9.14839,-0.2569 5.8882,-0.643 11.82578,-0.204 17.70859,-0.8511"
       id="path867-3-2" />
    <path
       style="font-variation-settings:normal;display:inline;vector-effect:none;fill:none;fill-opacity:1;stroke:#ff0000;stroke-width:1.7;stroke-linecap:butt;stroke-linejoin:miter;stroke-miterlimit:4;stroke-dasharray:none;stroke-dashoffset:0;stroke-opacity:1;-inkscape-stroke:none;paint-order:stroke fill markers;stop-color:#000000"
       d="m 72.711673,174.12926 c 12.14318,0.5032 24.33242,-0.7791 36.482427,-1.2301 1.79612,-0.086 3.52645,-0.6407 5.32567,-0.708"
       id="path868-4-5" />
    <path
       style="font-variation-settings:normal;display:inline;vector-effect:none;fill:none;fill-opacity:1;stroke:#ff0000;stroke-width:1.7;stroke-linecap:butt;stroke-linejoin:miter;stroke-miterlimit:4;stroke-dasharray:none;stroke-dashoffset:0;stroke-opacity:1;-inkscape-stroke:none;paint-order:stroke fill markers;stop-color:#000000"
       d="m 89.601093,176.89796 c 10.567147,-1.034 21.684897,0.2358 31.840547,-3.0457"
       id="path869-0-6" />
    <path
       style="font-variation-settings:normal;display:inline;vector-effect:none;fill:none;fill-opacity:1;stroke:#ff0000;stroke-width:1.7;stroke-linecap:butt;stroke-linejoin:miter;stroke-miterlimit:4;stroke-dasharray:none;stroke-dashoffset:0;stroke-opacity:1;-inkscape-stroke:none;paint-order:stroke fill markers;stop-color:#000000"
       d="m 65.789753,176.34426 c 10.48985,2.9998 21.93032,3.4405 32.87928,3.4969 5.008767,-0.3035 9.995027,-1.0044 15.020177,-1.0051"
       id="path870-6-3" />
    <path
       style="font-variation-settings:normal;display:inline;vector-effect:none;fill:none;fill-opacity:1;stroke:#ff0000;stroke-width:1.7;stroke-linecap:butt;stroke-linejoin:miter;stroke-miterlimit:4;stroke-dasharray:none;stroke-dashoffset:0;stroke-opacity:1;-inkscape-stroke:none;paint-order:stroke fill markers;stop-color:#000000"
       d="m 36.441003,122.35356 c -4.34685,12.1519 -1.37856,25.4918 -5.5374,37.655 -2.62547,9.3928 -6.02198,19.7887 6.64491,20.4885 0.63748,0.3987 2.12417,-0.1542 2.49189,0.8306"
       id="path871-0-4" />
    <path
       style="font-variation-settings:normal;display:inline;vector-effect:none;fill:none;fill-opacity:1;stroke:#ff0000;stroke-width:1.7;stroke-linecap:butt;stroke-linejoin:miter;stroke-miterlimit:4;stroke-dasharray:none;stroke-dashoffset:0;stroke-opacity:1;-inkscape-stroke:none;paint-order:stroke fill markers;stop-color:#000000"
       d="m 26.750253,175.51356 c -1.31962,6.3652 -4.70228,17.6599 -6.92163,26.0263 -1.44382,6.0594 -1.36851,15.3197 -9.137,18.5505 -10.87909995,5.4209 -5.0157299,15.2668 5.53731,14.397 8.62508,2.1369 12.24502,-5.7087 13.01286,-12.7358 2.43193,-8.8451 7.19343,-16.8945 9.69044,-25.7491 -0.44433,-2.787 2.83384,-5.4524 1.9383,-8.0294"
       id="path872-4-0" />
    <path
       style="font-variation-settings:normal;display:inline;vector-effect:none;fill:none;fill-opacity:1;stroke:#ff0000;stroke-width:1.7;stroke-linecap:butt;stroke-linejoin:miter;stroke-miterlimit:4;stroke-dasharray:none;stroke-dashoffset:0;stroke-opacity:1;-inkscape-stroke:none;paint-order:stroke fill markers;stop-color:#000000"
       d="m 34.779743,207.63106 c -3.00647,14.3435 -3.7781,29.4935 -1.66126,44.0231"
       id="path873-0-6" />
    <path
       style="font-variation-settings:normal;display:inline;vector-effect:none;fill:none;fill-opacity:1;stroke:#ff0000;stroke-width:1.7;stroke-linecap:butt;stroke-linejoin:miter;stroke-miterlimit:4;stroke-dasharray:none;stroke-dashoffset:0;stroke-opacity:1;-inkscape-stroke:none;paint-order:stroke fill markers;stop-color:#000000"
       d="m 126.42488,249.71576 c 0.41873,-10.8541 -2.71351,-21.7054 -3.87596,-32.3945 -3.02793,-7.3454 -7.1734,-14.3114 -11.67377,-20.8742 -3.72786,-6.965 -20.682447,-14.4561 -17.919287,-0.6425 1.43649,10.1393 3.04153,24.1129 1.07559,31.485 -0.009,7.7418 -0.26478,15.5445 0.55369,23.2575"
       id="path874-5-0" />
    <path
       style="font-variation-settings:normal;display:inline;vector-effect:none;fill:none;fill-opacity:1;stroke:#ff0000;stroke-width:1.7;stroke-linecap:butt;stroke-linejoin:miter;stroke-miterlimit:4;stroke-dasharray:none;stroke-dashoffset:0;stroke-opacity:1;-inkscape-stroke:none;paint-order:stroke fill markers;stop-color:#000000"
       d="m 94.861623,212.06126 c -8.81209,0.7504 -22.56726,-2.6128 -18.22486,-13.8911 -7.28353,-9.2361 2.05422,-13.1532 10.47277,-12.9659 3.39985,0.2019 8.85962,0.8609 10.52125,3.5991"
       id="path875-6-4" />
    <path
       style="font-variation-settings:normal;display:inline;vector-effect:none;fill:none;fill-opacity:1;stroke:#ff0000;stroke-width:1.7;stroke-linecap:butt;stroke-linejoin:miter;stroke-miterlimit:4;stroke-dasharray:none;stroke-dashoffset:0;stroke-opacity:1;-inkscape-stroke:none;paint-order:stroke fill markers;stop-color:#000000"
       d="m 77.418473,198.49436 c 4.54399,-0.7027 9.98186,-0.9178 13.56697,2.4917"
       id="path876-8-0" />
    <path
       style="font-variation-settings:normal;display:inline;vector-effect:none;fill:none;fill-opacity:1;stroke:#ff0000;stroke-width:1.7;stroke-linecap:butt;stroke-linejoin:miter;stroke-miterlimit:4;stroke-dasharray:none;stroke-dashoffset:0;stroke-opacity:1;-inkscape-stroke:none;paint-order:stroke fill markers;stop-color:#000000"
       d="m 76.310943,195.72536 c 2.90894,-1.5666 8.06053,-2.142 10.52139,0.2767"
       id="path877-5-5" />
    <path
       style="font-variation-settings:normal;display:inline;vector-effect:none;fill:none;fill-opacity:1;stroke:#ff0000;stroke-width:1.7;stroke-linecap:butt;stroke-linejoin:miter;stroke-miterlimit:4;stroke-dasharray:none;stroke-dashoffset:0;stroke-opacity:1;-inkscape-stroke:none;paint-order:stroke fill markers;stop-color:#000000"
       d="m 75.757283,192.12606 c 1.43619,-2.2293 4.26038,-2.0809 6.36803,-1.1074"
       id="path878-3-6" />
    <path
       style="font-variation-settings:normal;display:inline;vector-effect:none;fill:none;fill-opacity:1;stroke:#ff0000;stroke-width:1.7;stroke-linecap:butt;stroke-linejoin:miter;stroke-miterlimit:4;stroke-dasharray:none;stroke-dashoffset:0;stroke-opacity:1;-inkscape-stroke:none;paint-order:stroke fill markers;stop-color:#000000"
       d="m 75.480363,203.47806 c 1.56349,3.1518 5.35099,3.9216 8.30634,5.2605"
       id="path879-7-8" />
    <path
       style="font-variation-settings:normal;display:inline;vector-effect:none;fill:none;fill-opacity:1;stroke:#ff0000;stroke-width:1.7;stroke-linecap:butt;stroke-linejoin:miter;stroke-miterlimit:4;stroke-dasharray:none;stroke-dashoffset:0;stroke-opacity:1;-inkscape-stroke:none;paint-order:stroke fill markers;stop-color:#000000"
       d="m 115.35037,202.64726 c 2.01988,-5.3464 9.1143,-7.3291 7.19883,-14.1202"
       id="path880-6-5" />
    <path
       style="font-variation-settings:normal;display:inline;vector-effect:none;fill:none;fill-opacity:1;stroke:#ff0000;stroke-width:1.7;stroke-linecap:butt;stroke-linejoin:miter;stroke-miterlimit:4;stroke-dasharray:none;stroke-dashoffset:0;stroke-opacity:1;-inkscape-stroke:none;paint-order:stroke fill markers;stop-color:#000000"
       d="m 124.48727,191.57236 c 4.01781,7.268 14.15032,15.4116 17.44311,3.5995 2.77066,-5.4536 13.78737,-20.9938 2.12262,-20.9253 -4.65545,2.1966 -9.4022,11.4317 -14.63824,6.7323 -2.46861,-12.3969 -14.92588,-0.7286 -7.69615,5.886 0.38747,3.3293 -2.18387,6.0729 -2.21489,9.4137"
       id="path881-8-3" />
    <path
       style="font-variation-settings:normal;display:inline;vector-effect:none;fill:none;fill-opacity:1;stroke:#ff0000;stroke-width:1.7;stroke-linecap:butt;stroke-linejoin:miter;stroke-miterlimit:4;stroke-dasharray:none;stroke-dashoffset:0;stroke-opacity:1;-inkscape-stroke:none;paint-order:stroke fill markers;stop-color:#000000"
       d="m 120.05736,184.37366 c 0.22452,4.4529 -1.85835,9.6827 -6.09134,11.6287"
       id="path882-6-7" />
    <path
       style="font-variation-settings:normal;display:inline;vector-effect:none;fill:none;fill-opacity:1;stroke:#ff0000;stroke-width:1.7;stroke-linecap:butt;stroke-linejoin:miter;stroke-miterlimit:4;stroke-dasharray:none;stroke-dashoffset:0;stroke-opacity:1;-inkscape-stroke:none;paint-order:stroke fill markers;stop-color:#000000"
       d="m 104.55231,187.97306 c 3.00452,-1.4689 5.95286,-3.0911 9.1369,-4.1532"
       id="path883-7-6" />
    <path
       style="font-variation-settings:normal;display:inline;vector-effect:none;fill:none;fill-opacity:1;stroke:#ff0000;stroke-width:1.7;stroke-linecap:butt;stroke-linejoin:miter;stroke-miterlimit:4;stroke-dasharray:none;stroke-dashoffset:0;stroke-opacity:1;-inkscape-stroke:none;paint-order:stroke fill markers;stop-color:#000000"
       d="m 73.542233,189.63426 c -1.22265,-1.6249 -6.37334,-6.0603 -8.02934,-4.7071"
       id="path884-1-8" />
    <path
       style="font-variation-settings:normal;display:inline;vector-effect:none;fill:none;fill-opacity:1;stroke:#ff0000;stroke-width:1.7;stroke-linecap:butt;stroke-linejoin:miter;stroke-miterlimit:4;stroke-dasharray:none;stroke-dashoffset:0;stroke-opacity:1;-inkscape-stroke:none;paint-order:stroke fill markers;stop-color:#000000"
       d="m 68.281663,206.24676 c 7.01155,1.1639 11.09649,-7.7867 0.83061,-4.7069"
       id="path885-8-2-6" />
    <path
       style="font-variation-settings:normal;display:inline;vector-effect:none;fill:none;fill-opacity:1;stroke:#ff0000;stroke-width:1.7;stroke-linecap:butt;stroke-linejoin:miter;stroke-miterlimit:4;stroke-dasharray:none;stroke-dashoffset:0;stroke-opacity:1;-inkscape-stroke:none;paint-order:stroke fill markers;stop-color:#000000"
       d="m 76.034143,197.94056 c -2.21442,-1.5843 -4.59127,-3.0133 -6.92192,-4.4301"
       id="path886-4-7" />
    <path
       style="font-variation-settings:normal;display:inline;vector-effect:none;fill:none;fill-opacity:1;stroke:#ff0000;stroke-width:1.7;stroke-linecap:butt;stroke-linejoin:miter;stroke-miterlimit:4;stroke-dasharray:none;stroke-dashoffset:0;stroke-opacity:1;-inkscape-stroke:none;paint-order:stroke fill markers;stop-color:#000000"
       d="m 74.649753,192.95686 c -0.66601,-2.6191 -4.13313,-1.8389 -5.81439,-3.3226"
       id="path887-9-1" />
    <path
       style="font-variation-settings:normal;display:inline;vector-effect:none;fill:none;fill-opacity:1;stroke:#ff0000;stroke-width:1.7;stroke-linecap:butt;stroke-linejoin:miter;stroke-miterlimit:4;stroke-dasharray:none;stroke-dashoffset:0;stroke-opacity:1;-inkscape-stroke:none;paint-order:stroke fill markers;stop-color:#000000"
       d="m 99.014733,191.57236 c -5.05021,10.5297 5.175077,20.5164 4.153067,31.2869 0.53147,6.3776 0.79088,12.7955 1.9381,19.1043"
       id="path888-7-8" />
    <path
       style="font-variation-settings:normal;display:inline;vector-effect:none;fill:none;fill-opacity:1;stroke:#ff0000;stroke-width:1.7;stroke-linecap:butt;stroke-linejoin:miter;stroke-miterlimit:4;stroke-dasharray:none;stroke-dashoffset:0;stroke-opacity:1;-inkscape-stroke:none;paint-order:stroke fill markers;stop-color:#000000"
       d="m 102.6142,196.00236 c 8.74697,11.5332 7.95188,27.4041 12.45941,40.7007"
       id="path889-3-4" />
    <path
       style="font-variation-settings:normal;display:inline;vector-effect:none;fill:none;fill-opacity:1;stroke:#ff0000;stroke-width:1.7;stroke-linecap:butt;stroke-linejoin:miter;stroke-miterlimit:4;stroke-dasharray:none;stroke-dashoffset:0;stroke-opacity:1;-inkscape-stroke:none;paint-order:stroke fill markers;stop-color:#000000"
       d="m 153.00541,161.39296 c 4.59656,9.1482 10.10593,17.5039 14.9512,26.5801"
       id="path890-1-9" />
    <path
       style="font-variation-settings:normal;display:inline;vector-effect:none;fill:none;fill-opacity:1;stroke:#ff0000;stroke-width:1.7;stroke-linecap:butt;stroke-linejoin:miter;stroke-miterlimit:4;stroke-dasharray:none;stroke-dashoffset:0;stroke-opacity:1;-inkscape-stroke:none;paint-order:stroke fill markers;stop-color:#000000"
       d="m 124.76414,149.48726 c 4.69882,8.5674 8.28497,17.8707 14.95117,24.365 0.92665,0.018 0.55112,1.2141 1.38437,1.3844"
       id="path891-0-7" />
    <path
       style="font-variation-settings:normal;display:inline;vector-effect:none;fill:none;fill-opacity:1;stroke:#ff0000;stroke-width:1.7;stroke-linecap:butt;stroke-linejoin:miter;stroke-miterlimit:4;stroke-dasharray:none;stroke-dashoffset:0;stroke-opacity:1;-inkscape-stroke:none;paint-order:stroke fill markers;stop-color:#000000"
       d="m 149.40604,184.37366 c 7.98718,5.5549 11.83523,14.2115 15.23105,22.7099 3.65558,4.5916 5.4654,10.4069 8.57944,15.4983 6.29162,5.6537 0.43387,-9.4678 0.27662,-11.3517"
       id="path892-2-3" />
    <path
       style="font-variation-settings:normal;display:inline;vector-effect:none;fill:none;fill-opacity:1;stroke:#ff0000;stroke-width:1.7;stroke-linecap:butt;stroke-linejoin:miter;stroke-miterlimit:4;stroke-dasharray:none;stroke-dashoffset:0;stroke-opacity:1;-inkscape-stroke:none;paint-order:stroke fill markers;stop-color:#000000"
       d="m 166.57242,186.03486 c 3.78097,10.0545 9.99957,18.6237 14.19913,28.3574 2.26421,6.6981 -2.6117,18.581 -7.51927,19.9742 -5.3859,2.2646 -1.9914,-7.8775 -3.35724,-10.9536 0.53277,-1.6666 -0.92896,-4.1045 1.38435,-4.9836"
       id="path893-3-1" />
    <path
       style="font-variation-settings:normal;display:inline;vector-effect:none;fill:none;fill-opacity:1;stroke:#ff0000;stroke-width:1.7;stroke-linecap:butt;stroke-linejoin:miter;stroke-miterlimit:4;stroke-dasharray:none;stroke-dashoffset:0;stroke-opacity:1;-inkscape-stroke:none;paint-order:stroke fill markers;stop-color:#000000"
       d="m 76.587843,209.29226 c 0.30978,5.0448 -1.22099,10.9103 -3.87617,14.3976"
       id="path894-7-2-0" />
    <path
       style="font-variation-settings:normal;display:inline;vector-effect:none;fill:none;fill-opacity:1;stroke:#ff0000;stroke-width:1.7;stroke-linecap:butt;stroke-linejoin:miter;stroke-miterlimit:4;stroke-dasharray:none;stroke-dashoffset:0;stroke-opacity:1;-inkscape-stroke:none;paint-order:stroke fill markers;stop-color:#000000"
       d="m 74.372933,61.994763 c -5.60465,-7.4293 -19.82179,-3.3886 -23.87723,4.2073 -1.76347,5.1872 -3.27645,10.9219 -1.5953,16.2814"
       id="path898-3-2" />
    <path
       style="font-variation-settings:normal;display:inline;vector-effect:none;fill:none;fill-opacity:1;stroke:#ff0000;stroke-width:1.7;stroke-linecap:butt;stroke-linejoin:miter;stroke-miterlimit:4;stroke-dasharray:none;stroke-dashoffset:0;stroke-opacity:1;-inkscape-stroke:none;paint-order:stroke fill markers;stop-color:#000000"
       d="m 37.271643,107.95596 c -8.66601,3.4862 -13.67453,15.0834 -8.20471,23.0373 l 1.404,0.5714 1.81691,0.2031"
       id="path899-7-7-3" />
  </g>
</svg>
